SplineFontDB: 3.2
FontName: PixelUltima
FullName: Pixel Ultima Regular
FamilyName: Pixel Ultima
Weight: Book
Copyright: Copyright (c) 2021, Douglas Leao, (DeeJayLSP, a.k.a. Didiei) 
Version: 2021
ItalicAngle: 0
UnderlinePosition: -2
UnderlineWidth: 1
Ascent: 52
Descent: 12
InvalidEm: 0
sfntRevision: 0x00010000
LayerCount: 2
Layer: 0 1 "Back" 1
Layer: 1 1 "Fore" 0
XUID: [1021 136 -898950254 11768413]
StyleMap: 0x0040
FSType: 4
OS2Version: 2
OS2_WeightWidthSlopeOnly: 0
OS2_UseTypoMetrics: 0
CreationTime: 1635657671
ModificationTime: 1657493126
PfmFamily: 81
TTFWeight: 400
TTFWidth: 5
LineGap: 0
VLineGap: 0
Panose: 0 0 0 0 0 0 0 0 0 0
OS2TypoAscent: 52
OS2TypoAOffset: 0
OS2TypoDescent: -12
OS2TypoDOffset: 0
OS2TypoLinegap: 100
OS2WinAscent: 52
OS2WinAOffset: 0
OS2WinDescent: 12
OS2WinDOffset: 0
HheadAscent: 52
HheadAOffset: 0
HheadDescent: -12
HheadDOffset: 0
OS2SubXSize: 40
OS2SubYSize: 40
OS2SubXOff: 40
OS2SubYOff: 40
OS2SupXSize: 40
OS2SupYSize: 40
OS2SupXOff: 40
OS2SupYOff: 40
OS2StrikeYSize: 40
OS2StrikeYPos: 200
OS2CapHeight: 52
OS2XHeight: 40
OS2Vendor: 'Bird'
OS2CodePages: 203f00ff.dffd0000
OS2UnicodeRanges: 00000001.00000000.00000000.00000000
Lookup: 258 0 0 "'kern' Horizontal Kerning lookup 0" { "'kern' Horizontal Kerning lookup 0 subtable"  } [' RQD' ('DFLT' <'dflt' > ) 'kern' ('DFLT' <'dflt' > ) ]
MarkAttachClasses: 1
DEI: 91125
ShortTable: maxp 16
  1
  0
  303
  154
  18
  0
  0
  1
  0
  0
  0
  0
  0
  0
  0
  0
EndShort

StartChar: .notdef
Encoding: 65536 -1 0
Width: 36
Flags: W
LayerCount: 2
Fore
SplineSet
0 52 m 1,0,-1
 28 52 l 1,1,-1
 28 0 l 1,2,-1
 0 0 l 1,3,-1
 0 52 l 1,0,-1
4 4 m 1,4,-1
 24 4 l 1,5,-1
 24 48 l 1,6,-1
 4 48 l 1,7,-1
 4 4 l 1,4,-1
EndSplineSet
Validated: 1
EndChar

StartChar: exclam
Encoding: 33 33 4
Width: 12
GlyphClass: 2
Flags: W
LayerCount: 2
Fore
SplineSet
0 16 m 1,0,-1
 0 52 l 1,1,-1
 4 52 l 1,2,-1
 4 16 l 1,3,-1
 0 16 l 1,0,-1
0 0 m 1,4,-1
 0 8 l 1,5,-1
 4 8 l 1,6,-1
 4 0 l 1,7,-1
 0 0 l 1,4,-1
EndSplineSet
Validated: 1
EndChar

StartChar: quotedbl
Encoding: 34 34 5
Width: 24
GlyphClass: 2
Flags: W
LayerCount: 2
Fore
SplineSet
12 32 m 1,0,-1
 12 52 l 1,1,-1
 16 52 l 1,2,-1
 16 32 l 1,3,-1
 12 32 l 1,0,-1
0 32 m 1,4,-1
 0 52 l 1,5,-1
 4 52 l 1,6,-1
 4 32 l 1,7,-1
 0 32 l 1,4,-1
EndSplineSet
Validated: 1
EndChar

StartChar: numbersign
Encoding: 35 35 6
Width: 44
GlyphClass: 2
Flags: W
LayerCount: 2
Fore
SplineSet
8 0 m 1,0,-1
 8 12 l 1,1,-1
 0 12 l 1,2,-1
 0 16 l 1,3,-1
 8 16 l 1,4,-1
 8 36 l 1,5,-1
 0 36 l 1,6,-1
 0 40 l 1,7,-1
 8 40 l 1,8,-1
 8 52 l 1,9,-1
 12 52 l 1,10,-1
 12 40 l 1,11,-1
 24 40 l 1,12,-1
 24 52 l 1,13,-1
 28 52 l 1,14,-1
 28 40 l 1,15,-1
 36 40 l 1,16,-1
 36 36 l 1,17,-1
 28 36 l 1,18,-1
 28 16 l 1,19,-1
 36 16 l 1,20,-1
 36 12 l 1,21,-1
 28 12 l 1,22,-1
 28 0 l 1,23,-1
 24 0 l 1,24,-1
 24 12 l 1,25,-1
 12 12 l 1,26,-1
 12 0 l 1,27,-1
 8 0 l 1,0,-1
24 16 m 1,28,-1
 24 36 l 1,29,-1
 12 36 l 1,30,-1
 12 16 l 1,31,-1
 24 16 l 1,28,-1
EndSplineSet
Validated: 1
EndChar

StartChar: dollar
Encoding: 36 36 7
Width: 36
GlyphClass: 2
Flags: W
LayerCount: 2
Fore
SplineSet
12 0 m 1,0,-1
 12 8 l 1,1,-1
 4 8 l 1,2,-1
 4 12 l 1,3,-1
 12 12 l 1,4,-1
 12 24 l 1,5,-1
 4 24 l 1,6,-1
 4 28 l 1,7,-1
 12 28 l 1,8,-1
 12 40 l 1,9,-1
 4 40 l 1,10,-1
 4 44 l 1,11,-1
 12 44 l 1,12,-1
 12 52 l 1,13,-1
 16 52 l 1,14,-1
 16 44 l 1,15,-1
 24 44 l 1,16,-1
 24 40 l 1,17,-1
 16 40 l 1,18,-1
 16 28 l 1,19,-1
 24 28 l 1,20,-1
 24 24 l 1,21,-1
 16 24 l 1,22,-1
 16 12 l 1,23,-1
 24 12 l 1,24,-1
 24 8 l 1,25,-1
 16 8 l 1,26,-1
 16 0 l 1,27,-1
 12 0 l 1,0,-1
0 28 m 1,28,-1
 0 40 l 1,29,-1
 4 40 l 1,30,-1
 4 28 l 1,31,-1
 0 28 l 1,28,-1
0 12 m 1,32,33
 0 14 0 14 0 16 c 1,34,-1
 4 16 l 1,35,-1
 4 12 l 1,36,-1
 0 12 l 1,32,33
24 40 m 1,37,-1
 28 40 l 1,38,-1
 28 36 l 1,39,-1
 24 36 l 1,40,-1
 24 40 l 1,37,-1
24 24 m 1,41,-1
 28 24 l 1,42,-1
 28 12 l 1,43,-1
 24 12 l 1,44,-1
 24 24 l 1,41,-1
EndSplineSet
Validated: 5
EndChar

StartChar: percent
Encoding: 37 37 8
Width: 48
GlyphClass: 2
Flags: W
LayerCount: 2
Fore
SplineSet
0 36 m 1,0,-1
 0 48 l 1,1,-1
 4 48 l 1,2,-1
 4 52 l 1,3,-1
 12 52 l 1,4,-1
 12 48 l 1,5,-1
 4 48 l 1,6,-1
 4 36 l 1,7,-1
 0 36 l 1,0,-1
24 4 m 1,8,-1
 24 16 l 1,9,-1
 28 16 l 1,10,-1
 28 20 l 1,11,-1
 36 20 l 1,12,-1
 36 16 l 1,13,-1
 28 16 l 1,14,-1
 28 4 l 1,15,-1
 24 4 l 1,8,-1
4 0 m 1,16,-1
 4 4 l 1,17,-1
 8 4 l 1,18,-1
 8 12 l 1,19,-1
 12 12 l 1,20,-1
 12 20 l 1,21,-1
 16 20 l 1,22,-1
 16 28 l 1,23,-1
 20 28 l 1,24,-1
 20 36 l 1,25,-1
 24 36 l 1,26,-1
 24 44 l 1,27,-1
 28 44 l 1,28,-1
 28 52 l 1,29,-1
 32 52 l 1,30,-1
 32 44 l 1,31,-1
 28 44 l 1,32,-1
 28 36 l 1,33,-1
 24 36 l 1,34,-1
 24 28 l 1,35,-1
 20 28 l 1,36,-1
 20 20 l 1,37,-1
 16 20 l 1,38,-1
 16 12 l 1,39,-1
 12 12 l 1,40,-1
 12 4 l 1,41,-1
 8 4 l 1,42,-1
 8 0 l 1,43,-1
 4 0 l 1,16,-1
12 48 m 1,44,-1
 16 48 l 1,45,-1
 16 36 l 1,46,-1
 12 36 l 1,47,-1
 12 48 l 1,44,-1
12 36 m 1,48,-1
 12 32 l 1,49,-1
 4 32 l 1,50,-1
 4 36 l 1,51,-1
 12 36 l 1,48,-1
36 16 m 1,52,-1
 40 16 l 1,53,-1
 40 4 l 1,54,-1
 36 4 l 1,55,-1
 36 16 l 1,52,-1
36 4 m 1,56,-1
 36 0 l 1,57,-1
 28 0 l 1,58,-1
 28 4 l 1,59,-1
 36 4 l 1,56,-1
EndSplineSet
Validated: 5
EndChar

StartChar: ampersand
Encoding: 38 38 9
Width: 36
GlyphClass: 2
Flags: W
LayerCount: 2
Fore
SplineSet
4 36 m 1,0,-1
 4 48 l 1,1,-1
 8 48 l 1,2,-1
 8 52 l 1,3,-1
 20 52 l 1,4,-1
 20 48 l 1,5,-1
 8 48 l 1,6,-1
 8 36 l 1,7,-1
 4 36 l 1,0,-1
12 24 m 1,8,-1
 12 28 l 1,9,-1
 8 28 l 1,10,-1
 8 36 l 1,11,-1
 12 36 l 1,12,-1
 12 32 l 1,13,-1
 16 32 l 1,14,-1
 16 40 l 1,15,-1
 20 40 l 1,16,-1
 20 48 l 1,17,-1
 24 48 l 1,18,-1
 24 40 l 1,19,-1
 20 40 l 1,20,-1
 20 32 l 1,21,-1
 16 32 l 1,22,-1
 16 24 l 1,23,-1
 12 24 l 1,8,-1
0 8 m 1,24,-1
 0 24 l 1,25,-1
 4 24 l 1,26,-1
 4 28 l 1,27,-1
 8 28 l 1,28,-1
 8 24 l 1,29,-1
 4 24 l 1,30,-1
 4 8 l 1,31,-1
 0 8 l 1,24,-1
16 24 m 1,32,-1
 20 24 l 1,33,-1
 20 16 l 1,34,-1
 16 16 l 1,35,-1
 16 24 l 1,32,-1
24 16 m 1,36,-1
 24 24 l 1,37,-1
 28 24 l 1,38,-1
 28 16 l 1,39,-1
 24 16 l 1,36,-1
24 16 m 1,40,-1
 24 8 l 1,41,-1
 20 8 l 1,42,-1
 20 16 l 1,43,-1
 24 16 l 1,40,-1
24 8 m 1,44,-1
 28 8 l 1,45,-1
 28 0 l 1,46,-1
 24 0 l 1,47,-1
 24 8 l 1,44,-1
20 8 m 1,48,-1
 20 4 l 1,49,-1
 16 4 l 1,50,-1
 16 8 l 1,51,-1
 20 8 l 1,48,-1
4 8 m 1,52,-1
 8 8 l 1,53,-1
 8 4 l 1,54,-1
 4 4 l 1,55,-1
 4 8 l 1,52,-1
16 4 m 1,56,-1
 16 0 l 1,57,-1
 8 0 l 1,58,-1
 8 4 l 1,59,-1
 16 4 l 1,56,-1
EndSplineSet
Validated: 5
EndChar

StartChar: quotesingle
Encoding: 39 39 10
Width: 12
GlyphClass: 2
Flags: W
LayerCount: 2
Fore
SplineSet
0 32 m 1,0,-1
 0 52 l 1,1,-1
 4 52 l 1,2,-1
 4 32 l 1,3,-1
 0 32 l 1,0,-1
EndSplineSet
Validated: 1
EndChar

StartChar: parenleft
Encoding: 40 40 11
Width: 24
GlyphClass: 2
Flags: W
LayerCount: 2
Fore
SplineSet
0 12 m 1,0,-1
 0 40 l 1,1,-1
 4 40 l 1,2,-1
 4 44 l 1,3,-1
 8 44 l 1,4,-1
 8 48 l 1,5,-1
 12 48 l 1,6,-1
 12 52 l 1,7,-1
 16 52 l 1,8,-1
 16 48 l 1,9,-1
 12 48 l 1,10,-1
 12 44 l 1,11,-1
 8 44 l 1,12,13
 8 42 8 42 8 40 c 1,14,-1
 4 40 l 1,15,-1
 4 12 l 1,16,-1
 0 12 l 1,0,-1
4 12 m 1,17,-1
 8 12 l 1,18,-1
 8 8 l 1,19,-1
 4 8 l 1,20,21
 4 10 4 10 4 12 c 1,17,-1
8 8 m 1,22,-1
 12 8 l 1,23,-1
 12 4 l 1,24,-1
 8 4 l 1,25,-1
 8 8 l 1,22,-1
12 4 m 1,26,-1
 16 4 l 1,27,-1
 16 0 l 1,28,-1
 12 0 l 1,29,-1
 12 4 l 1,26,-1
EndSplineSet
Validated: 5
EndChar

StartChar: parenright
Encoding: 41 41 12
Width: 24
GlyphClass: 2
Flags: W
LayerCount: 2
Fore
SplineSet
0 48 m 1,0,-1
 0 52 l 1,1,-1
 4 52 l 1,2,-1
 4 48 l 1,3,-1
 0 48 l 1,0,-1
0 0 m 1,4,-1
 0 4 l 1,5,-1
 4 4 l 1,6,-1
 4 8 l 1,7,-1
 8 8 l 1,8,9
 8 10 8 10 8 12 c 1,10,-1
 12 12 l 1,11,-1
 12 40 l 1,12,-1
 8 40 l 1,13,-1
 8 44 l 1,14,-1
 4 44 l 1,15,-1
 4 48 l 1,16,-1
 8 48 l 1,17,-1
 8 44 l 1,18,-1
 12 44 l 1,19,20
 12 42 12 42 12 40 c 1,21,-1
 16 40 l 1,22,-1
 16 12 l 1,23,-1
 12 12 l 1,24,-1
 12 8 l 1,25,-1
 8 8 l 1,26,-1
 8 4 l 1,27,-1
 4 4 l 1,28,-1
 4 0 l 1,29,-1
 0 0 l 1,4,-1
EndSplineSet
Validated: 5
EndChar

StartChar: asterisk
Encoding: 42 42 13
Width: 36
GlyphClass: 2
Flags: W
LayerCount: 2
Fore
SplineSet
12 24 m 1,0,-1
 12 36 l 1,1,-1
 8 36 l 1,2,-1
 8 40 l 1,3,-1
 12 40 l 1,4,-1
 12 52 l 1,5,-1
 16 52 l 1,6,-1
 16 40 l 1,7,-1
 20 40 l 1,8,-1
 20 36 l 1,9,-1
 16 36 l 1,10,-1
 16 24 l 1,11,-1
 12 24 l 1,0,-1
0 44 m 1,12,-1
 0 48 l 1,13,-1
 4 48 l 1,14,-1
 4 44 l 1,15,-1
 0 44 l 1,12,-1
0 28 m 1,16,-1
 0 32 l 1,17,-1
 4 32 l 1,18,-1
 4 36 l 1,19,-1
 8 36 l 1,20,-1
 8 32 l 1,21,-1
 4 32 l 1,22,-1
 4 28 l 1,23,-1
 0 28 l 1,16,-1
24 44 m 1,24,-1
 24 48 l 1,25,-1
 28 48 l 1,26,-1
 28 44 l 1,27,-1
 24 44 l 1,24,-1
24 44 m 1,28,-1
 24 40 l 1,29,-1
 20 40 l 1,30,-1
 20 44 l 1,31,-1
 24 44 l 1,28,-1
8 40 m 1,32,-1
 4 40 l 1,33,-1
 4 44 l 1,34,-1
 8 44 l 1,35,-1
 8 40 l 1,32,-1
20 36 m 1,36,-1
 24 36 l 1,37,-1
 24 32 l 1,38,-1
 20 32 l 1,39,-1
 20 36 l 1,36,-1
24 32 m 1,40,-1
 28 32 l 1,41,-1
 28 28 l 1,42,-1
 24 28 l 1,43,-1
 24 32 l 1,40,-1
EndSplineSet
Validated: 5
EndChar

StartChar: plus
Encoding: 43 43 14
Width: 36
GlyphClass: 2
Flags: W
LayerCount: 2
Fore
SplineSet
12 12 m 1,0,-1
 12 24 l 1,1,-1
 0 24 l 1,2,-1
 0 28 l 1,3,-1
 12 28 l 1,4,-1
 12 40 l 1,5,-1
 16 40 l 1,6,-1
 16 28 l 1,7,-1
 28 28 l 1,8,-1
 28 24 l 1,9,-1
 16 24 l 1,10,-1
 16 12 l 1,11,-1
 12 12 l 1,0,-1
EndSplineSet
Validated: 1
EndChar

StartChar: comma
Encoding: 44 44 15
Width: 16
GlyphClass: 2
Flags: W
LayerCount: 2
Fore
SplineSet
0 -12 m 1,0,-1
 0 -8 l 1,1,-1
 4 -8 l 1,2,-1
 4 0 l 1,3,-1
 0 0 l 1,4,-1
 0 4 l 1,5,-1
 8 4 l 1,6,-1
 8 -8 l 1,7,-1
 4 -8 l 1,8,-1
 4 -12 l 1,9,-1
 0 -12 l 1,0,-1
EndSplineSet
Validated: 5
EndChar

StartChar: hyphen
Encoding: 45 45 16
Width: 32
GlyphClass: 2
Flags: W
LayerCount: 2
Fore
SplineSet
0 24 m 1,0,-1
 0 28 l 1,1,-1
 24 28 l 1,2,-1
 24 24 l 1,3,-1
 0 24 l 1,0,-1
EndSplineSet
Validated: 1
EndChar

StartChar: period
Encoding: 46 46 17
Width: 12
GlyphClass: 2
Flags: W
LayerCount: 2
Fore
SplineSet
0 0 m 1,0,-1
 0 4 l 1,1,-1
 4 4 l 1,2,-1
 4 0 l 1,3,-1
 0 0 l 1,0,-1
EndSplineSet
Validated: 1
EndChar

StartChar: slash
Encoding: 47 47 18
Width: 36
GlyphClass: 2
Flags: W
LayerCount: 2
Fore
SplineSet
0 0 m 1,0,-1
 0 4 l 1,1,-1
 4 4 l 1,2,-1
 4 12 l 1,3,-1
 8 12 l 1,4,-1
 8 20 l 1,5,-1
 12 20 l 1,6,-1
 12 28 l 1,7,-1
 16 28 l 1,8,-1
 16 36 l 1,9,-1
 20 36 l 1,10,-1
 20 44 l 1,11,-1
 24 44 l 1,12,-1
 24 52 l 1,13,-1
 28 52 l 1,14,-1
 28 44 l 1,15,-1
 24 44 l 1,16,-1
 24 36 l 1,17,-1
 20 36 l 1,18,-1
 20 28 l 1,19,-1
 16 28 l 1,20,-1
 16 20 l 1,21,-1
 12 20 l 1,22,-1
 12 12 l 1,23,-1
 8 12 l 1,24,-1
 8 4 l 1,25,-1
 4 4 l 1,26,-1
 4 0 l 1,27,-1
 0 0 l 1,0,-1
EndSplineSet
Validated: 5
EndChar

StartChar: zero
Encoding: 48 48 19
Width: 36
GlyphClass: 2
Flags: W
LayerCount: 2
Fore
SplineSet
0 8 m 1,0,-1
 0 44 l 1,1,-1
 4 44 l 1,2,-1
 4 48 l 1,3,-1
 8 48 l 1,4,-1
 8 52 l 1,5,-1
 20 52 l 1,6,-1
 20 48 l 1,7,-1
 8 48 l 1,8,-1
 8 44 l 1,9,-1
 4 44 l 1,10,-1
 4 20 l 1,11,-1
 8 20 l 1,12,-1
 8 16 l 1,13,-1
 4 16 l 1,14,-1
 4 8 l 1,15,-1
 0 8 l 1,0,-1
20 48 m 1,16,-1
 24 48 l 1,17,-1
 24 44 l 1,18,-1
 20 44 l 1,19,-1
 20 48 l 1,16,-1
24 44 m 1,20,-1
 28 44 l 1,21,-1
 28 8 l 1,22,-1
 24 8 l 1,23,-1
 24 32 l 1,24,-1
 20 32 l 1,25,-1
 20 36 l 1,26,-1
 24 36 l 1,27,-1
 24 44 l 1,20,-1
20 32 m 1,28,-1
 20 28 l 1,29,-1
 16 28 l 1,30,-1
 16 32 l 1,31,-1
 20 32 l 1,28,-1
16 28 m 1,32,-1
 16 24 l 1,33,-1
 12 24 l 1,34,-1
 12 28 l 1,35,-1
 16 28 l 1,32,-1
12 24 m 1,36,-1
 12 20 l 1,37,-1
 8 20 l 1,38,-1
 8 24 l 1,39,-1
 12 24 l 1,36,-1
24 8 m 1,40,-1
 24 4 l 1,41,-1
 20 4 l 1,42,-1
 20 8 l 1,43,-1
 24 8 l 1,40,-1
4 8 m 1,44,-1
 8 8 l 1,45,-1
 8 4 l 1,46,-1
 4 4 l 1,47,-1
 4 8 l 1,44,-1
20 4 m 1,48,-1
 20 0 l 1,49,-1
 8 0 l 1,50,-1
 8 4 l 1,51,-1
 20 4 l 1,48,-1
EndSplineSet
Validated: 5
EndChar

StartChar: one
Encoding: 49 49 20
Width: 36
GlyphClass: 2
Flags: W
LayerCount: 2
Fore
SplineSet
28 0 m 1,0,1
 14 0 14 0 0 0 c 1,2,-1
 0 4 l 1,3,-1
 12 4 l 1,4,-1
 12 44 l 1,5,-1
 8 44 l 1,6,-1
 8 48 l 1,7,-1
 12 48 l 1,8,-1
 12 52 l 1,9,-1
 16 52 l 1,10,-1
 16 4 l 1,11,-1
 28 4 l 1,12,-1
 28 0 l 1,0,1
0 36 m 1,13,-1
 0 40 l 1,14,-1
 4 40 l 1,15,-1
 4 44 l 1,16,-1
 8 44 l 1,17,-1
 8 40 l 1,18,-1
 4 40 l 1,19,-1
 4 36 l 1,20,-1
 0 36 l 1,13,-1
EndSplineSet
Validated: 5
EndChar

StartChar: two
Encoding: 50 50 21
Width: 36
GlyphClass: 2
Flags: W
LayerCount: 2
Fore
SplineSet
0 44 m 1,0,-1
 0 48 l 1,1,-1
 4 48 l 1,2,-1
 4 52 l 1,3,4
 12 52 12 52 20 52 c 1,5,-1
 20 48 l 1,6,7
 12 48 12 48 4 48 c 1,8,-1
 4 44 l 1,9,-1
 0 44 l 1,0,-1
0 0 m 1,10,-1
 0 12 l 1,11,-1
 4 12 l 1,12,-1
 4 16 l 1,13,-1
 8 16 l 1,14,-1
 8 20 l 1,15,-1
 12 20 l 1,16,-1
 12 24 l 1,17,-1
 16 24 l 1,18,-1
 16 28 l 1,19,-1
 20 28 l 1,20,-1
 20 32 l 1,21,-1
 24 32 l 1,22,-1
 24 44 l 1,23,-1
 20 44 l 1,24,-1
 20 48 l 1,25,-1
 24 48 l 1,26,-1
 24 44 l 1,27,-1
 28 44 l 1,28,-1
 28 32 l 1,29,-1
 24 32 l 1,30,-1
 24 28 l 1,31,-1
 20 28 l 1,32,-1
 20 24 l 1,33,-1
 16 24 l 1,34,-1
 16 20 l 1,35,-1
 12 20 l 1,36,-1
 12 16 l 1,37,-1
 8 16 l 1,38,-1
 8 12 l 1,39,-1
 4 12 l 1,40,-1
 4 4 l 1,41,-1
 28 4 l 1,42,-1
 28 0 l 1,43,-1
 0 0 l 1,10,-1
EndSplineSet
Validated: 5
EndChar

StartChar: three
Encoding: 51 51 22
Width: 36
GlyphClass: 2
Flags: W
LayerCount: 2
Fore
SplineSet
0 44 m 1,0,-1
 0 48 l 1,1,-1
 4 48 l 1,2,-1
 4 52 l 1,3,4
 12 52 12 52 20 52 c 1,5,-1
 20 48 l 1,6,7
 12 48 12 48 4 48 c 1,8,-1
 4 44 l 1,9,-1
 0 44 l 1,0,-1
8 24 m 1,10,-1
 8 28 l 1,11,-1
 20 28 l 1,12,-1
 20 32 l 1,13,-1
 24 32 l 1,14,-1
 24 44 l 1,15,-1
 20 44 l 1,16,-1
 20 48 l 1,17,-1
 24 48 l 1,18,-1
 24 44 l 1,19,-1
 28 44 l 1,20,-1
 28 32 l 1,21,-1
 24 32 l 1,22,-1
 24 28 l 1,23,-1
 20 28 l 1,24,-1
 20 24 l 1,25,-1
 8 24 l 1,10,-1
0 4 m 1,26,-1
 0 8 l 1,27,-1
 4 8 l 1,28,-1
 4 4 l 1,29,-1
 0 4 l 1,26,-1
20 24 m 1,30,-1
 24 24 l 1,31,-1
 24 20 l 1,32,-1
 20 20 l 1,33,-1
 20 24 l 1,30,-1
24 20 m 1,34,-1
 28 20 l 1,35,-1
 28 8 l 1,36,-1
 24 8 l 1,37,-1
 24 20 l 1,34,-1
24 8 m 1,38,-1
 24 4 l 1,39,-1
 20 4 l 1,40,-1
 20 8 l 1,41,-1
 24 8 l 1,38,-1
20 4 m 1,42,-1
 20 0 l 1,43,44
 12 0 12 0 4 0 c 1,45,-1
 4 4 l 1,46,47
 12 4 12 4 20 4 c 1,42,-1
EndSplineSet
Validated: 5
EndChar

StartChar: four
Encoding: 52 52 23
Width: 36
GlyphClass: 2
Flags: W
LayerCount: 2
Fore
SplineSet
20 0 m 1,0,-1
 20 16 l 1,1,2
 10 16 10 16 0 16 c 1,3,-1
 0 24 l 1,4,-1
 4 24 l 1,5,-1
 4 20 l 1,6,7
 12 20 12 20 20 20 c 1,8,-1
 20 44 l 1,9,-1
 16 44 l 1,10,-1
 16 48 l 1,11,-1
 20 48 l 1,12,-1
 20 52 l 1,13,-1
 24 52 l 1,14,-1
 23.9228515625 20 l 1,15,-1
 27.98046875 20 l 1,16,-1
 27.9990234375 16 l 1,17,-1
 24 16 l 1,18,-1
 24 0 l 1,19,20
 22 0 22 0 20 0 c 1,0,-1
8 32 m 1,21,22
 8 36 8 36 8 40 c 1,23,-1
 12 40 l 1,24,-1
 12 32 l 1,25,-1
 8 32 l 1,21,22
8 32 m 1,26,-1
 8 24 l 1,27,-1
 4 24 l 1,28,29
 4 28 4 28 4 32 c 1,30,-1
 8 32 l 1,26,-1
16 44 m 1,31,32
 16 42 16 42 16 40 c 1,33,-1
 12 40 l 1,34,-1
 12 44 l 1,35,-1
 16 44 l 1,31,32
EndSplineSet
Validated: 524293
EndChar

StartChar: five
Encoding: 53 53 24
Width: 36
GlyphClass: 2
Flags: W
LayerCount: 2
Fore
SplineSet
0 24 m 1,0,-1
 0 52 l 1,1,-1
 28 52 l 1,2,-1
 28 48 l 1,3,4
 16 48 16 48 4 48 c 1,5,-1
 4 28 l 1,6,-1
 8 28 l 1,7,-1
 8 24 l 1,8,9
 4 24 4 24 0 24 c 1,0,-1
0 4 m 1,10,-1
 0 8 l 1,11,-1
 4 8 l 1,12,-1
 4 4 l 1,13,-1
 0 4 l 1,10,-1
24 24 m 1,14,-1
 20 24 l 1,15,-1
 20 28 l 1,16,-1
 24 28 l 1,17,-1
 24 24 l 1,14,-1
24 24 m 1,18,-1
 28 24 l 1,19,-1
 28 8 l 1,20,-1
 24 8 l 1,21,-1
 24 24 l 1,18,-1
24 8 m 1,22,-1
 24 4 l 1,23,-1
 20 4 l 1,24,-1
 20 8 l 1,25,-1
 24 8 l 1,22,-1
20 28 m 1,26,27
 14 28 14 28 8 28 c 1,28,-1
 8 32 l 1,29,30
 14 32 14 32 20 32 c 1,31,-1
 20 28 l 1,26,27
20 4 m 1,32,-1
 20 0 l 1,33,34
 12 0 12 0 4 0 c 1,35,-1
 4 4 l 1,36,37
 12 4 12 4 20 4 c 1,32,-1
EndSplineSet
Validated: 5
EndChar

StartChar: six
Encoding: 54 54 25
Width: 36
GlyphClass: 2
Flags: W
LayerCount: 2
Fore
SplineSet
0 8 m 1,0,-1
 0 44 l 1,1,-1
 4 44 l 1,2,-1
 4 48 l 1,3,-1
 8 48 l 1,4,-1
 8 52 l 1,5,6
 16 52 16 52 24 52 c 1,7,-1
 24 48 l 1,8,9
 16 48 16 48 8 48 c 1,10,-1
 8 44 l 1,11,-1
 4 44 l 1,12,-1
 4 28 l 1,13,-1
 8 28 l 1,14,-1
 8 24 l 1,15,-1
 4 24 l 1,16,-1
 4 8 l 1,17,-1
 0 8 l 1,0,-1
24 48 m 1,18,-1
 28 48 l 1,19,-1
 28 44 l 1,20,-1
 24 44 l 1,21,-1
 24 48 l 1,18,-1
8 28 m 1,22,-1
 8 32 l 1,23,-1
 20 32 l 1,24,-1
 20 28 l 1,25,-1
 8 28 l 1,22,-1
20 28 m 1,26,-1
 24 28 l 1,27,-1
 24 24 l 1,28,-1
 20 24 l 1,29,-1
 20 28 l 1,26,-1
24 24 m 1,30,-1
 28 24 l 1,31,-1
 28 8 l 1,32,-1
 24 8 l 1,33,-1
 24 24 l 1,30,-1
24 8 m 1,34,-1
 24 4 l 1,35,-1
 20 4 l 1,36,-1
 20 8 l 1,37,-1
 24 8 l 1,34,-1
4 8 m 1,38,-1
 8 8 l 1,39,-1
 8 4 l 1,40,-1
 4 4 l 1,41,-1
 4 8 l 1,38,-1
20 4 m 1,42,-1
 20 0 l 1,43,-1
 8 0 l 1,44,-1
 8 4 l 1,45,-1
 20 4 l 1,42,-1
EndSplineSet
Validated: 5
EndChar

StartChar: seven
Encoding: 55 55 26
Width: 36
GlyphClass: 2
Flags: W
LayerCount: 2
Fore
SplineSet
8 0 m 1,0,-1
 8 20 l 1,1,-1
 12 20 l 1,2,-1
 12 28 l 1,3,-1
 16 28 l 1,4,-1
 16 36 l 1,5,-1
 20 36 l 1,6,-1
 20 44 l 1,7,-1
 24 44 l 1,8,-1
 24 48 l 1,9,-1
 0 48 l 1,10,-1
 0 52 l 1,11,-1
 28 52 l 1,12,-1
 28 44 l 1,13,-1
 24 44 l 1,14,-1
 24 36 l 1,15,-1
 20 36 l 1,16,-1
 20 28 l 1,17,-1
 16 28 l 1,18,-1
 16 20 l 1,19,-1
 12 20 l 1,20,-1
 12 0 l 1,21,-1
 8 0 l 1,0,-1
EndSplineSet
Validated: 5
EndChar

StartChar: eight
Encoding: 56 56 27
Width: 36
GlyphClass: 2
Flags: W
LayerCount: 2
Fore
SplineSet
0 32 m 1,0,-1
 0 44 l 1,1,-1
 4 44 l 1,2,-1
 4 48 l 1,3,-1
 8 48 l 1,4,-1
 8 52 l 1,5,-1
 20 52 l 1,6,-1
 20 48 l 1,7,-1
 8 48 l 1,8,-1
 8 44 l 1,9,-1
 4 44 l 1,10,-1
 4 32 l 1,11,-1
 0 32 l 1,0,-1
0 8 m 1,12,-1
 0 20 l 1,13,-1
 4 20 l 1,14,-1
 4 24 l 1,15,-1
 8 24 l 1,16,-1
 8 28 l 1,17,-1
 4 28 l 1,18,-1
 4 32 l 1,19,-1
 8 32 l 1,20,-1
 8 28 l 1,21,-1
 20 28 l 1,22,-1
 20 32 l 1,23,-1
 24 32 l 1,24,-1
 24 44 l 1,25,-1
 20 44 l 1,26,-1
 20 48 l 1,27,-1
 24 48 l 1,28,-1
 24 44 l 1,29,-1
 28 44 l 1,30,-1
 28 32 l 1,31,-1
 24 32 l 1,32,-1
 24 28 l 1,33,-1
 20 28 l 1,34,-1
 20 24 l 1,35,-1
 8 24 l 1,36,-1
 8 20 l 1,37,-1
 4 20 l 1,38,-1
 4 8 l 1,39,-1
 0 8 l 1,12,-1
20 24 m 1,40,-1
 24 24 l 1,41,-1
 24 20 l 1,42,-1
 20 20 l 1,43,-1
 20 24 l 1,40,-1
24 20 m 1,44,-1
 28 20 l 1,45,-1
 28 8 l 1,46,-1
 24 8 l 1,47,-1
 24 20 l 1,44,-1
24 8 m 1,48,-1
 24 4 l 1,49,-1
 20 4 l 1,50,-1
 20 8 l 1,51,-1
 24 8 l 1,48,-1
4 8 m 1,52,-1
 8 8 l 1,53,-1
 8 4 l 1,54,-1
 4 4 l 1,55,-1
 4 8 l 1,52,-1
20 4 m 1,56,-1
 20 0 l 1,57,-1
 8 0 l 1,58,-1
 8 4 l 1,59,-1
 20 4 l 1,56,-1
EndSplineSet
Validated: 5
EndChar

StartChar: nine
Encoding: 57 57 28
Width: 36
GlyphClass: 2
Flags: W
LayerCount: 2
Fore
SplineSet
0 28 m 1,0,-1
 0 44 l 1,1,-1
 4 44 l 1,2,-1
 4 48 l 1,3,-1
 8 48 l 1,4,-1
 8 52 l 1,5,-1
 20 52 l 1,6,-1
 20 48 l 1,7,-1
 8 48 l 1,8,-1
 8 44 l 1,9,-1
 4 44 l 1,10,-1
 4 28 l 1,11,-1
 0 28 l 1,0,-1
0 4 m 1,12,-1
 0 8 l 1,13,-1
 4 8 l 1,14,-1
 4 4 l 1,15,-1
 0 4 l 1,12,-1
20 48 m 1,16,-1
 24 48 l 1,17,-1
 24 44 l 1,18,-1
 20 44 l 1,19,-1
 20 48 l 1,16,-1
24 44 m 1,20,-1
 28 44 l 1,21,-1
 28 8 l 1,22,-1
 24 8 l 1,23,-1
 24 24 l 1,24,-1
 20 24 l 1,25,-1
 20 28 l 1,26,-1
 24 28 l 1,27,-1
 24 44 l 1,20,-1
4 28 m 1,28,-1
 8 28 l 1,29,-1
 8 24 l 1,30,-1
 4 24 l 1,31,-1
 4 28 l 1,28,-1
20 24 m 1,32,-1
 20 20 l 1,33,-1
 8 20 l 1,34,-1
 8 24 l 1,35,-1
 20 24 l 1,32,-1
24 8 m 1,36,-1
 24 4 l 1,37,-1
 20 4 l 1,38,-1
 20 8 l 1,39,-1
 24 8 l 1,36,-1
20 4 m 1,40,-1
 20 0 l 1,41,42
 12 0 12 0 4 0 c 1,43,-1
 4 4 l 1,44,45
 12 4 12 4 20 4 c 1,40,-1
EndSplineSet
Validated: 5
EndChar

StartChar: colon
Encoding: 58 58 29
Width: 12
GlyphClass: 2
Flags: W
LayerCount: 2
Fore
SplineSet
0 36 m 1,0,-1
 0 40 l 1,1,-1
 4 40 l 1,2,-1
 4 36 l 1,3,-1
 0 36 l 1,0,-1
0 8 m 1,4,-1
 0 12 l 1,5,-1
 4 12 l 1,6,-1
 4 8 l 1,7,-1
 0 8 l 1,4,-1
EndSplineSet
Validated: 1
EndChar

StartChar: semicolon
Encoding: 59 59 30
Width: 16
GlyphClass: 2
Flags: W
LayerCount: 2
Fore
SplineSet
0 36 m 1,0,-1
 0 40 l 1,1,-1
 4 40 l 1,2,-1
 4 36 l 1,3,-1
 0 36 l 1,0,-1
0 0 m 1,4,-1
 0 4 l 1,5,-1
 4 4 l 1,6,-1
 4 8 l 1,7,-1
 0 8 l 1,8,-1
 0 12 l 1,9,-1
 8 12 l 1,10,-1
 8 4 l 1,11,-1
 4 4 l 1,12,-1
 4 0 l 1,13,-1
 0 0 l 1,4,-1
EndSplineSet
Validated: 5
EndChar

StartChar: less
Encoding: 60 60 31
Width: 24
GlyphClass: 2
Flags: W
LayerCount: 2
Fore
SplineSet
0 24 m 1,0,-1
 0 28 l 1,1,-1
 4 28 l 1,2,-1
 4 32 l 1,3,-1
 8 32 l 1,4,-1
 8 36 l 1,5,-1
 12 36 l 1,6,-1
 12 40 l 1,7,-1
 16 40 l 1,8,-1
 16 36 l 1,9,-1
 12 36 l 1,10,-1
 12 32 l 1,11,-1
 8 32 l 1,12,-1
 8 28 l 1,13,-1
 4 28 l 1,14,-1
 4 24 l 1,15,-1
 0 24 l 1,0,-1
4 24 m 1,16,-1
 8 24 l 1,17,-1
 8 20 l 1,18,-1
 4 20 l 1,19,-1
 4 24 l 1,16,-1
8 20 m 1,20,-1
 12 20 l 1,21,-1
 12 16 l 1,22,-1
 8 16 l 1,23,-1
 8 20 l 1,20,-1
12 16 m 1,24,-1
 16 16 l 1,25,-1
 16 12 l 1,26,-1
 12 12 l 1,27,-1
 12 16 l 1,24,-1
EndSplineSet
Validated: 5
EndChar

StartChar: equal
Encoding: 61 61 32
Width: 32
GlyphClass: 2
Flags: W
LayerCount: 2
Fore
SplineSet
0 32 m 1,0,-1
 0 36 l 1,1,-1
 24 36 l 1,2,-1
 24 32 l 1,3,-1
 0 32 l 1,0,-1
0 16 m 1,4,-1
 0 20 l 1,5,-1
 24 20 l 1,6,-1
 24 16 l 1,7,-1
 0 16 l 1,4,-1
EndSplineSet
Validated: 1
EndChar

StartChar: greater
Encoding: 62 62 33
Width: 24
GlyphClass: 2
Flags: W
LayerCount: 2
Fore
SplineSet
0 36 m 1,0,-1
 0 40 l 1,1,-1
 4 40 l 1,2,-1
 4 36 l 1,3,-1
 0 36 l 1,0,-1
0 12 m 1,4,-1
 0 16 l 1,5,-1
 4 16 l 1,6,-1
 4 20 l 1,7,-1
 8 20 l 1,8,-1
 8 24 l 1,9,-1
 12 24 l 1,10,-1
 12 28 l 1,11,-1
 8 28 l 1,12,-1
 8 32 l 1,13,-1
 4 32 l 1,14,-1
 4 36 l 1,15,-1
 8 36 l 1,16,-1
 8 32 l 1,17,-1
 12 32 l 1,18,-1
 12 28 l 1,19,-1
 16 28 l 1,20,-1
 16 24 l 1,21,-1
 12 24 l 1,22,-1
 12 20 l 1,23,-1
 8 20 l 1,24,-1
 8 16 l 1,25,-1
 4 16 l 1,26,-1
 4 12 l 1,27,-1
 0 12 l 1,4,-1
EndSplineSet
Validated: 5
EndChar

StartChar: question
Encoding: 63 63 34
Width: 36
GlyphClass: 2
Flags: W
LayerCount: 2
Fore
SplineSet
0 44 m 1,0,-1
 0 48 l 1,1,-1
 4 48 l 1,2,-1
 4 52 l 1,3,4
 12 52 12 52 20 52 c 1,5,-1
 20 48 l 1,6,7
 12 48 12 48 4 48 c 1,8,-1
 4 44 l 1,9,-1
 0 44 l 1,0,-1
12 16 m 1,10,-1
 12 24 l 1,11,-1
 16 24 l 1,12,-1
 16 28 l 1,13,-1
 20 28 l 1,14,-1
 20 32 l 1,15,-1
 24 32 l 1,16,-1
 24 44 l 1,17,-1
 20 44 l 1,18,-1
 20 48 l 1,19,-1
 24 48 l 1,20,-1
 24 44 l 1,21,-1
 28 44 l 1,22,-1
 28 32 l 1,23,-1
 24 32 l 1,24,-1
 24 28 l 1,25,-1
 20 28 l 1,26,-1
 20 24 l 1,27,-1
 16 24 l 1,28,-1
 16 16 l 1,29,-1
 12 16 l 1,10,-1
12 0 m 1,30,-1
 12 8 l 1,31,-1
 16 8 l 1,32,-1
 16 0 l 1,33,-1
 12 0 l 1,30,-1
EndSplineSet
Validated: 5
EndChar

StartChar: at
Encoding: 64 64 35
Width: 44
GlyphClass: 2
Flags: W
LayerCount: 2
Fore
SplineSet
0 8 m 1,0,-1
 0 44 l 1,1,-1
 4 44 l 1,2,-1
 4 48 l 1,3,-1
 8 48 l 1,4,-1
 8 52 l 1,5,-1
 28 52 l 1,6,-1
 28 48 l 1,7,-1
 8 48 l 1,8,-1
 8 44 l 1,9,-1
 4 44 l 1,10,-1
 4 8 l 1,11,-1
 0 8 l 1,0,-1
8 16 m 1,12,-1
 8 36 l 1,13,-1
 12 36 l 1,14,-1
 12 40 l 1,15,-1
 24 40 l 1,16,-1
 24 36 l 1,17,-1
 12 36 l 1,18,-1
 12 16 l 1,19,-1
 8 16 l 1,12,-1
28 48 m 1,20,-1
 32 48 l 1,21,-1
 32 44 l 1,22,-1
 28 44 l 1,23,-1
 28 48 l 1,20,-1
32 44 m 1,24,-1
 36 44 l 1,25,-1
 36 16 l 1,26,-1
 32 16 l 1,27,-1
 32 44 l 1,24,-1
24 36 m 1,28,-1
 28 36 l 1,29,-1
 28 16 l 1,30,-1
 24 16 l 1,31,-1
 24 36 l 1,28,-1
32 16 m 1,32,-1
 32 12 l 1,33,-1
 28 12 l 1,34,-1
 28 16 l 1,35,-1
 32 16 l 1,32,-1
24 16 m 1,36,-1
 24 12 l 1,37,-1
 12 12 l 1,38,-1
 12 16 l 1,39,-1
 24 16 l 1,36,-1
4 8 m 1,40,-1
 8 8 l 1,41,-1
 8 4 l 1,42,-1
 4 4 l 1,43,-1
 4 8 l 1,40,-1
32 4 m 1,44,-1
 32 8 l 1,45,-1
 36 8 l 1,46,-1
 36 4 l 1,47,-1
 32 4 l 1,44,-1
32 4 m 1,48,-1
 32 0 l 1,49,-1
 8 0 l 1,50,-1
 8 4 l 1,51,-1
 32 4 l 1,48,-1
EndSplineSet
Validated: 5
EndChar

StartChar: A
Encoding: 65 65 36
Width: 36
GlyphClass: 2
Flags: W
LayerCount: 2
Fore
SplineSet
20 40 m 1029,0,-1
12 40 m 1029,1,-1
0 0 m 1,2,3
 0 16 0 16 0 32 c 1,4,-1
 4 32 l 1,5,-1
 4 40 l 1,6,-1
 8 40 l 1,7,-1
 8 32 l 1,8,-1
 4 32 l 1,9,-1
 4 24 l 1,10,-1
 24 24 l 1,11,-1
 24 32 l 1,12,-1
 20 32 l 1,13,-1
 20 40 l 1,14,15
 22 40 22 40 24 40 c 1,16,-1
 24 32 l 1,17,18
 26 32 26 32 28 32 c 1,19,20
 28 16 28 16 28 0 c 1,21,-1
 24 0 l 1,22,-1
 24 20 l 1,23,-1
 4 20 l 1,24,-1
 4 0 l 1,25,-1
 0 0 l 1,2,3
20 40 m 1,26,-1
 16 40 l 1,27,-1
 16 48 l 1,28,29
 14 48 14 48 12 48 c 1,30,-1
 12 52 l 1,31,32
 14 52 14 52 16 52 c 1,33,34
 16 50 16 50 16 48 c 1,35,36
 18 48 18 48 20 48 c 1,37,-1
 20 40 l 1,26,-1
12 48 m 1,38,-1
 12 40 l 1,39,-1
 8 40 l 1,40,-1
 8 48 l 1,41,42
 10 48 10 48 12 48 c 1,38,-1
EndSplineSet
Validated: 5
EndChar

StartChar: B
Encoding: 66 66 37
Width: 36
GlyphClass: 2
Flags: W
LayerCount: 2
Fore
SplineSet
0 0 m 1,0,-1
 0 52 l 1,1,-1
 20 52 l 1,2,-1
 20 48 l 1,3,-1
 4 48 l 1,4,-1
 4 28 l 1,5,-1
 20 28 l 1,6,-1
 20 24 l 1,7,-1
 4 24 l 1,8,-1
 4 4 l 1,9,-1
 20 4 l 1,10,-1
 20 0 l 1,11,-1
 0 0 l 1,0,-1
20 48 m 1,12,-1
 24 48 l 1,13,-1
 24 44 l 1,14,-1
 20 44 l 1,15,-1
 20 48 l 1,12,-1
24 44 m 1,16,-1
 28 44 l 1,17,-1
 28 32 l 1,18,-1
 24 32 l 1,19,-1
 24 44 l 1,16,-1
24 32 m 1,20,-1
 24 28 l 1,21,-1
 20 28 l 1,22,-1
 20 32 l 1,23,-1
 24 32 l 1,20,-1
20 24 m 1,24,-1
 24 24 l 1,25,-1
 24 20 l 1,26,-1
 20 20 l 1,27,-1
 20 24 l 1,24,-1
24 20 m 1,28,-1
 28 20 l 1,29,-1
 28 8 l 1,30,-1
 24 8 l 1,31,-1
 24 20 l 1,28,-1
24 8 m 1,32,-1
 24 4 l 1,33,-1
 20 4 l 1,34,-1
 20 8 l 1,35,-1
 24 8 l 1,32,-1
EndSplineSet
Validated: 5
EndChar

StartChar: C
Encoding: 67 67 38
Width: 36
GlyphClass: 2
Flags: W
LayerCount: 2
Fore
SplineSet
0 8 m 1,0,-1
 0 44 l 1,1,-1
 4 44 l 1,2,-1
 4 48 l 1,3,-1
 8 48 l 1,4,-1
 8 52 l 1,5,6
 16 52 16 52 24 52 c 1,7,-1
 24 48 l 1,8,9
 16 48 16 48 8 48 c 1,10,-1
 8 44 l 1,11,-1
 4 44 l 1,12,-1
 4 8 l 1,13,-1
 0 8 l 1,0,-1
24 48 m 1,14,15
 26 48 26 48 28 48 c 1,16,17
 28 46 28 46 28 44 c 1,18,19
 26 44 26 44 24 44 c 1,20,-1
 24 48 l 1,14,15
4 8 m 1,21,-1
 8 8 l 1,22,-1
 8 4 l 1,23,-1
 4 4 l 1,24,-1
 4 8 l 1,21,-1
24 4 m 1,25,-1
 24 8 l 1,26,-1
 28 8 l 1,27,28
 28 6 28 6 28 4 c 1,29,30
 26 4 26 4 24 4 c 1,25,-1
24 4 m 1,31,-1
 24 0 l 1,32,33
 16 0 16 0 8 0 c 1,34,-1
 8 4 l 1,35,36
 16 4 16 4 24 4 c 1,31,-1
EndSplineSet
Validated: 5
EndChar

StartChar: D
Encoding: 68 68 39
Width: 36
GlyphClass: 2
Flags: W
LayerCount: 2
Fore
SplineSet
0 0 m 1,0,-1
 0 52 l 1,1,-1
 20 52 l 1,2,-1
 20 48 l 1,3,-1
 4 48 l 1,4,-1
 4 4 l 1,5,-1
 20 4 l 1,6,-1
 20 0 l 1,7,-1
 0 0 l 1,0,-1
20 48 m 1,8,-1
 24 48 l 1,9,-1
 24 44 l 1,10,-1
 20 44 l 1,11,-1
 20 48 l 1,8,-1
24 44 m 1,12,-1
 28 44 l 1,13,-1
 28 8 l 1,14,-1
 24 8 l 1,15,-1
 24 44 l 1,12,-1
24 8 m 1,16,-1
 24 4 l 1,17,-1
 20 4 l 1,18,-1
 20 8 l 1,19,-1
 24 8 l 1,16,-1
EndSplineSet
Validated: 5
EndChar

StartChar: E
Encoding: 69 69 40
Width: 36
GlyphClass: 2
Flags: W
LayerCount: 2
Fore
SplineSet
0 0 m 1,0,-1
 0 52 l 1,1,-1
 28 52 l 1,2,-1
 28 48 l 1,3,-1
 4 48 l 1,4,-1
 4 28 l 1,5,-1
 20 28 l 1,6,-1
 20 24 l 1,7,-1
 4 24 l 1,8,-1
 4 4 l 1,9,-1
 28 4 l 1,10,-1
 28 0 l 1,11,-1
 0 0 l 1,0,-1
EndSplineSet
Validated: 1
EndChar

StartChar: F
Encoding: 70 70 41
Width: 36
GlyphClass: 2
Flags: W
LayerCount: 2
Fore
SplineSet
0 0 m 1,0,-1
 0 52 l 1,1,-1
 28 52 l 1,2,-1
 28 48 l 1,3,-1
 4 48 l 1,4,-1
 4 28 l 1,5,-1
 20 28 l 1,6,-1
 20 24 l 1,7,-1
 4 24 l 1,8,-1
 4 0 l 1,9,-1
 0 0 l 1,0,-1
EndSplineSet
Validated: 1
EndChar

StartChar: G
Encoding: 71 71 42
Width: 36
GlyphClass: 2
Flags: W
LayerCount: 2
Fore
SplineSet
0 8 m 1,0,-1
 0 44 l 1,1,-1
 4 44 l 1,2,-1
 4 48 l 1,3,-1
 8 48 l 1,4,-1
 8 52 l 1,5,-1
 24 52 l 1,6,-1
 24 48 l 1,7,-1
 8 48 l 1,8,-1
 8 44 l 1,9,-1
 4 44 l 1,10,-1
 4 8 l 1,11,-1
 0 8 l 1,0,-1
24 48 m 1,12,-1
 28 48 l 1,13,-1
 28 44 l 1,14,-1
 24 44 l 1,15,-1
 24 48 l 1,12,-1
8 4 m 1,16,-1
 24 4 l 1,17,-1
 24 24 l 1,18,-1
 16 24 l 1,19,-1
 16 28 l 1,20,-1
 28 28 l 1,21,-1
 28 0 l 1,22,-1
 8 0 l 1,23,-1
 8 4 l 1,16,-1
8 4 m 1,24,-1
 4 4 l 1,25,-1
 4 8 l 1,26,-1
 8 8 l 1,27,-1
 8 4 l 1,24,-1
EndSplineSet
Validated: 5
EndChar

StartChar: H
Encoding: 72 72 43
Width: 36
GlyphClass: 2
Flags: W
LayerCount: 2
Fore
SplineSet
0 0 m 1,0,-1
 0 52 l 1,1,-1
 4 52 l 1,2,-1
 4 28 l 1,3,-1
 24 28 l 1,4,-1
 24 52 l 1,5,-1
 28 52 l 1,6,-1
 28 0 l 1,7,-1
 24 0 l 1,8,-1
 24 24 l 1,9,-1
 4 24 l 1,10,-1
 4 0 l 1,11,-1
 0 0 l 1,0,-1
EndSplineSet
Validated: 1
EndChar

StartChar: I
Encoding: 73 73 44
Width: 12
GlyphClass: 2
Flags: W
LayerCount: 2
Fore
SplineSet
0 0 m 1,0,-1
 0 52 l 1,1,-1
 4 52 l 1,2,-1
 4 0 l 1,3,-1
 0 0 l 1,0,-1
EndSplineSet
Validated: 1
EndChar

StartChar: J
Encoding: 74 74 45
Width: 36
GlyphClass: 2
Flags: W
LayerCount: 2
Fore
SplineSet
0 4 m 1,0,1
 0 6 0 6 0 8 c 1,2,3
 2 8 2 8 4 8 c 1,4,-1
 4 4 l 1,5,-1
 0 4 l 1,0,1
24 8 m 1,6,-1
 24 52 l 1,7,-1
 28 52 l 1,8,-1
 28 8 l 1,9,-1
 24 8 l 1,6,-1
24 8 m 1,10,-1
 24 4 l 1,11,-1
 20 4 l 1,12,-1
 20 8 l 1,13,-1
 24 8 l 1,10,-1
20 4 m 1,14,-1
 20 0 l 1,15,16
 12 0 12 0 4 0 c 1,17,-1
 4 4 l 1,18,19
 12 4 12 4 20 4 c 1,14,-1
EndSplineSet
Validated: 5
EndChar

StartChar: K
Encoding: 75 75 46
Width: 36
GlyphClass: 2
Flags: W
LayerCount: 2
Fore
SplineSet
0 0 m 1,0,-1
 0 52 l 1,1,-1
 4 52 l 1,2,-1
 4 28 l 1,3,-1
 12 28 l 1,4,-1
 12 24 l 1,5,-1
 4 24 l 1,6,-1
 4 0 l 1,7,-1
 0 0 l 1,0,-1
24 40 m 1,8,-1
 24 52 l 1,9,-1
 28 52 l 1,10,-1
 28 40 l 1,11,-1
 24 40 l 1,8,-1
24 40 m 1,12,-1
 24 36 l 1,13,-1
 20 36 l 1,14,-1
 20 40 l 1,15,-1
 24 40 l 1,12,-1
20 36 m 1,16,-1
 20 32 l 1,17,-1
 16 32 l 1,18,-1
 16 36 l 1,19,-1
 20 36 l 1,16,-1
16 32 m 1,20,-1
 16 28 l 1,21,-1
 12 28 l 1,22,-1
 12 32 l 1,23,-1
 16 32 l 1,20,-1
12 24 m 1,24,-1
 16 24 l 1,25,-1
 16 20 l 1,26,-1
 12 20 l 1,27,-1
 12 24 l 1,24,-1
16 20 m 1,28,-1
 20 20 l 1,29,-1
 20 16 l 1,30,-1
 16 16 l 1,31,-1
 16 20 l 1,28,-1
20 16 m 1,32,-1
 24 16 l 1,33,-1
 24 12 l 1,34,-1
 20 12 l 1,35,-1
 20 16 l 1,32,-1
24 12 m 1,36,-1
 28 12 l 1,37,-1
 28 0 l 1,38,-1
 24 0 l 1,39,-1
 24 12 l 1,36,-1
EndSplineSet
Validated: 5
EndChar

StartChar: L
Encoding: 76 76 47
Width: 36
GlyphClass: 2
Flags: W
LayerCount: 2
Fore
SplineSet
0 0 m 1,0,-1
 0 52 l 1,1,-1
 4 52 l 1,2,-1
 4 4 l 1,3,-1
 28 4 l 1,4,-1
 28 0 l 1,5,-1
 0 0 l 1,0,-1
EndSplineSet
Validated: 1
EndChar

StartChar: M
Encoding: 77 77 48
Width: 52
GlyphClass: 2
Flags: W
LayerCount: 2
Fore
SplineSet
40 0 m 1,0,-1
 40 40 l 1,1,-1
 36 40 l 1,2,-1
 36 44 l 1,3,-1
 40 44 l 1,4,-1
 40 52 l 1,5,-1
 44 52 l 1,6,-1
 44 0 l 1,7,-1
 40 0 l 1,0,-1
0 0 m 1,8,-1
 0 52 l 1,9,-1
 4 52 l 1,10,-1
 4 44 l 1,11,-1
 8 44 l 1,12,-1
 8 40 l 1,13,-1
 4 40 l 1,14,-1
 4 0 l 1,15,-1
 0 0 l 1,8,-1
36 40 m 1,16,-1
 36 36 l 1,17,-1
 32 36 l 1,18,-1
 32 40 l 1,19,-1
 36 40 l 1,16,-1
8 40 m 1,20,-1
 12 40 l 1,21,-1
 12 36 l 1,22,-1
 8 36 l 1,23,-1
 8 40 l 1,20,-1
32 36 m 1,24,-1
 32 32 l 1,25,-1
 28 32 l 1,26,-1
 28 36 l 1,27,-1
 32 36 l 1,24,-1
12 36 m 1,28,-1
 16 36 l 1,29,-1
 16 32 l 1,30,-1
 12 32 l 1,31,-1
 12 36 l 1,28,-1
28 32 m 1,32,-1
 28 28 l 1,33,-1
 24 28 l 1,34,-1
 24 32 l 1,35,-1
 28 32 l 1,32,-1
16 32 m 1,36,-1
 20 32 l 1,37,-1
 20 28 l 1,38,-1
 16 28 l 1,39,-1
 16 32 l 1,36,-1
24 28 m 1,40,-1
 24 24 l 1,41,-1
 20 24 l 1,42,-1
 20 28 l 1,43,-1
 24 28 l 1,40,-1
EndSplineSet
Validated: 5
EndChar

StartChar: N
Encoding: 78 78 49
Width: 36
GlyphClass: 2
Flags: W
LayerCount: 2
Fore
SplineSet
24 0 m 1,0,-1
 24 20 l 1,1,-1
 20 20 l 1,2,-1
 20 24 l 1,3,-1
 24 24 l 1,4,-1
 24 52 l 1,5,-1
 28 52 l 1,6,-1
 28 0 l 1,7,-1
 24 0 l 1,0,-1
0 0 m 1,8,-1
 0 52 l 1,9,-1
 4 52 l 1,10,-1
 4 40 l 1,11,-1
 8 40 l 1,12,-1
 8 36 l 1,13,-1
 4 36 l 1,14,-1
 4 0 l 1,15,-1
 0 0 l 1,8,-1
8 36 m 1,16,-1
 12 36 l 1,17,-1
 12 32 l 1,18,-1
 8 32 l 1,19,-1
 8 36 l 1,16,-1
12 32 m 1,20,-1
 16 32 l 1,21,-1
 16 28 l 1,22,-1
 12 28 l 1,23,-1
 12 32 l 1,20,-1
20 24 m 1,24,-1
 16 24 l 1,25,-1
 16 28 l 1,26,-1
 20 28 l 1,27,-1
 20 24 l 1,24,-1
EndSplineSet
Validated: 5
EndChar

StartChar: O
Encoding: 79 79 50
Width: 36
GlyphClass: 2
Flags: W
LayerCount: 2
Fore
SplineSet
0 8 m 1,0,-1
 0 44 l 1,1,-1
 4 44 l 1,2,-1
 4 48 l 1,3,-1
 8 48 l 1,4,-1
 8 52 l 1,5,-1
 20 52 l 1,6,-1
 20 48 l 1,7,-1
 8 48 l 1,8,-1
 8 44 l 1,9,-1
 4 44 l 1,10,-1
 4 8 l 1,11,-1
 0 8 l 1,0,-1
20 48 m 1,12,-1
 24 48 l 1,13,-1
 24 44 l 1,14,-1
 20 44 l 1,15,-1
 20 48 l 1,12,-1
24 44 m 1,16,-1
 28 44 l 1,17,-1
 28 8 l 1,18,-1
 24 8 l 1,19,-1
 24 44 l 1,16,-1
24 8 m 1,20,-1
 24 4 l 1,21,-1
 20 4 l 1,22,-1
 20 8 l 1,23,-1
 24 8 l 1,20,-1
4 8 m 1,24,-1
 8 8 l 1,25,-1
 8 4 l 1,26,-1
 4 4 l 1,27,-1
 4 8 l 1,24,-1
20 4 m 1,28,-1
 20 0 l 1,29,-1
 8 0 l 1,30,-1
 8 4 l 1,31,-1
 20 4 l 1,28,-1
EndSplineSet
Validated: 5
EndChar

StartChar: P
Encoding: 80 80 51
Width: 36
GlyphClass: 2
Flags: W
LayerCount: 2
Fore
SplineSet
0 0 m 1,0,-1
 0 52 l 1,1,-1
 20 52 l 1,2,-1
 20 48 l 1,3,-1
 4 48 l 1,4,-1
 4 28 l 1,5,-1
 20 28 l 1,6,-1
 20 24 l 1,7,-1
 4 24 l 1,8,-1
 4 0 l 1,9,-1
 0 0 l 1,0,-1
20 48 m 1,10,-1
 24 48 l 1,11,-1
 24 44 l 1,12,-1
 20 44 l 1,13,-1
 20 48 l 1,10,-1
24 44 m 1,14,-1
 28 44 l 1,15,-1
 28 32 l 1,16,-1
 24 32 l 1,17,-1
 24 44 l 1,14,-1
24 32 m 1,18,-1
 24 28 l 1,19,-1
 20 28 l 1,20,-1
 20 32 l 1,21,-1
 24 32 l 1,18,-1
EndSplineSet
Validated: 5
EndChar

StartChar: Q
Encoding: 81 81 52
Width: 36
GlyphClass: 2
Flags: W
LayerCount: 2
Fore
SplineSet
0 8 m 1,0,-1
 0 44 l 1,1,-1
 4 44 l 1,2,-1
 4 48 l 1,3,-1
 8 48 l 1,4,-1
 8 52 l 1,5,-1
 20 52 l 1,6,-1
 20 48 l 1,7,-1
 8 48 l 1,8,-1
 8 44 l 1,9,-1
 4 44 l 1,10,-1
 4 8 l 1,11,-1
 0 8 l 1,0,-1
16 12 m 1,12,-1
 16 16 l 1,13,-1
 20 16 l 1,14,-1
 20 12 l 1,15,-1
 24 12 l 1,16,-1
 24 44 l 1,17,-1
 20 44 l 1,18,-1
 20 48 l 1,19,-1
 24 48 l 1,20,-1
 24 44 l 1,21,-1
 28 44 l 1,22,-1
 28 8 l 1,23,-1
 24 8 l 1,24,-1
 24 4 l 1,25,-1
 20 4 l 1,26,-1
 20 12 l 1,27,-1
 16 12 l 1,12,-1
4 8 m 1,28,-1
 8 8 l 1,29,-1
 8 4 l 1,30,-1
 4 4 l 1,31,-1
 4 8 l 1,28,-1
24 4 m 1,32,-1
 28 4 l 1,33,-1
 28 0 l 1,34,-1
 24 0 l 1,35,-1
 24 4 l 1,32,-1
20 4 m 1,36,-1
 20 0 l 1,37,-1
 8 0 l 1,38,-1
 8 4 l 1,39,-1
 20 4 l 1,36,-1
28 0 m 1,40,-1
 32 0 l 1,41,-1
 32 -4 l 1,42,-1
 28 -4 l 1,43,-1
 28 0 l 1,40,-1
EndSplineSet
Validated: 5
EndChar

StartChar: R
Encoding: 82 82 53
Width: 36
GlyphClass: 2
Flags: W
LayerCount: 2
Fore
SplineSet
0 0 m 1,0,-1
 0 52 l 1,1,-1
 20 52 l 1,2,-1
 20 48 l 1,3,-1
 4 48 l 1,4,-1
 4 28 l 1,5,-1
 20 28 l 1,6,-1
 20 24 l 1,7,-1
 16 24 l 1,8,-1
 16 20 l 1,9,-1
 12 20 l 1,10,-1
 12 24 l 1,11,-1
 4 24 l 1,12,-1
 4 0 l 1,13,-1
 0 0 l 1,0,-1
20 48 m 1,14,-1
 24 48 l 1,15,-1
 24 44 l 1,16,-1
 20 44 l 1,17,-1
 20 48 l 1,14,-1
24 44 m 1,18,-1
 28 44 l 1,19,-1
 28 32 l 1,20,-1
 24 32 l 1,21,-1
 24 44 l 1,18,-1
24 32 m 1,22,-1
 24 28 l 1,23,-1
 20 28 l 1,24,-1
 20 32 l 1,25,-1
 24 32 l 1,22,-1
16 20 m 1,26,-1
 20 20 l 1,27,-1
 20 16 l 1,28,-1
 16 16 l 1,29,-1
 16 20 l 1,26,-1
20 16 m 1,30,-1
 24 16 l 1,31,-1
 24 8 l 1,32,-1
 20 8 l 1,33,-1
 20 16 l 1,30,-1
24 8 m 1,34,-1
 28 8 l 1,35,-1
 28 0 l 1,36,-1
 24 0 l 1,37,-1
 24 8 l 1,34,-1
EndSplineSet
Validated: 5
EndChar

StartChar: S
Encoding: 83 83 54
Width: 36
GlyphClass: 2
Flags: W
LayerCount: 2
Fore
SplineSet
0 32 m 1,0,-1
 0 44 l 1,1,-1
 4 44 l 1,2,-1
 4 48 l 1,3,-1
 8 48 l 1,4,-1
 8 52 l 1,5,-1
 24 52 l 1,6,-1
 24 48 l 1,7,-1
 8 48 l 1,8,-1
 8 44 l 1,9,-1
 4 44 l 1,10,-1
 4 32 l 1,11,-1
 0 32 l 1,0,-1
0 4 m 1,12,13
 0 6 0 6 0 8 c 1,14,15
 2 8 2 8 4 8 c 1,16,-1
 4 4 l 1,17,-1
 0 4 l 1,12,13
24 48 m 1,18,-1
 28 48 l 1,19,-1
 28 44 l 1,20,-1
 24 44 l 1,21,-1
 24 48 l 1,18,-1
4 32 m 1,22,23
 6 32 6 32 8 32 c 1,24,-1
 8 28 l 1,25,26
 6 28 6 28 4 28 c 1,27,28
 4 30 4 30 4 32 c 1,22,23
8 28 m 1,29,30
 14 28 14 28 20 28 c 1,31,-1
 20 24 l 1,32,33
 14 24 14 24 8 24 c 1,34,35
 8 26 8 26 8 28 c 1,29,30
20 24 m 1,36,-1
 24 24 l 1,37,-1
 24 20 l 1,38,-1
 20 20 l 1,39,-1
 20 24 l 1,36,-1
24 20 m 1,40,-1
 28 20 l 1,41,-1
 28 8 l 1,42,-1
 24 8 l 1,43,-1
 24 20 l 1,40,-1
24 8 m 1,44,-1
 24 4 l 1,45,-1
 20 4 l 1,46,-1
 20 8 l 1,47,-1
 24 8 l 1,44,-1
20 4 m 1,48,-1
 20 0 l 1,49,50
 12 0 12 0 4 0 c 1,51,-1
 4 4 l 1,52,53
 12 4 12 4 20 4 c 1,48,-1
EndSplineSet
Validated: 5
EndChar

StartChar: T
Encoding: 84 84 55
Width: 36
GlyphClass: 2
Flags: W
LayerCount: 2
Fore
SplineSet
12 0 m 1,0,-1
 12 48 l 1,1,-1
 0 48 l 1,2,-1
 0 52 l 1,3,-1
 28 52 l 1,4,-1
 28 48 l 1,5,-1
 16 48 l 1,6,-1
 16 0 l 1,7,-1
 12 0 l 1,0,-1
EndSplineSet
Validated: 1
EndChar

StartChar: U
Encoding: 85 85 56
Width: 36
GlyphClass: 2
Flags: W
LayerCount: 2
Fore
SplineSet
0 8 m 1,0,-1
 0 52 l 1,1,-1
 4 52 l 1,2,-1
 4 8 l 1,3,-1
 0 8 l 1,0,-1
24 8 m 1,4,-1
 24 52 l 1,5,-1
 28 52 l 1,6,-1
 28 8 l 1,7,-1
 24 8 l 1,4,-1
24 8 m 1,8,-1
 24 4 l 1,9,-1
 20 4 l 1,10,-1
 20 8 l 1,11,-1
 24 8 l 1,8,-1
4 8 m 1,12,-1
 8 8 l 1,13,-1
 8 4 l 1,14,-1
 4 4 l 1,15,-1
 4 8 l 1,12,-1
20 4 m 1,16,-1
 20 0 l 1,17,-1
 8 0 l 1,18,-1
 8 4 l 1,19,-1
 20 4 l 1,16,-1
EndSplineSet
Validated: 5
EndChar

StartChar: V
Encoding: 86 86 57
Width: 36
GlyphClass: 2
Flags: W
LayerCount: 2
Fore
SplineSet
0 32 m 1,0,-1
 0 52 l 1,1,-1
 4 52 l 1,2,-1
 4 32 l 1,3,-1
 0 32 l 1,0,-1
24 32 m 1,4,-1
 24 52 l 1,5,-1
 28 52 l 1,6,-1
 28 32 l 1,7,-1
 24 32 l 1,4,-1
24 32 m 1,8,-1
 24 16 l 1,9,-1
 20 16 l 1,10,-1
 20 32 l 1,11,-1
 24 32 l 1,8,-1
4 32 m 1,12,-1
 8 32 l 1,13,-1
 8 16 l 1,14,-1
 4 16 l 1,15,-1
 4 32 l 1,12,-1
20 16 m 1,16,17
 20 10 20 10 20 4 c 1,18,-1
 16 4 l 1,19,-1
 16 16 l 1,20,-1
 20 16 l 1,16,17
8 16 m 1,21,-1
 12 16 l 1,22,23
 12 10 12 10 12 4 c 1,24,-1
 8 4 l 1,25,-1
 8 16 l 1,21,-1
16 4 m 1,26,-1
 16 0 l 1,27,-1
 12 0 l 1,28,-1
 12 4 l 1,29,-1
 16 4 l 1,26,-1
EndSplineSet
Validated: 5
EndChar

StartChar: W
Encoding: 87 87 58
Width: 52
GlyphClass: 2
Flags: W
LayerCount: 2
Fore
SplineSet
0 24 m 1,0,1
 0 38 0 38 0 52 c 1,2,-1
 4 52 l 1,3,4
 4 38 4 38 4 24 c 1,5,-1
 0 24 l 1,0,1
40 24 m 1,6,7
 40 38 40 38 40 52 c 1,8,-1
 44 52 l 1,9,10
 44 38 44 38 44 24 c 1,11,-1
 40 24 l 1,6,7
40 24 m 1,12,13
 40 14 40 14 40 4 c 1,14,-1
 36 4 l 1,15,16
 36 14 36 14 36 24 c 1,17,-1
 40 24 l 1,12,13
24 24 m 1,18,-1
 20 24 l 1,19,-1
 20 44 l 1,20,-1
 24 44 l 1,21,22
 24 34 24 34 24 24 c 1,18,-1
24 24 m 1,23,-1
 28 24 l 1,24,25
 28 14 28 14 28 4 c 1,26,-1
 24 4 l 1,27,28
 24 14 24 14 24 24 c 1,23,-1
20 24 m 1,29,30
 20 14 20 14 20 4 c 1,31,-1
 16 4 l 1,32,33
 16 14 16 14 16 24 c 1,34,-1
 20 24 l 1,29,30
4 24 m 1,35,-1
 8 24 l 1,36,37
 8 14 8 14 8 4 c 1,38,-1
 4 4 l 1,39,40
 4 14 4 14 4 24 c 1,35,-1
36 4 m 1,41,-1
 36 0 l 1,42,-1
 28 0 l 1,43,-1
 28 4 l 1,44,-1
 36 4 l 1,41,-1
16 4 m 1,45,-1
 16 0 l 1,46,-1
 8 0 l 1,47,-1
 8 4 l 1,48,-1
 16 4 l 1,45,-1
EndSplineSet
Validated: 5
EndChar

StartChar: X
Encoding: 88 88 59
Width: 36
GlyphClass: 2
Flags: W
LayerCount: 2
Fore
SplineSet
0 44 m 1,0,1
 0 48 0 48 0 52 c 1,2,-1
 4 52 l 1,3,4
 4 48 4 48 4 44 c 1,5,-1
 0 44 l 1,0,1
0 0 m 1,6,-1
 0 8 l 1,7,-1
 4 8 l 1,8,-1
 4 16 l 1,9,-1
 8 16 l 1,10,11
 8 20 8 20 8 24 c 1,12,-1
 12 24 l 1,13,-1
 12 28 l 1,14,-1
 8 28 l 1,15,16
 8 32 8 32 8 36 c 1,17,-1
 4 36 l 1,18,-1
 4 44 l 1,19,-1
 8 44 l 1,20,-1
 8 36 l 1,21,-1
 12 36 l 1,22,23
 12 32 12 32 12 28 c 1,24,-1
 16 28 l 1,25,26
 16 32 16 32 16 36 c 1,27,-1
 20 36 l 1,28,-1
 20 44 l 1,29,-1
 24 44 l 1,30,31
 24 48 24 48 24 52 c 1,32,-1
 28 52 l 1,33,34
 28 48 28 48 28 44 c 1,35,-1
 24 44 l 1,36,-1
 24 36 l 1,37,-1
 20 36 l 1,38,39
 20 32 20 32 20 28 c 1,40,-1
 16 28 l 1,41,-1
 16 24 l 1,42,-1
 12 24 l 1,43,-1
 12 16 l 1,44,-1
 8 16 l 1,45,-1
 8 8 l 1,46,-1
 4 8 l 1,47,-1
 4 0 l 1,48,-1
 0 0 l 1,6,-1
16 24 m 1,49,-1
 20 24 l 1,50,-1
 20 16 l 1,51,-1
 16 16 l 1,52,53
 16 20 16 20 16 24 c 1,49,-1
20 16 m 1,54,-1
 24 16 l 1,55,-1
 24 8 l 1,56,-1
 20 8 l 1,57,-1
 20 16 l 1,54,-1
24 8 m 1,58,-1
 28 8 l 1,59,-1
 28 0 l 1,60,-1
 24 0 l 1,61,-1
 24 8 l 1,58,-1
EndSplineSet
Validated: 5
EndChar

StartChar: Y
Encoding: 89 89 60
Width: 36
GlyphClass: 2
Flags: W
LayerCount: 2
Fore
SplineSet
0 40 m 1,0,-1
 0 52 l 1,1,-1
 4 52 l 1,2,-1
 4 40 l 1,3,-1
 0 40 l 1,0,-1
24 40 m 1,4,-1
 24 52 l 1,5,-1
 28 52 l 1,6,-1
 28 40 l 1,7,-1
 24 40 l 1,4,-1
24 40 m 1,8,-1
 24 32 l 1,9,-1
 20 32 l 1,10,-1
 20 40 l 1,11,-1
 24 40 l 1,8,-1
4 40 m 1,12,-1
 8 40 l 1,13,-1
 8 32 l 1,14,-1
 4 32 l 1,15,-1
 4 40 l 1,12,-1
20 32 m 1,16,-1
 20 24 l 1,17,-1
 16 24 l 1,18,19
 16 28 16 28 16 32 c 1,20,-1
 20 32 l 1,16,-1
8 32 m 1,21,-1
 12 32 l 1,22,-1
 12 24 l 1,23,-1
 8 24 l 1,24,25
 8 28 8 28 8 32 c 1,21,-1
16 24 m 1,26,-1
 16 0 l 1,27,-1
 12 0 l 1,28,-1
 12 24 l 1,29,-1
 16 24 l 1,26,-1
EndSplineSet
Validated: 5
EndChar

StartChar: Z
Encoding: 90 90 61
Width: 36
GlyphClass: 2
Flags: W
LayerCount: 2
Fore
SplineSet
0 0 m 1,0,-1
 0 16 l 1,1,-1
 4 16 l 1,2,-1
 4 20 l 1,3,-1
 8 20 l 1,4,-1
 8 24 l 1,5,-1
 12 24 l 1,6,-1
 12 28 l 1,7,-1
 16 28 l 1,8,-1
 16 32 l 1,9,-1
 20 32 l 1,10,-1
 20 36 l 1,11,-1
 24 36 l 1,12,-1
 24 48 l 1,13,-1
 0 48 l 1,14,-1
 0 52 l 1,15,-1
 28 52 l 1,16,-1
 28 36 l 1,17,-1
 24 36 l 1,18,-1
 24 32 l 1,19,-1
 20 32 l 1,20,-1
 20 28 l 1,21,-1
 16 28 l 1,22,-1
 16 24 l 1,23,-1
 12 24 l 1,24,-1
 12 20 l 1,25,-1
 8 20 l 1,26,-1
 8 16 l 1,27,-1
 4 16 l 1,28,-1
 4 4 l 1,29,-1
 28 4 l 1,30,-1
 28 0 l 1,31,-1
 0 0 l 1,0,-1
EndSplineSet
Validated: 5
EndChar

StartChar: bracketleft
Encoding: 91 91 62
Width: 24
GlyphClass: 2
Flags: W
LayerCount: 2
Fore
SplineSet
0 0 m 1,0,-1
 0 52 l 1,1,-1
 16 52 l 1,2,-1
 16 48 l 1,3,-1
 4 48 l 1,4,-1
 4 4 l 1,5,-1
 16 4 l 1,6,-1
 16 0 l 1,7,-1
 0 0 l 1,0,-1
EndSplineSet
Validated: 1
EndChar

StartChar: backslash
Encoding: 92 92 63
Width: 36
GlyphClass: 2
Flags: W
LayerCount: 2
Fore
SplineSet
0 44 m 1,0,-1
 0 52 l 1,1,-1
 4 52 l 1,2,-1
 4 44 l 1,3,-1
 0 44 l 1,0,-1
4 44 m 1,4,-1
 8 44 l 1,5,-1
 8 36 l 1,6,-1
 4 36 l 1,7,-1
 4 44 l 1,4,-1
8 36 m 1,8,-1
 12 36 l 1,9,-1
 12 28 l 1,10,-1
 8 28 l 1,11,-1
 8 36 l 1,8,-1
12 28 m 1,12,-1
 16 28 l 1,13,-1
 16 20 l 1,14,-1
 12 20 l 1,15,-1
 12 28 l 1,12,-1
16 20 m 1,16,-1
 20 20 l 1,17,-1
 20 12 l 1,18,-1
 16 12 l 1,19,-1
 16 20 l 1,16,-1
20 12 m 1,20,-1
 24 12 l 1,21,-1
 24 4 l 1,22,-1
 20 4 l 1,23,-1
 20 12 l 1,20,-1
24 4 m 1,24,-1
 28 4 l 1,25,-1
 28 0 l 1,26,-1
 24 0 l 1,27,-1
 24 4 l 1,24,-1
EndSplineSet
Validated: 5
EndChar

StartChar: bracketright
Encoding: 93 93 64
Width: 24
GlyphClass: 2
Flags: W
LayerCount: 2
Fore
SplineSet
0 0 m 1,0,-1
 0 4 l 1,1,-1
 12 4 l 1,2,-1
 12 48 l 1,3,-1
 0 48 l 1,4,-1
 0 52 l 1,5,-1
 16 52 l 1,6,-1
 16 0 l 1,7,-1
 0 0 l 1,0,-1
EndSplineSet
Validated: 1
EndChar

StartChar: asciicircum
Encoding: 94 94 65
Width: 36
GlyphClass: 2
Flags: W
LayerCount: 2
Fore
SplineSet
0 36 m 1,0,-1
 0 40 l 1,1,-1
 4 40 l 1,2,-1
 4 44 l 1,3,-1
 8 44 l 1,4,-1
 8 48 l 1,5,-1
 12 48 l 1,6,-1
 12 52 l 1,7,-1
 16 52 l 1,8,-1
 16 48 l 1,9,-1
 12 48 l 1,10,-1
 12 44 l 1,11,-1
 8 44 l 1,12,-1
 8 40 l 1,13,-1
 4 40 l 1,14,-1
 4 36 l 1,15,-1
 0 36 l 1,0,-1
16 48 m 1,16,-1
 20 48 l 1,17,-1
 20 44 l 1,18,-1
 16 44 l 1,19,-1
 16 48 l 1,16,-1
20 44 m 1,20,-1
 24 44 l 1,21,-1
 24 40 l 1,22,-1
 20 40 l 1,23,-1
 20 44 l 1,20,-1
24 40 m 1,24,-1
 28 40 l 1,25,-1
 28 36 l 1,26,-1
 24 36 l 1,27,-1
 24 40 l 1,24,-1
EndSplineSet
Validated: 5
EndChar

StartChar: underscore
Encoding: 95 95 66
Width: 36
GlyphClass: 2
Flags: W
LayerCount: 2
Fore
SplineSet
0 0 m 1,0,-1
 0 4 l 1,1,-1
 36 4 l 1,2,-1
 36 0 l 1,3,-1
 0 0 l 1,0,-1
EndSplineSet
Validated: 1
EndChar

StartChar: grave
Encoding: 96 96 67
Width: 20
GlyphClass: 2
Flags: W
LayerCount: 2
Fore
SplineSet
0 48 m 1,0,-1
 0 52 l 1,1,-1
 4 52 l 1,2,-1
 4 48 l 1,3,-1
 0 48 l 1,0,-1
4 48 m 1,4,-1
 8 48 l 1,5,-1
 8 44 l 1,6,-1
 4 44 l 1,7,-1
 4 48 l 1,4,-1
8 44 m 1,8,-1
 12 44 l 1,9,-1
 12 40 l 1,10,-1
 8 40 l 1,11,-1
 8 44 l 1,8,-1
EndSplineSet
Validated: 5
EndChar

StartChar: a
Encoding: 97 97 68
Width: 35
GlyphClass: 2
Flags: W
LayerCount: 2
Fore
SplineSet
24 0 m 1,0,-1
 24 4 l 1,1,-1
 20 4 l 1,2,-1
 20 8 l 1,3,-1
 24 8 l 1,4,-1
 24 20 l 1,5,-1
 8 20 l 1,6,-1
 8 24 l 1,7,-1
 24 24 l 1,8,-1
 24 36 l 1,9,10
 14 36 14 36 4 36 c 1,11,-1
 4 40 l 1,12,13
 14 40 14 40 24 40 c 1,14,-1
 24 36 l 1,15,-1
 28 36 l 1,16,-1
 28 0 l 1,17,-1
 24 0 l 1,0,-1
0 32 m 1,18,19
 0 34 0 34 0 36 c 1,20,-1
 4 36 l 1,21,-1
 4 32 l 1,22,23
 2 32 2 32 0 32 c 1,18,19
0 4 m 1,24,-1
 0 16 l 1,25,-1
 4 16 l 1,26,-1
 4 20 l 1,27,-1
 8 20 l 1,28,-1
 8 16 l 1,29,-1
 4 16 l 1,30,-1
 4 4 l 1,31,-1
 0 4 l 1,24,-1
20 4 m 1,32,-1
 20 0 l 1,33,-1
 4 0 l 1,34,-1
 4 4 l 1,35,36
 12 4 12 4 20 4 c 1,32,-1
EndSplineSet
Validated: 5
EndChar

StartChar: b
Encoding: 98 98 69
Width: 36
GlyphClass: 2
Flags: W
LayerCount: 2
Fore
SplineSet
0 8 m 1,0,1
 0 30 0 30 0 52 c 1,2,-1
 4 52 l 1,3,-1
 4 36 l 1,4,-1
 8 36 l 1,5,-1
 8 32 l 1,6,-1
 4 32 l 1,7,-1
 4 8 l 1,8,-1
 0 8 l 1,0,1
8 36 m 1,9,-1
 8 40 l 1,10,-1
 20 40 l 1,11,-1
 20 36 l 1,12,-1
 8 36 l 1,9,-1
20 36 m 1,13,-1
 24 36 l 1,14,-1
 24 32 l 1,15,-1
 20 32 l 1,16,-1
 20 36 l 1,13,-1
24 32 m 1,17,-1
 28 32 l 1,18,-1
 28 8 l 1,19,-1
 24 8 l 1,20,-1
 24 32 l 1,17,-1
24 8 m 1,21,22
 24 6 24 6 24 4 c 1,23,-1
 20 4 l 1,24,-1
 20 8 l 1,25,26
 22 8 22 8 24 8 c 1,21,22
20 4 m 1,27,28
 20 2 20 2 20 0 c 1,29,-1
 8 0 l 1,30,31
 8 2 8 2 8 4 c 1,32,33
 14 4 14 4 20 4 c 1,27,28
8 4 m 1,34,-1
 4 4 l 1,35,-1
 4 8 l 1,36,37
 6 8 6 8 8 8 c 1,38,39
 8 6 8 6 8 4 c 1,34,-1
EndSplineSet
Validated: 5
EndChar

StartChar: c
Encoding: 99 99 70
Width: 36
GlyphClass: 2
Flags: W
LayerCount: 2
Fore
SplineSet
0 8 m 1,0,-1
 0 32 l 1,1,-1
 4 32 l 1,2,-1
 4 36 l 1,3,-1
 8 36 l 1,4,-1
 8 40 l 1,5,6
 16 40 16 40 24 40 c 1,7,-1
 24 36 l 1,8,9
 16 36 16 36 8 36 c 1,10,-1
 8 32 l 1,11,-1
 4 32 l 1,12,-1
 4 8 l 1,13,-1
 0 8 l 1,0,-1
24 36 m 1,14,-1
 28 36 l 1,15,-1
 28 32 l 1,16,-1
 24 32 l 1,17,-1
 24 36 l 1,14,-1
4 8 m 1,18,-1
 8 8 l 1,19,-1
 8 4 l 1,20,-1
 4 4 l 1,21,-1
 4 8 l 1,18,-1
24 4 m 1,22,-1
 24 8 l 1,23,24
 26 8 26 8 28 8 c 1,25,26
 28 6 28 6 28 4 c 1,27,-1
 24 4 l 1,22,-1
24 4 m 1,28,-1
 24 0 l 1,29,30
 16 0 16 0 8 0 c 1,31,-1
 8 4 l 1,32,33
 16 4 16 4 24 4 c 1,28,-1
EndSplineSet
Validated: 5
EndChar

StartChar: d
Encoding: 100 100 71
Width: 36
GlyphClass: 2
Flags: W
LayerCount: 2
Fore
SplineSet
24 0 m 1,0,-1
 24 4 l 1,1,-1
 20 4 l 1,2,-1
 20 8 l 1,3,-1
 24 8 l 1,4,-1
 24 32 l 1,5,-1
 20 32 l 1,6,-1
 20 36 l 1,7,-1
 24 36 l 1,8,-1
 24 52 l 1,9,-1
 28 52 l 1,10,-1
 28 0 l 1,11,-1
 24 0 l 1,0,-1
0 8 m 1,12,-1
 0 32 l 1,13,-1
 4 32 l 1,14,-1
 4 36 l 1,15,-1
 8 36 l 1,16,-1
 8 40 l 1,17,-1
 20 40 l 1,18,-1
 20 36 l 1,19,-1
 8 36 l 1,20,-1
 8 32 l 1,21,-1
 4 32 l 1,22,-1
 4 8 l 1,23,-1
 0 8 l 1,12,-1
4 8 m 1,24,-1
 8 8 l 1,25,-1
 8 4 l 1,26,-1
 4 4 l 1,27,-1
 4 8 l 1,24,-1
20 4 m 1,28,-1
 20 0 l 1,29,-1
 8 0 l 1,30,-1
 8 4 l 1,31,-1
 20 4 l 1,28,-1
EndSplineSet
Validated: 5
EndChar

StartChar: e
Encoding: 101 101 72
Width: 36
GlyphClass: 2
Flags: W
LayerCount: 2
Fore
SplineSet
0 8 m 1,0,-1
 0 32 l 1,1,-1
 4 32 l 1,2,-1
 4 36 l 1,3,-1
 8 36 l 1,4,-1
 8 40 l 1,5,-1
 20 40 l 1,6,-1
 20 36 l 1,7,-1
 8 36 l 1,8,-1
 8 32 l 1,9,-1
 4 32 l 1,10,-1
 4 24 l 1,11,-1
 24 24 l 1,12,-1
 24 32 l 1,13,-1
 20 32 l 1,14,-1
 20 36 l 1,15,-1
 24 36 l 1,16,-1
 24 32 l 1,17,-1
 28 32 l 1,18,-1
 28 20 l 1,19,-1
 4 20 l 1,20,-1
 4 8 l 1,21,-1
 0 8 l 1,0,-1
4 8 m 1,22,-1
 8 8 l 1,23,-1
 8 4 l 1,24,-1
 4 4 l 1,25,-1
 4 8 l 1,22,-1
24 4 m 1,26,-1
 24 8 l 1,27,28
 26 8 26 8 28 8 c 1,29,30
 28 6 28 6 28 4 c 1,31,-1
 24 4 l 1,26,-1
24 4 m 1,32,-1
 24 0 l 1,33,34
 16 0 16 0 8 0 c 1,35,-1
 8 4 l 1,36,37
 16 4 16 4 24 4 c 1,32,-1
EndSplineSet
Validated: 5
EndChar

StartChar: f
Encoding: 102 102 73
Width: 32
GlyphClass: 2
Flags: W
LayerCount: 2
Fore
SplineSet
8 0 m 1,0,-1
 8 28 l 1,1,-1
 0 28 l 1,2,-1
 0 32 l 1,3,-1
 8 32 l 1,4,-1
 8 48 l 1,5,-1
 12 48 l 1,6,-1
 12 52 l 1,7,-1
 24 52 l 1,8,-1
 24 48 l 1,9,-1
 12 48 l 1,10,-1
 12 32 l 1,11,-1
 24 32 l 1,12,-1
 24 28 l 1,13,-1
 12 28 l 1,14,-1
 12 0 l 1,15,-1
 8 0 l 1,0,-1
EndSplineSet
Validated: 5
EndChar

StartChar: g
Encoding: 103 103 74
Width: 36
GlyphClass: 2
Flags: W
LayerCount: 2
Fore
SplineSet
0 8 m 1,0,1
 0 20 0 20 0 32 c 1,2,-1
 4 32 l 1,3,-1
 4 36 l 1,4,-1
 8 36 l 1,5,-1
 8 40 l 1,6,-1
 20 40 l 1,7,-1
 20 36 l 1,8,-1
 24 36 l 1,9,-1
 24 40 l 1,10,-1
 28 40 l 1,11,-1
 28 -4 l 1,12,-1
 24 -4 l 1,13,14
 24 -0 24 -0 24 4 c 1,15,-1
 20 4 l 1,16,-1
 20 8 l 1,17,-1
 24 8 l 1,18,19
 24 20 24 20 24 32 c 1,20,-1
 20 32 l 1,21,-1
 20 36 l 1,22,-1
 8 36 l 1,23,-1
 8 32 l 1,24,-1
 4 32 l 1,25,-1
 4 8 l 1,26,-1
 0 8 l 1,0,1
0 -8 m 1,27,28
 0 -6 0 -6 0 -4 c 1,29,30
 2 -4 2 -4 4 -4 c 1,31,-1
 4 -8 l 1,32,-1
 0 -8 l 1,27,28
4 8 m 1,33,-1
 8 8 l 1,34,-1
 8 4 l 1,35,-1
 4 4 l 1,36,-1
 4 8 l 1,33,-1
20 4 m 1,37,-1
 20 0 l 1,38,-1
 8 0 l 1,39,-1
 8 4 l 1,40,-1
 20 4 l 1,37,-1
24 -4 m 1,41,-1
 24 -8 l 1,42,-1
 20 -8 l 1,43,-1
 20 -4 l 1,44,-1
 24 -4 l 1,41,-1
20 -8 m 1,45,-1
 20 -12 l 1,46,47
 12 -12 12 -12 4 -12 c 1,48,-1
 4 -8 l 1,49,50
 12 -8 12 -8 20 -8 c 1,45,-1
EndSplineSet
Validated: 5
EndChar

StartChar: h
Encoding: 104 104 75
Width: 36
GlyphClass: 2
Flags: W
LayerCount: 2
Fore
SplineSet
0 0 m 1,0,-1
 0 52 l 1,1,-1
 4 52 l 1,2,-1
 4 36 l 1,3,-1
 8 36 l 1,4,-1
 8 32 l 1,5,-1
 4 32 l 1,6,-1
 4 0 l 1,7,-1
 0 0 l 1,0,-1
8 36 m 1,8,-1
 8 40 l 1,9,-1
 20 40 l 1,10,-1
 20 36 l 1,11,-1
 8 36 l 1,8,-1
20 36 m 1,12,-1
 24 36 l 1,13,-1
 24 32 l 1,14,-1
 20 32 l 1,15,-1
 20 36 l 1,12,-1
24 32 m 1,16,-1
 28 32 l 1,17,-1
 28 0 l 1,18,-1
 24 0 l 1,19,-1
 24 32 l 1,16,-1
EndSplineSet
Validated: 5
EndChar

StartChar: i
Encoding: 105 105 76
Width: 12
GlyphClass: 2
Flags: W
LayerCount: 2
Fore
SplineSet
0 48 m 1,0,-1
 0 52 l 1,1,-1
 4 52 l 1,2,-1
 4 48 l 1,3,-1
 0 48 l 1,0,-1
0 0 m 1,4,-1
 0 40 l 1,5,-1
 4 40 l 1,6,-1
 4 0 l 1,7,-1
 0 0 l 1,4,-1
EndSplineSet
Validated: 1
EndChar

StartChar: j
Encoding: 106 106 77
Width: 16
GlyphClass: 2
Flags: W
LayerCount: 2
Fore
SplineSet
4 48 m 1,0,-1
 4 52 l 1,1,-1
 8 52 l 1,2,-1
 8 48 l 1,3,-1
 4 48 l 1,0,-1
-8 -8 m 1,4,-1
 -8 -4 l 1,5,-1
 -4 -4 l 1,6,-1
 -4 -8 l 1,7,-1
 -8 -8 l 1,4,-1
4 -8 m 1,8,-1
 4 40 l 1,9,-1
 8 40 l 1,10,-1
 8 -8 l 1,11,-1
 4 -8 l 1,8,-1
4 -8 m 1,12,-1
 4 -12 l 1,13,-1
 -4 -12 l 1,14,-1
 -4 -8 l 1,15,-1
 4 -8 l 1,12,-1
EndSplineSet
Validated: 5
EndChar

StartChar: k
Encoding: 107 107 78
Width: 36
GlyphClass: 2
Flags: W
LayerCount: 2
Fore
SplineSet
0 0 m 1,0,-1
 0 52 l 1,1,-1
 4 52 l 1,2,-1
 4 24 l 1,3,-1
 12 24 l 1,4,-1
 12 20 l 1,5,-1
 4 20 l 1,6,-1
 4 0 l 1,7,-1
 0 0 l 1,0,-1
20 32 m 1,8,-1
 20 36 l 1,9,10
 22 36 22 36 24 36 c 1,11,12
 24 34 24 34 24 32 c 1,13,-1
 20 32 l 1,8,-1
20 32 m 1,14,-1
 20 28 l 1,15,-1
 16 28 l 1,16,-1
 16 32 l 1,17,-1
 20 32 l 1,14,-1
16 28 m 1,18,-1
 16 24 l 1,19,-1
 12 24 l 1,20,-1
 12 28 l 1,21,-1
 16 28 l 1,18,-1
12 20 m 1,22,-1
 16 20 l 1,23,-1
 16 16 l 1,24,-1
 12 16 l 1,25,-1
 12 20 l 1,22,-1
16 16 m 1,26,-1
 20 16 l 1,27,-1
 20 12 l 1,28,-1
 16 12 l 1,29,-1
 16 16 l 1,26,-1
20 12 m 1,30,-1
 24 12 l 1,31,-1
 24 8 l 1,32,-1
 20 8 l 1,33,-1
 20 12 l 1,30,-1
24 8 m 1,34,-1
 28 8 l 1,35,-1
 28 0 l 1,36,-1
 24 0 l 1,37,-1
 24 8 l 1,34,-1
EndSplineSet
Validated: 5
EndChar

StartChar: l
Encoding: 108 108 79
Width: 20
GlyphClass: 2
Flags: W
LayerCount: 2
Fore
SplineSet
0 0 m 1,0,-1
 0 52 l 1,1,2
 2 52 2 52 4 52 c 1,3,4
 4 28 4 28 4 4 c 1,5,-1
 12 4 l 1,6,-1
 12 0 l 1,7,-1
 0 0 l 1,0,-1
EndSplineSet
Validated: 1
EndChar

StartChar: m
Encoding: 109 109 80
Width: 52
GlyphClass: 2
Flags: W
LayerCount: 2
Fore
SplineSet
0 0 m 1,0,-1
 0 40 l 1,1,-1
 4 40 l 1,2,-1
 4 36 l 1,3,-1
 8 36 l 1,4,-1
 8 40 l 1,5,-1
 16 40 l 1,6,-1
 16 36 l 1,7,-1
 8 36 l 1,8,-1
 8 32 l 1,9,-1
 4 32 l 1,10,-1
 4 0 l 1,11,-1
 0 0 l 1,0,-1
36 36 m 1,12,-1
 28 36 l 1,13,-1
 28 40 l 1,14,-1
 36 40 l 1,15,-1
 36 36 l 1,12,-1
36 36 m 1,16,-1
 40 36 l 1,17,-1
 40 32 l 1,18,-1
 36 32 l 1,19,-1
 36 36 l 1,16,-1
28 36 m 1,20,-1
 28 32 l 1,21,-1
 24 32 l 1,22,-1
 24 36 l 1,23,-1
 28 36 l 1,20,-1
16 36 m 1,24,-1
 20 36 l 1,25,-1
 20 32 l 1,26,-1
 16 32 l 1,27,-1
 16 36 l 1,24,-1
40 32 m 1,28,-1
 44 32 l 1,29,-1
 44 0 l 1,30,-1
 40 0 l 1,31,-1
 40 32 l 1,28,-1
24 32 m 1,32,-1
 24 12 l 1,33,-1
 20 12 l 1,34,-1
 20 32 l 1,35,-1
 24 32 l 1,32,-1
EndSplineSet
Validated: 5
EndChar

StartChar: n
Encoding: 110 110 81
Width: 36
GlyphClass: 2
Flags: W
LayerCount: 2
Fore
SplineSet
0 0 m 1,0,-1
 0 40 l 1,1,-1
 4 40 l 1,2,-1
 4 36 l 1,3,-1
 8 36 l 1,4,-1
 8 40 l 1,5,-1
 20 40 l 1,6,-1
 20 36 l 1,7,-1
 8 36 l 1,8,-1
 8 32 l 1,9,-1
 4 32 l 1,10,-1
 4 0 l 1,11,-1
 0 0 l 1,0,-1
20 36 m 1,12,-1
 24 36 l 1,13,-1
 24 32 l 1,14,-1
 20 32 l 1,15,-1
 20 36 l 1,12,-1
24 32 m 1,16,-1
 28 32 l 1,17,-1
 28 0 l 1,18,-1
 24 0 l 1,19,-1
 24 32 l 1,16,-1
EndSplineSet
Validated: 5
EndChar

StartChar: o
Encoding: 111 111 82
Width: 36
GlyphClass: 2
Flags: W
LayerCount: 2
Fore
SplineSet
0 8 m 1,0,-1
 0 32 l 1,1,-1
 4 32 l 1,2,-1
 4 36 l 1,3,-1
 8 36 l 1,4,-1
 8 40 l 1,5,-1
 20 40 l 1,6,-1
 20 36 l 1,7,-1
 8 36 l 1,8,-1
 8 32 l 1,9,-1
 4 32 l 1,10,-1
 4 8 l 1,11,-1
 0 8 l 1,0,-1
20 36 m 1,12,-1
 24 36 l 1,13,-1
 24 32 l 1,14,-1
 20 32 l 1,15,-1
 20 36 l 1,12,-1
24 32 m 1,16,-1
 28 32 l 1,17,-1
 28 8 l 1,18,-1
 24 8 l 1,19,-1
 24 32 l 1,16,-1
24 8 m 1,20,-1
 24 4 l 1,21,-1
 20 4 l 1,22,-1
 20 8 l 1,23,-1
 24 8 l 1,20,-1
4 8 m 1,24,-1
 8 8 l 1,25,-1
 8 4 l 1,26,-1
 4 4 l 1,27,-1
 4 8 l 1,24,-1
20 4 m 1,28,-1
 20 0 l 1,29,-1
 8 0 l 1,30,-1
 8 4 l 1,31,-1
 20 4 l 1,28,-1
EndSplineSet
Validated: 5
EndChar

StartChar: p
Encoding: 112 112 83
Width: 36
GlyphClass: 2
Flags: W
LayerCount: 2
Fore
SplineSet
0 -12 m 1,0,-1
 0 40 l 1,1,-1
 4 40 l 1,2,-1
 4 36 l 1,3,-1
 8 36 l 1,4,-1
 8 40 l 1,5,-1
 20 40 l 1,6,-1
 20 36 l 1,7,-1
 8 36 l 1,8,-1
 8 32 l 1,9,-1
 4 32 l 1,10,-1
 4 8 l 1,11,-1
 8 8 l 1,12,-1
 8 4 l 1,13,-1
 4 4 l 1,14,-1
 4 -12 l 1,15,-1
 0 -12 l 1,0,-1
20 36 m 1,16,-1
 24 36 l 1,17,-1
 24 32 l 1,18,-1
 20 32 l 1,19,-1
 20 36 l 1,16,-1
24 32 m 1,20,-1
 28 32 l 1,21,-1
 28 8 l 1,22,-1
 24 8 l 1,23,-1
 24 32 l 1,20,-1
24 8 m 1,24,-1
 24 4 l 1,25,-1
 20 4 l 1,26,-1
 20 8 l 1,27,-1
 24 8 l 1,24,-1
20 4 m 1,28,-1
 20 0 l 1,29,-1
 8 0 l 1,30,-1
 8 4 l 1,31,-1
 20 4 l 1,28,-1
EndSplineSet
Validated: 5
EndChar

StartChar: q
Encoding: 113 113 84
Width: 36
GlyphClass: 2
Flags: W
LayerCount: 2
Fore
SplineSet
24 -12 m 1,0,-1
 24 4 l 1,1,-1
 20 4 l 1,2,-1
 20 8 l 1,3,-1
 24 8 l 1,4,-1
 24 32 l 1,5,-1
 20 32 l 1,6,-1
 20 36 l 1,7,-1
 24 36 l 1,8,-1
 24 40 l 1,9,-1
 28 40 l 1,10,-1
 28 -12 l 1,11,-1
 24 -12 l 1,0,-1
0 8 m 1,12,-1
 0 32 l 1,13,-1
 4 32 l 1,14,-1
 4 36 l 1,15,-1
 8 36 l 1,16,-1
 8 40 l 1,17,-1
 20 40 l 1,18,-1
 20 36 l 1,19,-1
 8 36 l 1,20,-1
 8 32 l 1,21,-1
 4 32 l 1,22,-1
 4 8 l 1,23,-1
 0 8 l 1,12,-1
4 8 m 1,24,-1
 8 8 l 1,25,-1
 8 4 l 1,26,-1
 4 4 l 1,27,-1
 4 8 l 1,24,-1
20 4 m 1,28,-1
 20 0 l 1,29,-1
 8 0 l 1,30,-1
 8 4 l 1,31,-1
 20 4 l 1,28,-1
EndSplineSet
Validated: 5
EndChar

StartChar: r
Encoding: 114 114 85
Width: 28
GlyphClass: 2
Flags: W
LayerCount: 2
Fore
SplineSet
0 0 m 1,0,-1
 0 40 l 1,1,-1
 4 40 l 1,2,-1
 4 32 l 1,3,-1
 8 32 l 1,4,-1
 8 28 l 1,5,-1
 4 28 l 1,6,-1
 4 0 l 1,7,-1
 0 0 l 1,0,-1
12 36 m 1,8,-1
 12 40 l 1,9,-1
 20 40 l 1,10,-1
 20 36 l 1,11,-1
 12 36 l 1,8,-1
12 36 m 1,12,-1
 12 32 l 1,13,-1
 8 32 l 1,14,-1
 8 36 l 1,15,-1
 12 36 l 1,12,-1
EndSplineSet
Validated: 5
EndChar

StartChar: s
Encoding: 115 115 86
Width: 36
GlyphClass: 2
Flags: W
LayerCount: 2
Fore
SplineSet
0 24 m 1,0,1
 0 28 0 28 0 32 c 1,2,-1
 4 32 l 1,3,-1
 4 36 l 1,4,-1
 8 36 l 1,5,-1
 8 40 l 1,6,7
 16 40 16 40 24 40 c 1,8,-1
 24 36 l 1,9,10
 16 36 16 36 8 36 c 1,11,-1
 8 32 l 1,12,-1
 4 32 l 1,13,14
 4 28 4 28 4 24 c 1,15,-1
 0 24 l 1,0,1
0 4 m 1,16,17
 0 6 0 6 0 8 c 1,18,19
 2 8 2 8 4 8 c 1,20,-1
 4 4 l 1,21,-1
 0 4 l 1,16,17
24 36 m 1,22,-1
 28 36 l 1,23,-1
 28 32 l 1,24,-1
 24 32 l 1,25,-1
 24 36 l 1,22,-1
4 24 m 1,26,-1
 20 24 l 1,27,-1
 20 20 l 1,28,29
 12 20 12 20 4 20 c 1,30,31
 4 22 4 22 4 24 c 1,26,-1
20 20 m 1,32,-1
 24 20 l 1,33,-1
 24 16 l 1,34,-1
 20 16 l 1,35,-1
 20 20 l 1,32,-1
24 16 m 1,36,-1
 28 16 l 1,37,-1
 28 8 l 1,38,-1
 24 8 l 1,39,-1
 24 16 l 1,36,-1
24 8 m 1,40,-1
 24 4 l 1,41,-1
 20 4 l 1,42,-1
 20 8 l 1,43,-1
 24 8 l 1,40,-1
20 4 m 1,44,-1
 20 0 l 1,45,46
 12 0 12 0 4 0 c 1,47,-1
 4 4 l 1,48,49
 12 4 12 4 20 4 c 1,44,-1
EndSplineSet
Validated: 5
EndChar

StartChar: t
Encoding: 116 116 87
Width: 32
GlyphClass: 2
Flags: W
LayerCount: 2
Fore
SplineSet
4 4 m 1,0,-1
 4 36 l 1,1,-1
 -4 36 l 1,2,-1
 -4 40 l 1,3,-1
 4 40 l 1,4,-1
 4 52 l 1,5,-1
 8 52 l 1,6,-1
 8 40 l 1,7,8
 14 40 14 40 20 40 c 1,9,-1
 20 36 l 1,10,11
 14 36 14 36 8 36 c 1,12,-1
 8 4 l 1,13,-1
 4 4 l 1,0,-1
8 4 m 1,14,-1
 24 4 l 1,15,-1
 24 0 l 1,16,-1
 8 0 l 1,17,-1
 8 4 l 1,14,-1
EndSplineSet
Validated: 5
EndChar

StartChar: u
Encoding: 117 117 88
Width: 36
GlyphClass: 2
Flags: W
LayerCount: 2
Fore
SplineSet
24 0 m 1,0,-1
 24 4 l 1,1,-1
 20 4 l 1,2,-1
 20 8 l 1,3,-1
 24 8 l 1,4,-1
 24 40 l 1,5,-1
 28 40 l 1,6,-1
 28 0 l 1,7,-1
 24 0 l 1,0,-1
0 8 m 1,8,-1
 0 40 l 1,9,-1
 4 40 l 1,10,-1
 4 8 l 1,11,-1
 0 8 l 1,8,-1
4 8 m 1,12,-1
 8 8 l 1,13,-1
 8 4 l 1,14,-1
 4 4 l 1,15,-1
 4 8 l 1,12,-1
20 4 m 1,16,-1
 20 0 l 1,17,-1
 8 0 l 1,18,-1
 8 4 l 1,19,-1
 20 4 l 1,16,-1
EndSplineSet
Validated: 5
EndChar

StartChar: v
Encoding: 118 118 89
Width: 36
GlyphClass: 2
Flags: W
LayerCount: 2
Fore
SplineSet
0 24 m 1,0,-1
 0 40 l 1,1,-1
 4 40 l 1,2,-1
 4 24 l 1,3,-1
 0 24 l 1,0,-1
24 24 m 1,4,-1
 24 40 l 1,5,-1
 28 40 l 1,6,-1
 28 24 l 1,7,-1
 24 24 l 1,4,-1
24 24 m 1,8,9
 24 18 24 18 24 12 c 1,10,-1
 20 12 l 1,11,-1
 20 24 l 1,12,-1
 24 24 l 1,8,9
4 24 m 1,13,-1
 8 24 l 1,14,15
 8 18 8 18 8 12 c 1,16,-1
 4 12 l 1,17,-1
 4 24 l 1,13,-1
20 12 m 1,18,-1
 20 4 l 1,19,-1
 16 4 l 1,20,-1
 16 12 l 1,21,-1
 20 12 l 1,18,-1
8 12 m 1,22,-1
 12 12 l 1,23,-1
 12 4 l 1,24,-1
 8 4 l 1,25,-1
 8 12 l 1,22,-1
16 4 m 1,26,-1
 16 0 l 1,27,-1
 12 0 l 1,28,-1
 12 4 l 1,29,-1
 16 4 l 1,26,-1
EndSplineSet
Validated: 5
EndChar

StartChar: w
Encoding: 119 119 90
Width: 52
GlyphClass: 2
Flags: W
LayerCount: 2
Fore
SplineSet
0 16 m 1,0,-1
 0 40 l 1,1,-1
 4 40 l 1,2,-1
 4 16 l 1,3,-1
 0 16 l 1,0,-1
40 16 m 1,4,-1
 40 40 l 1,5,-1
 44 40 l 1,6,-1
 44 16 l 1,7,-1
 40 16 l 1,4,-1
40 16 m 1,8,-1
 40 4 l 1,9,-1
 36 4 l 1,10,-1
 36 16 l 1,11,-1
 40 16 l 1,8,-1
24 16 m 1,12,-1
 20 16 l 1,13,-1
 20 32 l 1,14,-1
 24 32 l 1,15,-1
 24 16 l 1,12,-1
24 16 m 1,16,-1
 28 16 l 1,17,-1
 28 4 l 1,18,-1
 24 4 l 1,19,-1
 24 16 l 1,16,-1
20 16 m 1,20,-1
 20 4 l 1,21,-1
 16 4 l 1,22,-1
 16 16 l 1,23,-1
 20 16 l 1,20,-1
4 16 m 1,24,-1
 8 16 l 1,25,-1
 8 4 l 1,26,-1
 4 4 l 1,27,-1
 4 16 l 1,24,-1
36 4 m 1,28,-1
 36 0 l 1,29,-1
 28 0 l 1,30,-1
 28 4 l 1,31,-1
 36 4 l 1,28,-1
16 4 m 1,32,-1
 16 0 l 1,33,-1
 8 0 l 1,34,-1
 8 4 l 1,35,-1
 16 4 l 1,32,-1
EndSplineSet
Validated: 5
EndChar

StartChar: x
Encoding: 120 120 91
Width: 36
GlyphClass: 2
Flags: W
LayerCount: 2
Fore
SplineSet
0 32 m 1,0,-1
 0 40 l 1,1,-1
 4 40 l 1,2,3
 4 36 4 36 4 32 c 1,4,-1
 0 32 l 1,0,-1
0 0 m 1,5,-1
 0 8 l 1,6,-1
 4 8 l 1,7,-1
 4 16 l 1,8,-1
 8 16 l 1,9,-1
 8 20 l 1,10,-1
 12 20 l 1,11,-1
 12 24 l 1,12,-1
 8 24 l 1,13,-1
 8 28 l 1,14,-1
 4 28 l 1,15,-1
 4 32 l 1,16,-1
 8 32 l 1,17,-1
 8 28 l 1,18,-1
 12 28 l 1,19,20
 12 26 12 26 12 24 c 1,21,-1
 16 24 l 1,22,-1
 16 28 l 1,23,-1
 20 28 l 1,24,-1
 20 32 l 1,25,-1
 24 32 l 1,26,-1
 24 40 l 1,27,-1
 28 40 l 1,28,29
 28 36 28 36 28 32 c 1,30,-1
 24 32 l 1,31,-1
 24 28 l 1,32,-1
 20 28 l 1,33,34
 20 26 20 26 20 24 c 1,35,-1
 16 24 l 1,36,-1
 16 20 l 1,37,-1
 12 20 l 1,38,-1
 12 16 l 1,39,-1
 8 16 l 1,40,-1
 8 8 l 1,41,-1
 4 8 l 1,42,-1
 4 0 l 1,43,-1
 0 0 l 1,5,-1
16 20 m 1,44,-1
 20 20 l 1,45,-1
 20 16 l 1,46,-1
 16 16 l 1,47,-1
 16 20 l 1,44,-1
20 16 m 1,48,-1
 24 16 l 1,49,-1
 24 8 l 1,50,-1
 20 8 l 1,51,-1
 20 16 l 1,48,-1
24 8 m 1,52,-1
 28 8 l 1,53,-1
 28 0 l 1,54,-1
 24 0 l 1,55,-1
 24 8 l 1,52,-1
EndSplineSet
Validated: 5
EndChar

StartChar: y
Encoding: 121 121 92
Width: 36
GlyphClass: 2
Flags: W
LayerCount: 2
Fore
SplineSet
0 28 m 1,0,-1
 0 40 l 1,1,-1
 4 40 l 1,2,3
 4 34 4 34 4 28 c 1,4,-1
 0 28 l 1,0,-1
0 -8 m 1,5,-1
 0 -4 l 1,6,-1
 4 -4 l 1,7,-1
 4 -8 l 1,8,-1
 0 -8 l 1,5,-1
4 28 m 1,9,-1
 8 28 l 1,10,-1
 8 16 l 1,11,-1
 4 16 l 1,12,13
 4 22 4 22 4 28 c 1,9,-1
12 -8 m 1,14,-1
 12 8 l 1,15,16
 14 8 14 8 16 8 c 1,17,-1
 16 -8 l 1,18,19
 14 -8 14 -8 12 -8 c 1,14,-1
12 -8 m 1,20,-1
 12 -12 l 1,21,22
 8 -12 8 -12 4 -12 c 1,23,-1
 4 -8 l 1,24,25
 8 -8 8 -8 12 -8 c 1,20,-1
24 28 m 1,26,-1
 24 40 l 1,27,-1
 28 40 l 1,28,-1
 28 28 l 1,29,-1
 24 28 l 1,26,-1
24 28 m 1,30,-1
 24 16 l 1,31,-1
 20 16 l 1,32,33
 20 22 20 22 20 28 c 1,34,-1
 24 28 l 1,30,-1
12 8 m 1,35,-1
 8 8 l 1,36,-1
 8 16 l 1,37,-1
 12 16 l 1,38,39
 12 12 12 12 12 8 c 1,35,-1
20 16 m 1,40,41
 20 12 20 12 20 8 c 1,42,43
 18 8 18 8 16 8 c 1,44,-1
 16 16 l 1,45,-1
 20 16 l 1,40,41
EndSplineSet
Validated: 5
EndChar

StartChar: z
Encoding: 122 122 93
Width: 36
GlyphClass: 2
Flags: W
LayerCount: 2
Fore
SplineSet
0 0 m 1,0,-1
 0 12 l 1,1,-1
 4 12 l 1,2,-1
 4 16 l 1,3,-1
 8 16 l 1,4,-1
 8 20 l 1,5,-1
 12 20 l 1,6,-1
 12 24 l 1,7,-1
 16 24 l 1,8,-1
 16 28 l 1,9,-1
 20 28 l 1,10,-1
 20 32 l 1,11,-1
 24 32 l 1,12,-1
 24 36 l 1,13,-1
 0 36 l 1,14,-1
 0 40 l 1,15,-1
 28 40 l 1,16,-1
 28 32 l 1,17,-1
 24 32 l 1,18,-1
 24 28 l 1,19,-1
 20 28 l 1,20,-1
 20 24 l 1,21,-1
 16 24 l 1,22,-1
 16 20 l 1,23,-1
 12 20 l 1,24,-1
 12 16 l 1,25,-1
 8 16 l 1,26,-1
 8 12 l 1,27,-1
 4 12 l 1,28,-1
 4 4 l 1,29,-1
 28 4 l 1,30,-1
 28 0 l 1,31,-1
 0 0 l 1,0,-1
EndSplineSet
Validated: 5
EndChar

StartChar: braceleft
Encoding: 123 123 94
Width: 24
GlyphClass: 2
Flags: W
LayerCount: 2
Fore
SplineSet
0 24 m 1,0,-1
 0 28 l 1,1,-1
 4 28 l 1,2,-1
 4 48 l 1,3,-1
 8 48 l 1,4,-1
 8 52 l 1,5,-1
 16 52 l 1,6,-1
 16 48 l 1,7,-1
 8 48 l 1,8,-1
 8 28 l 1,9,-1
 4 28 l 1,10,-1
 4 24 l 1,11,-1
 0 24 l 1,0,-1
4 24 m 1,12,-1
 8 24 l 1,13,-1
 8 4 l 1,14,-1
 4 4 l 1,15,-1
 4 24 l 1,12,-1
8 4 m 1,16,-1
 16 4 l 1,17,-1
 16 0 l 1,18,-1
 8 0 l 1,19,-1
 8 4 l 1,16,-1
EndSplineSet
Validated: 5
EndChar

StartChar: bar
Encoding: 124 124 95
Width: 12
GlyphClass: 2
Flags: W
LayerCount: 2
Fore
SplineSet
0 0 m 1,0,-1
 0 52 l 1,1,-1
 4 52 l 1,2,-1
 4 0 l 1,3,-1
 0 0 l 1,0,-1
EndSplineSet
Validated: 1
EndChar

StartChar: braceright
Encoding: 125 125 96
Width: 24
GlyphClass: 2
Flags: W
LayerCount: 2
Fore
SplineSet
0 48 m 1,0,-1
 0 52 l 1,1,-1
 8 52 l 1,2,-1
 8 48 l 1,3,-1
 0 48 l 1,0,-1
0 0 m 1,4,-1
 0 4 l 1,5,-1
 8 4 l 1,6,-1
 8 24 l 1,7,-1
 12 24 l 1,8,-1
 12 28 l 1,9,-1
 8 28 l 1,10,-1
 8 48 l 1,11,-1
 12 48 l 1,12,-1
 12 28 l 1,13,-1
 16 28 l 1,14,-1
 16 24 l 1,15,-1
 12 24 l 1,16,-1
 12 4 l 1,17,-1
 8 4 l 1,18,-1
 8 0 l 1,19,-1
 0 0 l 1,4,-1
EndSplineSet
Validated: 5
EndChar

StartChar: asciitilde
Encoding: 126 126 97
Width: 40
GlyphClass: 2
Flags: W
LayerCount: 2
Fore
SplineSet
0 20 m 1,0,-1
 0 24 l 1,1,-1
 4 24 l 1,2,-1
 4 28 l 1,3,-1
 8 28 l 1,4,-1
 8 32 l 1,5,-1
 16 32 l 1,6,-1
 16 28 l 1,7,-1
 8 28 l 1,8,-1
 8 24 l 1,9,-1
 4 24 l 1,10,-1
 4 20 l 1,11,-1
 0 20 l 1,0,-1
16 28 m 1,12,-1
 20 28 l 1,13,-1
 20 24 l 1,14,-1
 16 24 l 1,15,-1
 16 28 l 1,12,-1
28 24 m 1,16,-1
 28 32 l 1,17,-1
 32 32 l 1,18,-1
 32 24 l 1,19,-1
 28 24 l 1,16,-1
28 24 m 1,20,-1
 28 20 l 1,21,-1
 20 20 l 1,22,-1
 20 24 l 1,23,-1
 28 24 l 1,20,-1
EndSplineSet
Validated: 5
EndChar

StartChar: exclamdown
Encoding: 161 161 98
Width: 12
GlyphClass: 2
Flags: W
LayerCount: 2
Fore
SplineSet
0 32 m 1,0,-1
 0 40 l 1,1,-1
 4 40 l 1,2,-1
 4 32 l 1,3,-1
 0 32 l 1,0,-1
0 -12 m 1,4,-1
 0 24 l 1,5,-1
 4 24 l 1,6,-1
 4 -12 l 1,7,-1
 0 -12 l 1,4,-1
EndSplineSet
Validated: 1
EndChar

StartChar: cent
Encoding: 162 162 99
Width: 36
GlyphClass: 2
Flags: W
LayerCount: 2
Fore
SplineSet
12 0 m 1,0,-1
 12 8 l 1,1,-1
 8 8 l 1,2,-1
 8 12 l 1,3,-1
 12 12 l 1,4,-1
 12 40 l 1,5,-1
 8 40 l 1,6,-1
 8 44 l 1,7,-1
 12 44 l 1,8,-1
 12 52 l 1,9,-1
 16 52 l 1,10,-1
 16 44 l 1,11,12
 20 44 20 44 24 44 c 1,13,-1
 24 40 l 1,14,15
 20 40 20 40 16 40 c 1,16,-1
 16 12 l 1,17,18
 20 12 20 12 24 12 c 1,19,-1
 24 8 l 1,20,21
 20 8 20 8 16 8 c 1,22,-1
 16 0 l 1,23,-1
 12 0 l 1,0,-1
0 16 m 1,24,-1
 0 36 l 1,25,-1
 4 36 l 1,26,-1
 4 40 l 1,27,-1
 8 40 l 1,28,-1
 8 36 l 1,29,-1
 4 36 l 1,30,-1
 4 16 l 1,31,-1
 0 16 l 1,24,-1
24 40 m 1,32,-1
 28 40 l 1,33,-1
 28 36 l 1,34,-1
 24 36 l 1,35,-1
 24 40 l 1,32,-1
24 12 m 1,36,-1
 24 16 l 1,37,-1
 28 16 l 1,38,-1
 28 12 l 1,39,-1
 24 12 l 1,36,-1
8 12 m 1,40,-1
 4 12 l 1,41,-1
 4 16 l 1,42,-1
 8 16 l 1,43,-1
 8 12 l 1,40,-1
EndSplineSet
Validated: 5
EndChar

StartChar: sterling
Encoding: 163 163 100
Width: 36
GlyphClass: 2
Flags: W
LayerCount: 2
Fore
SplineSet
0 0 m 1,0,-1
 0 4 l 1,1,-1
 4 4 l 1,2,-1
 4 20 l 1,3,-1
 0 20 l 1,4,-1
 0 24 l 1,5,-1
 4 24 l 1,6,-1
 4 40 l 1,7,-1
 8 40 l 1,8,-1
 8 44 l 1,9,-1
 12 44 l 1,10,-1
 12 48 l 1,11,12
 18 48 18 48 24 48 c 1,13,-1
 24 44 l 1,14,15
 18 44 18 44 12 44 c 1,16,-1
 12 40 l 1,17,-1
 8 40 l 1,18,-1
 8 24 l 1,19,-1
 20 24 l 1,20,-1
 20 20 l 1,21,-1
 8 20 l 1,22,-1
 8 8 l 1,23,-1
 16 8 l 1,24,-1
 16 4 l 1,25,-1
 4 4 l 1,26,-1
 4 0 l 1,27,-1
 0 0 l 1,0,-1
24 44 m 1,28,-1
 28 44 l 1,29,-1
 28 40 l 1,30,-1
 24 40 l 1,31,-1
 24 44 l 1,28,-1
24 4 m 1,32,-1
 24 8 l 1,33,-1
 28 8 l 1,34,-1
 28 4 l 1,35,-1
 24 4 l 1,32,-1
24 4 m 1,36,-1
 24 0 l 1,37,-1
 16 0 l 1,38,-1
 16 4 l 1,39,-1
 24 4 l 1,36,-1
EndSplineSet
Validated: 5
EndChar

StartChar: yen
Encoding: 165 165 101
Width: 36
GlyphClass: 2
Flags: W
LayerCount: 2
Fore
SplineSet
0 36 m 1,0,-1
 0 44 l 1,1,-1
 4 44 l 1,2,-1
 4 36 l 1,3,-1
 0 36 l 1,0,-1
12 0 m 1,4,-1
 12 8 l 1,5,-1
 4 8 l 1,6,-1
 4 12 l 1,7,-1
 12 12 l 1,8,-1
 12 16 l 1,9,-1
 4 16 l 1,10,-1
 4 20 l 1,11,-1
 8 20 l 1,12,-1
 8 28 l 1,13,-1
 4 28 l 1,14,-1
 4 36 l 1,15,-1
 8 36 l 1,16,-1
 8 28 l 1,17,-1
 12 28 l 1,18,-1
 12 24 l 1,19,-1
 16 24 l 1,20,-1
 16 28 l 1,21,-1
 20 28 l 1,22,-1
 20 36 l 1,23,-1
 24 36 l 1,24,-1
 24 44 l 1,25,-1
 28 44 l 1,26,-1
 28 36 l 1,27,-1
 24 36 l 1,28,-1
 24 28 l 1,29,-1
 20 28 l 1,30,-1
 20 20 l 1,31,-1
 24 20 l 1,32,-1
 24 16 l 1,33,-1
 16 16 l 1,34,-1
 16 12 l 1,35,-1
 24 12 l 1,36,-1
 24 8 l 1,37,-1
 16 8 l 1,38,-1
 16 0 l 1,39,-1
 12 0 l 1,4,-1
EndSplineSet
Validated: 5
EndChar

StartChar: brokenbar
Encoding: 166 166 102
Width: 12
GlyphClass: 2
Flags: W
LayerCount: 2
Fore
SplineSet
0 32 m 1,0,-1
 0 52 l 1,1,-1
 4 52 l 1,2,-1
 4 32 l 1,3,-1
 0 32 l 1,0,-1
0 0 m 1,4,-1
 0 24 l 1,5,-1
 4 24 l 1,6,-1
 4 0 l 1,7,-1
 0 0 l 1,4,-1
EndSplineSet
Validated: 1
EndChar

StartChar: dieresis
Encoding: 168 168 103
Width: 32
GlyphClass: 2
Flags: W
LayerCount: 2
Fore
SplineSet
20 48 m 1,0,-1
 20 52 l 1,1,-1
 24 52 l 1,2,-1
 24 48 l 1,3,-1
 20 48 l 1,0,-1
4 48 m 1,4,-1
 4 52 l 1,5,-1
 8 52 l 1,6,-1
 8 48 l 1,7,-1
 4 48 l 1,4,-1
EndSplineSet
Validated: 1
EndChar

StartChar: copyright
Encoding: 169 169 104
Width: 40
GlyphClass: 2
Flags: W
LayerCount: 2
Fore
SplineSet
0 8 m 1,0,-1
 0 32 l 1,1,-1
 4 32 l 1,2,-1
 4 36 l 1,3,-1
 8 36 l 1,4,-1
 8 40 l 1,5,-1
 24 40 l 1,6,-1
 24 36 l 1,7,-1
 8 36 l 1,8,-1
 8 32 l 1,9,-1
 4 32 l 1,10,-1
 4 8 l 1,11,-1
 0 8 l 1,0,-1
8 12 m 1,12,-1
 8 28 l 1,13,-1
 12 28 l 1,14,-1
 12 32 l 1,15,-1
 20 32 l 1,16,-1
 20 28 l 1,17,-1
 12 28 l 1,18,-1
 12 12 l 1,19,-1
 8 12 l 1,12,-1
24 36 m 1,20,-1
 28 36 l 1,21,-1
 28 32 l 1,22,-1
 24 32 l 1,23,-1
 24 36 l 1,20,-1
28 32 m 1,24,-1
 32 32 l 1,25,-1
 32 8 l 1,26,-1
 28 8 l 1,27,-1
 28 32 l 1,24,-1
20 28 m 1,28,-1
 24 28 l 1,29,-1
 24 24 l 1,30,-1
 20 24 l 1,31,-1
 20 28 l 1,28,-1
20 12 m 1,32,-1
 20 16 l 1,33,-1
 24 16 l 1,34,-1
 24 12 l 1,35,-1
 20 12 l 1,32,-1
20 12 m 1,36,-1
 20 8 l 1,37,-1
 12 8 l 1,38,-1
 12 12 l 1,39,-1
 20 12 l 1,36,-1
28 8 m 1,40,-1
 28 4 l 1,41,-1
 24 4 l 1,42,-1
 24 8 l 1,43,-1
 28 8 l 1,40,-1
4 8 m 1,44,-1
 8 8 l 1,45,-1
 8 4 l 1,46,-1
 4 4 l 1,47,-1
 4 8 l 1,44,-1
24 4 m 1,48,-1
 24 0 l 1,49,-1
 8 0 l 1,50,-1
 8 4 l 1,51,-1
 24 4 l 1,48,-1
EndSplineSet
Validated: 5
EndChar

StartChar: guillemotleft
Encoding: 171 171 105
Width: 36
GlyphClass: 2
Flags: W
LayerCount: 2
Fore
SplineSet
16 24 m 1,0,-1
 16 32 l 1,1,-1
 20 32 l 1,2,-1
 20 36 l 1,3,-1
 24 36 l 1,4,-1
 24 40 l 1,5,-1
 28 40 l 1,6,-1
 28 36 l 1,7,-1
 24 36 l 1,8,-1
 24 32 l 1,9,-1
 20 32 l 1,10,-1
 20 24 l 1,11,-1
 16 24 l 1,0,-1
0 24 m 1,12,-1
 0 32 l 1,13,-1
 4 32 l 1,14,-1
 4 36 l 1,15,-1
 8 36 l 1,16,-1
 8 40 l 1,17,-1
 12 40 l 1,18,-1
 12 36 l 1,19,-1
 8 36 l 1,20,-1
 8 32 l 1,21,-1
 4 32 l 1,22,-1
 4 24 l 1,23,-1
 0 24 l 1,12,-1
20 24 m 1,24,-1
 24 24 l 1,25,-1
 24 20 l 1,26,-1
 20 20 l 1,27,-1
 20 24 l 1,24,-1
4 24 m 1,28,-1
 8 24 l 1,29,-1
 8 20 l 1,30,-1
 4 20 l 1,31,-1
 4 24 l 1,28,-1
24 20 m 1,32,-1
 28 20 l 1,33,-1
 28 16 l 1,34,-1
 24 16 l 1,35,-1
 24 20 l 1,32,-1
8 20 m 1,36,-1
 12 20 l 1,37,-1
 12 16 l 1,38,-1
 8 16 l 1,39,-1
 8 20 l 1,36,-1
EndSplineSet
Validated: 5
EndChar

StartChar: logicalnot
Encoding: 172 172 106
Width: 28
GlyphClass: 2
Flags: W
LayerCount: 2
Fore
SplineSet
16 16 m 1,0,-1
 16 24 l 1,1,-1
 0 24 l 1,2,-1
 0 28 l 1,3,-1
 20 28 l 1,4,-1
 20 16 l 1,5,-1
 16 16 l 1,0,-1
EndSplineSet
Validated: 1
EndChar

StartChar: uni00ad
Encoding: 173 173 107
Width: 20
GlyphClass: 2
Flags: W
LayerCount: 2
Fore
SplineSet
0 12 m 1,0,-1
 0 16 l 1,1,-1
 12 16 l 1,2,-1
 12 12 l 1,3,-1
 0 12 l 1,0,-1
EndSplineSet
Validated: 1
EndChar

StartChar: registered
Encoding: 174 174 108
Width: 40
GlyphClass: 2
Flags: W
LayerCount: 2
Fore
SplineSet
0 8 m 1,0,-1
 0 32 l 1,1,-1
 4 32 l 1,2,-1
 4 36 l 1,3,-1
 8 36 l 1,4,-1
 8 40 l 1,5,-1
 24 40 l 1,6,-1
 24 36 l 1,7,-1
 8 36 l 1,8,-1
 8 32 l 1,9,-1
 4 32 l 1,10,-1
 4 8 l 1,11,-1
 0 8 l 1,0,-1
8 12 m 1,12,-1
 8 28 l 1,13,-1
 12 28 l 1,14,-1
 12 32 l 1,15,-1
 20 32 l 1,16,-1
 20 28 l 1,17,-1
 12 28 l 1,18,-1
 12 24 l 1,19,-1
 20 24 l 1,20,-1
 20 28 l 1,21,-1
 24 28 l 1,22,-1
 24 24 l 1,23,-1
 20 24 l 1,24,-1
 20 20 l 1,25,-1
 12 20 l 1,26,-1
 12 12 l 1,27,-1
 8 12 l 1,12,-1
24 36 m 1,28,-1
 28 36 l 1,29,-1
 28 32 l 1,30,-1
 24 32 l 1,31,-1
 24 36 l 1,28,-1
28 32 m 1,32,-1
 32 32 l 1,33,-1
 32 8 l 1,34,-1
 28 8 l 1,35,-1
 28 32 l 1,32,-1
20 20 m 1,36,-1
 24 20 l 1,37,-1
 24 12 l 1,38,-1
 20 12 l 1,39,-1
 20 20 l 1,36,-1
28 8 m 1,40,-1
 28 4 l 1,41,-1
 24 4 l 1,42,-1
 24 8 l 1,43,-1
 28 8 l 1,40,-1
4 8 m 1,44,-1
 8 8 l 1,45,-1
 8 4 l 1,46,-1
 4 4 l 1,47,-1
 4 8 l 1,44,-1
24 4 m 1,48,-1
 24 0 l 1,49,-1
 8 0 l 1,50,-1
 8 4 l 1,51,-1
 24 4 l 1,48,-1
EndSplineSet
Validated: 5
EndChar

StartChar: degree
Encoding: 176 176 109
Width: 20
GlyphClass: 2
Flags: W
LayerCount: 2
Fore
SplineSet
0 44 m 1,0,-1
 0 48 l 1,1,-1
 4 48 l 1,2,-1
 4 52 l 1,3,-1
 8 52 l 1,4,-1
 8 48 l 1,5,-1
 4 48 l 1,6,-1
 4 44 l 1,7,-1
 0 44 l 1,0,-1
8 48 m 1,8,-1
 12 48 l 1,9,-1
 12 44 l 1,10,-1
 8 44 l 1,11,-1
 8 48 l 1,8,-1
8 44 m 1,12,-1
 8 40 l 1,13,-1
 4 40 l 1,14,-1
 4 44 l 1,15,-1
 8 44 l 1,12,-1
EndSplineSet
Validated: 5
EndChar

StartChar: plusminus
Encoding: 177 177 110
Width: 28
GlyphClass: 2
Flags: W
LayerCount: 2
Fore
SplineSet
8 20 m 1,0,-1
 8 28 l 1,1,-1
 0 28 l 1,2,-1
 0 32 l 1,3,-1
 8 32 l 1,4,-1
 8 40 l 1,5,-1
 12 40 l 1,6,-1
 12 32 l 1,7,-1
 20 32 l 1,8,-1
 20 28 l 1,9,-1
 12 28 l 1,10,-1
 12 20 l 1,11,-1
 8 20 l 1,0,-1
0 12 m 1,12,-1
 0 16 l 1,13,14
 10 16 10 16 20 16 c 1,15,-1
 20 12 l 1,16,-1
 0 12 l 1,12,-1
EndSplineSet
Validated: 1
EndChar

StartChar: acute
Encoding: 180 180 111
Width: 32
GlyphClass: 2
Flags: W
LayerCount: 2
Fore
SplineSet
12 44 m 1,0,-1
 12 48 l 1,1,-1
 16 48 l 1,2,-1
 16 52 l 1,3,-1
 20 52 l 1,4,-1
 20 56 l 1,5,-1
 24 56 l 1,6,-1
 24 52 l 1,7,-1
 20 52 l 1,8,-1
 20 48 l 1,9,-1
 16 48 l 1,10,-1
 16 44 l 1,11,-1
 12 44 l 1,0,-1
EndSplineSet
Validated: 5
EndChar

StartChar: mu
Encoding: 181 181 112
Width: 40
GlyphClass: 2
Flags: W
LayerCount: 2
Fore
SplineSet
24 0 m 1,0,-1
 24 4 l 1,1,-1
 20 4 l 1,2,-1
 20 8 l 1,3,-1
 24 8 l 1,4,-1
 24 40 l 1,5,-1
 28 40 l 1,6,-1
 28 4 l 1,7,-1
 32 4 l 1,8,-1
 32 0 l 1,9,-1
 24 0 l 1,0,-1
0 -12 m 1,10,-1
 0 40 l 1,11,-1
 4 40 l 1,12,-1
 4 8 l 1,13,-1
 8 8 l 1,14,-1
 8 4 l 1,15,-1
 4 4 l 1,16,-1
 4 -12 l 1,17,-1
 0 -12 l 1,10,-1
20 4 m 1,18,-1
 20 0 l 1,19,-1
 8 0 l 1,20,-1
 8 4 l 1,21,-1
 20 4 l 1,18,-1
EndSplineSet
Validated: 5
EndChar

StartChar: paragraph
Encoding: 182 182 113
Width: 36
GlyphClass: 2
Flags: W
LayerCount: 2
Fore
SplineSet
16 0 m 1,0,-1
 16 28 l 1,1,-1
 8 28 l 1,2,-1
 8 32 l 1,3,-1
 4 32 l 1,4,-1
 4 36 l 1,5,-1
 0 36 l 1,6,-1
 0 44 l 1,7,-1
 4 44 l 1,8,-1
 4 48 l 1,9,-1
 8 48 l 1,10,-1
 8 52 l 1,11,-1
 28 52 l 1,12,-1
 28 0 l 1,13,-1
 24 0 l 1,14,-1
 24 48 l 1,15,-1
 20 48 l 1,16,-1
 20 0 l 1,17,-1
 16 0 l 1,0,-1
EndSplineSet
Validated: 1
EndChar

StartChar: periodcentered
Encoding: 183 183 114
Width: 12
GlyphClass: 2
Flags: W
LayerCount: 2
Fore
SplineSet
0 20 m 1,0,-1
 0 24 l 1,1,-1
 4 24 l 1,2,-1
 4 20 l 1,3,-1
 0 20 l 1,0,-1
EndSplineSet
Validated: 1
EndChar

StartChar: cedilla
Encoding: 184 184 115
Width: 20
GlyphClass: 2
Flags: W
LayerCount: 2
Fore
SplineSet
4 -4 m 1,0,-1
 4 0 l 1,1,-1
 8 0 l 1,2,-1
 8 -4 l 1,3,-1
 4 -4 l 1,0,-1
0 -12 m 1,4,-1
 0 -8 l 1,5,6
 4 -8 4 -8 8 -8 c 1,7,-1
 8 -4 l 1,8,-1
 12 -4 l 1,9,-1
 12 -8 l 1,10,-1
 8 -8 l 1,11,-1
 8 -12 l 1,12,-1
 0 -12 l 1,4,-1
EndSplineSet
Validated: 5
EndChar

StartChar: guillemotright
Encoding: 187 187 116
Width: 36
GlyphClass: 2
Flags: W
LayerCount: 2
Fore
SplineSet
16 36 m 1,0,-1
 16 40 l 1,1,-1
 20 40 l 1,2,-1
 20 36 l 1,3,-1
 16 36 l 1,0,-1
0 36 m 1,4,-1
 0 40 l 1,5,-1
 4 40 l 1,6,-1
 4 36 l 1,7,-1
 0 36 l 1,4,-1
16 16 m 1,8,-1
 16 20 l 1,9,-1
 20 20 l 1,10,-1
 20 24 l 1,11,-1
 24 24 l 1,12,-1
 24 32 l 1,13,-1
 20 32 l 1,14,-1
 20 36 l 1,15,-1
 24 36 l 1,16,-1
 24 32 l 1,17,-1
 28 32 l 1,18,-1
 28 24 l 1,19,-1
 24 24 l 1,20,-1
 24 20 l 1,21,-1
 20 20 l 1,22,-1
 20 16 l 1,23,-1
 16 16 l 1,8,-1
0 16 m 1,24,-1
 0 20 l 1,25,-1
 4 20 l 1,26,-1
 4 24 l 1,27,-1
 8 24 l 1,28,-1
 8 32 l 1,29,-1
 4 32 l 1,30,-1
 4 36 l 1,31,-1
 8 36 l 1,32,-1
 8 32 l 1,33,-1
 12 32 l 1,34,-1
 12 24 l 1,35,-1
 8 24 l 1,36,-1
 8 20 l 1,37,-1
 4 20 l 1,38,-1
 4 16 l 1,39,-1
 0 16 l 1,24,-1
EndSplineSet
Validated: 5
EndChar

StartChar: questiondown
Encoding: 191 191 117
Width: 36
GlyphClass: 2
Flags: W
LayerCount: 2
Fore
SplineSet
12 32 m 1,0,-1
 12 40 l 1,1,-1
 16 40 l 1,2,-1
 16 32 l 1,3,-1
 12 32 l 1,0,-1
0 -4 m 1,4,-1
 0 8 l 1,5,-1
 4 8 l 1,6,-1
 4 12 l 1,7,-1
 8 12 l 1,8,-1
 8 16 l 1,9,-1
 12 16 l 1,10,-1
 12 24 l 1,11,-1
 16 24 l 1,12,-1
 16 16 l 1,13,-1
 12 16 l 1,14,-1
 12 12 l 1,15,-1
 8 12 l 1,16,-1
 8 8 l 1,17,-1
 4 8 l 1,18,-1
 4 -4 l 1,19,-1
 0 -4 l 1,4,-1
4 -4 m 1,20,-1
 8 -4 l 1,21,-1
 8 -8 l 1,22,-1
 4 -8 l 1,23,-1
 4 -4 l 1,20,-1
24 -8 m 1,24,-1
 24 -4 l 1,25,-1
 28 -4 l 1,26,-1
 28 -8 l 1,27,-1
 24 -8 l 1,24,-1
24 -8 m 1,28,-1
 24 -12 l 1,29,30
 16 -12 16 -12 8 -12 c 1,31,-1
 8 -8 l 1,32,33
 16 -8 16 -8 24 -8 c 1,28,-1
EndSplineSet
Validated: 5
EndChar

StartChar: Agrave
Encoding: 192 192 118
Width: 36
GlyphClass: 2
Flags: W
LayerCount: 2
Fore
SplineSet
20 40 m 1029,0,-1
12 40 m 1029,1,-1
4 64 m 1,2,-1
 4 68 l 1,3,-1
 8 68 l 1,4,-1
 8 64 l 1,5,-1
 4 64 l 1,2,-1
0 0 m 1,6,7
 0 16 0 16 0 32 c 1,8,-1
 4 32 l 1,9,-1
 4 40 l 1,10,-1
 8 40 l 1,11,-1
 8 32 l 1,12,-1
 4 32 l 1,13,-1
 4 24 l 1,14,-1
 24 24 l 1,15,-1
 24 32 l 1,16,-1
 20 32 l 1,17,-1
 20 40 l 1,18,19
 22 40 22 40 24 40 c 1,20,-1
 24 32 l 1,21,22
 26 32 26 32 28 32 c 1,23,24
 28 16 28 16 28 0 c 1,25,-1
 24 0 l 1,26,-1
 24 20 l 1,27,-1
 4 20 l 1,28,-1
 4 0 l 1,29,-1
 0 0 l 1,6,7
8 64 m 1,30,-1
 12 64 l 1,31,-1
 12 60 l 1,32,-1
 8 60 l 1,33,-1
 8 64 l 1,30,-1
12 60 m 1,34,-1
 16 60 l 1,35,-1
 16 56 l 1,36,-1
 12 56 l 1,37,-1
 12 60 l 1,34,-1
20 40 m 1,38,-1
 16 40 l 1,39,-1
 16 48 l 1,40,41
 14 48 14 48 12 48 c 1,42,-1
 12 52 l 1,43,44
 14 52 14 52 16 52 c 1,45,46
 16 50 16 50 16 48 c 1,47,48
 18 48 18 48 20 48 c 1,49,-1
 20 40 l 1,38,-1
12 48 m 1,50,-1
 12 40 l 1,51,-1
 8 40 l 1,52,-1
 8 48 l 1,53,54
 10 48 10 48 12 48 c 1,50,-1
EndSplineSet
Validated: 5
EndChar

StartChar: Aacute
Encoding: 193 193 119
Width: 36
GlyphClass: 2
Flags: W
LayerCount: 2
Fore
SplineSet
20 40 m 1029,0,-1
12 40 m 1029,1,-1
12 56 m 1,2,-1
 12 60 l 1,3,-1
 16 60 l 1,4,-1
 16 64 l 1,5,-1
 20 64 l 1,6,-1
 20 68 l 1,7,-1
 24 68 l 1,8,-1
 24 64 l 1,9,-1
 20 64 l 1,10,-1
 20 60 l 1,11,-1
 16 60 l 1,12,-1
 16 56 l 1,13,-1
 12 56 l 1,2,-1
0 0 m 1,14,15
 0 16 0 16 0 32 c 1,16,-1
 4 32 l 1,17,-1
 4 40 l 1,18,-1
 8 40 l 1,19,-1
 8 32 l 1,20,-1
 4 32 l 1,21,-1
 4 24 l 1,22,-1
 24 24 l 1,23,-1
 24 32 l 1,24,-1
 20 32 l 1,25,-1
 20 40 l 1,26,27
 22 40 22 40 24 40 c 1,28,-1
 24 32 l 1,29,30
 26 32 26 32 28 32 c 1,31,32
 28 16 28 16 28 0 c 1,33,-1
 24 0 l 1,34,-1
 24 20 l 1,35,-1
 4 20 l 1,36,-1
 4 0 l 1,37,-1
 0 0 l 1,14,15
20 40 m 1,38,-1
 16 40 l 1,39,-1
 16 48 l 1,40,41
 14 48 14 48 12 48 c 1,42,-1
 12 52 l 1,43,44
 14 52 14 52 16 52 c 1,45,46
 16 50 16 50 16 48 c 1,47,48
 18 48 18 48 20 48 c 1,49,-1
 20 40 l 1,38,-1
12 48 m 1,50,-1
 12 40 l 1,51,-1
 8 40 l 1,52,-1
 8 48 l 1,53,54
 10 48 10 48 12 48 c 1,50,-1
EndSplineSet
Validated: 5
EndChar

StartChar: Acircumflex
Encoding: 194 194 120
Width: 36
GlyphClass: 2
Flags: W
LayerCount: 2
Fore
SplineSet
20 40 m 1029,0,-1
12 40 m 1029,1,-1
4 56 m 1,2,-1
 4 60 l 1,3,-1
 8 60 l 1,4,-1
 8 64 l 1,5,-1
 12 64 l 1,6,-1
 12 68 l 1,7,-1
 16 68 l 1,8,-1
 16 64 l 1,9,-1
 12 64 l 1,10,-1
 12 60 l 1,11,-1
 8 60 l 1,12,-1
 8 56 l 1,13,-1
 4 56 l 1,2,-1
0 0 m 1,14,15
 0 16 0 16 0 32 c 1,16,-1
 4 32 l 1,17,-1
 4 40 l 1,18,-1
 8 40 l 1,19,-1
 8 32 l 1,20,-1
 4 32 l 1,21,-1
 4 24 l 1,22,-1
 24 24 l 1,23,-1
 24 32 l 1,24,-1
 20 32 l 1,25,-1
 20 40 l 1,26,27
 22 40 22 40 24 40 c 1,28,-1
 24 32 l 1,29,30
 26 32 26 32 28 32 c 1,31,32
 28 16 28 16 28 0 c 1,33,-1
 24 0 l 1,34,-1
 24 20 l 1,35,-1
 4 20 l 1,36,-1
 4 0 l 1,37,-1
 0 0 l 1,14,15
16 64 m 1,38,-1
 20 64 l 1,39,-1
 20 60 l 1,40,-1
 16 60 l 1,41,-1
 16 64 l 1,38,-1
20 60 m 1,42,-1
 24 60 l 1,43,-1
 24 56 l 1,44,-1
 20 56 l 1,45,-1
 20 60 l 1,42,-1
20 40 m 1,46,-1
 16 40 l 1,47,-1
 16 48 l 1,48,49
 14 48 14 48 12 48 c 1,50,-1
 12 52 l 1,51,52
 14 52 14 52 16 52 c 1,53,54
 16 50 16 50 16 48 c 1,55,56
 18 48 18 48 20 48 c 1,57,-1
 20 40 l 1,46,-1
12 48 m 1,58,-1
 12 40 l 1,59,-1
 8 40 l 1,60,-1
 8 48 l 1,61,62
 10 48 10 48 12 48 c 1,58,-1
EndSplineSet
Validated: 5
EndChar

StartChar: Atilde
Encoding: 195 195 121
Width: 36
GlyphClass: 2
Flags: W
LayerCount: 2
Fore
SplineSet
20 40 m 1029,0,-1
12 40 m 1029,1,-1
0 56 m 1,2,-1
 0 60 l 1,3,-1
 4 60 l 1,4,-1
 4 64 l 1,5,-1
 8 64 l 1,6,-1
 8 68 l 1,7,-1
 16 68 l 1,8,-1
 16 64 l 1,9,-1
 8 64 l 1,10,-1
 8 60 l 1,11,-1
 4 60 l 1,12,-1
 4 56 l 1,13,-1
 0 56 l 1,2,-1
0 0 m 1,14,15
 0 16 0 16 0 32 c 1,16,-1
 4 32 l 1,17,-1
 4 40 l 1,18,-1
 8 40 l 1,19,-1
 8 32 l 1,20,-1
 4 32 l 1,21,-1
 4 24 l 1,22,-1
 24 24 l 1,23,-1
 24 32 l 1,24,-1
 20 32 l 1,25,-1
 20 40 l 1,26,27
 22 40 22 40 24 40 c 1,28,-1
 24 32 l 1,29,30
 26 32 26 32 28 32 c 1,31,32
 28 16 28 16 28 0 c 1,33,-1
 24 0 l 1,34,-1
 24 20 l 1,35,-1
 4 20 l 1,36,-1
 4 0 l 1,37,-1
 0 0 l 1,14,15
16 64 m 1,38,-1
 20 64 l 1,39,-1
 20 60 l 1,40,-1
 16 60 l 1,41,-1
 16 64 l 1,38,-1
24 60 m 1,42,-1
 24 68 l 1,43,-1
 28 68 l 1,44,-1
 28 60 l 1,45,-1
 24 60 l 1,42,-1
24 60 m 1,46,-1
 24 56 l 1,47,-1
 20 56 l 1,48,-1
 20 60 l 1,49,-1
 24 60 l 1,46,-1
20 40 m 1,50,-1
 16 40 l 1,51,-1
 16 48 l 1,52,53
 14 48 14 48 12 48 c 1,54,-1
 12 52 l 1,55,56
 14 52 14 52 16 52 c 1,57,58
 16 50 16 50 16 48 c 1,59,60
 18 48 18 48 20 48 c 1,61,-1
 20 40 l 1,50,-1
12 48 m 1,62,-1
 12 40 l 1,63,-1
 8 40 l 1,64,-1
 8 48 l 1,65,66
 10 48 10 48 12 48 c 1,62,-1
EndSplineSet
Validated: 5
EndChar

StartChar: Adieresis
Encoding: 196 196 122
Width: 36
GlyphClass: 2
Flags: W
LayerCount: 2
Fore
SplineSet
20 40 m 1029,0,-1
12 40 m 1029,1,-1
20 56 m 1,2,-1
 20 60 l 1,3,-1
 24 60 l 1,4,-1
 24 56 l 1,5,-1
 20 56 l 1,2,-1
4 56 m 1,6,-1
 4 60 l 1,7,-1
 8 60 l 1,8,-1
 8 56 l 1,9,-1
 4 56 l 1,6,-1
0 0 m 1,10,11
 0 16 0 16 0 32 c 1,12,-1
 4 32 l 1,13,-1
 4 40 l 1,14,-1
 8 40 l 1,15,-1
 8 32 l 1,16,-1
 4 32 l 1,17,-1
 4 24 l 1,18,-1
 24 24 l 1,19,-1
 24 32 l 1,20,-1
 20 32 l 1,21,-1
 20 40 l 1,22,23
 22 40 22 40 24 40 c 1,24,-1
 24 32 l 1,25,26
 26 32 26 32 28 32 c 1,27,28
 28 16 28 16 28 0 c 1,29,-1
 24 0 l 1,30,-1
 24 20 l 1,31,-1
 4 20 l 1,32,-1
 4 0 l 1,33,-1
 0 0 l 1,10,11
20 40 m 1,34,-1
 16 40 l 1,35,-1
 16 48 l 1,36,37
 14 48 14 48 12 48 c 1,38,-1
 12 52 l 1,39,40
 14 52 14 52 16 52 c 1,41,42
 16 50 16 50 16 48 c 1,43,44
 18 48 18 48 20 48 c 1,45,-1
 20 40 l 1,34,-1
12 48 m 1,46,-1
 12 40 l 1,47,-1
 8 40 l 1,48,-1
 8 48 l 1,49,50
 10 48 10 48 12 48 c 1,46,-1
EndSplineSet
Validated: 5
EndChar

StartChar: Aring
Encoding: 197 197 123
Width: 36
GlyphClass: 2
Flags: W
LayerCount: 2
Fore
SplineSet
20 40 m 1029,0,-1
12 40 m 1029,1,-1
8 60 m 1,2,-1
 8 64 l 1,3,-1
 12 64 l 1,4,-1
 12 68 l 1,5,-1
 16 68 l 1,6,-1
 16 64 l 1,7,-1
 12 64 l 1,8,-1
 12 60 l 1,9,-1
 8 60 l 1,2,-1
0 0 m 1,10,11
 0 16 0 16 0 32 c 1,12,-1
 4 32 l 1,13,-1
 4 40 l 1,14,-1
 8 40 l 1,15,-1
 8 32 l 1,16,-1
 4 32 l 1,17,-1
 4 24 l 1,18,-1
 24 24 l 1,19,-1
 24 32 l 1,20,-1
 20 32 l 1,21,-1
 20 40 l 1,22,23
 22 40 22 40 24 40 c 1,24,-1
 24 32 l 1,25,26
 26 32 26 32 28 32 c 1,27,28
 28 16 28 16 28 0 c 1,29,-1
 24 0 l 1,30,-1
 24 20 l 1,31,-1
 4 20 l 1,32,-1
 4 0 l 1,33,-1
 0 0 l 1,10,11
16 64 m 1,34,-1
 20 64 l 1,35,-1
 20 60 l 1,36,-1
 16 60 l 1,37,-1
 16 64 l 1,34,-1
16 60 m 1,38,-1
 16 56 l 1,39,-1
 12 56 l 1,40,-1
 12 60 l 1,41,-1
 16 60 l 1,38,-1
20 40 m 1,42,-1
 16 40 l 1,43,-1
 16 48 l 1,44,45
 14 48 14 48 12 48 c 1,46,-1
 12 52 l 1,47,48
 14 52 14 52 16 52 c 1,49,50
 16 50 16 50 16 48 c 1,51,52
 18 48 18 48 20 48 c 1,53,-1
 20 40 l 1,42,-1
12 48 m 1,54,-1
 12 40 l 1,55,-1
 8 40 l 1,56,-1
 8 48 l 1,57,58
 10 48 10 48 12 48 c 1,54,-1
EndSplineSet
Validated: 5
EndChar

StartChar: AE
Encoding: 198 198 124
Width: 60
GlyphClass: 2
Flags: W
LayerCount: 2
Fore
SplineSet
0 0 m 1,0,-1
 0 32 l 1,1,-1
 4 32 l 1,2,-1
 4 24 l 1,3,-1
 24 24 l 1,4,-1
 24 48 l 1,5,6
 18 48 18 48 12 48 c 1,7,-1
 12 52 l 1,8,9
 32 52 32 52 52 52 c 1,10,-1
 52 48 l 1,11,-1
 28 48 l 1,12,-1
 28 28 l 1,13,-1
 44 28 l 1,14,-1
 44 24 l 1,15,-1
 28 24 l 1,16,-1
 28 4 l 1,17,-1
 52 4 l 1,18,-1
 52 0 l 1,19,-1
 24 0 l 1,20,-1
 24 20 l 1,21,-1
 4 20 l 1,22,-1
 4 0 l 1,23,-1
 0 0 l 1,0,-1
12 48 m 1,24,-1
 12 40 l 1,25,-1
 8 40 l 1,26,-1
 8 48 l 1,27,-1
 12 48 l 1,24,-1
8 40 m 1,28,-1
 8 32 l 1,29,-1
 4 32 l 1,30,-1
 4 40 l 1,31,-1
 8 40 l 1,28,-1
EndSplineSet
Validated: 5
EndChar

StartChar: Ccedilla
Encoding: 199 199 125
Width: 36
GlyphClass: 2
Flags: W
LayerCount: 2
Fore
SplineSet
0 8 m 1,0,-1
 0 44 l 1,1,-1
 4 44 l 1,2,-1
 4 48 l 1,3,-1
 8 48 l 1,4,-1
 8 52 l 1,5,6
 16 52 16 52 24 52 c 1,7,-1
 24 48 l 1,8,9
 16 48 16 48 8 48 c 1,10,-1
 8 44 l 1,11,-1
 4 44 l 1,12,-1
 4 8 l 1,13,-1
 0 8 l 1,0,-1
12 -4 m 1,14,-1
 12 0 l 1,15,-1
 8 0 l 1,16,-1
 8 4 l 1,17,-1
 4 4 l 1,18,-1
 4 8 l 1,19,-1
 8 8 l 1,20,-1
 8 4 l 1,21,22
 16 4 16 4 24 4 c 1,23,-1
 24 8 l 1,24,-1
 28 8 l 1,25,-1
 28 4 l 1,26,-1
 24 4 l 1,27,-1
 24 0 l 1,28,29
 20 0 20 0 16 0 c 1,30,-1
 16 -4 l 1,31,-1
 12 -4 l 1,14,-1
8 -12 m 1,32,-1
 8 -8 l 1,33,-1
 16 -8 l 1,34,-1
 16 -4 l 1,35,-1
 20 -4 l 1,36,-1
 20 -8 l 1,37,-1
 16 -8 l 1,38,-1
 16 -12 l 1,39,-1
 8 -12 l 1,32,-1
24 48 m 1,40,-1
 28 48 l 1,41,-1
 28 44 l 1,42,-1
 24 44 l 1,43,-1
 24 48 l 1,40,-1
EndSplineSet
Validated: 5
EndChar

StartChar: Egrave
Encoding: 200 200 126
Width: 36
GlyphClass: 2
Flags: W
LayerCount: 2
Fore
SplineSet
4 64 m 1,0,-1
 4 68 l 1,1,-1
 8 68 l 1,2,-1
 8 64 l 1,3,-1
 4 64 l 1,0,-1
0 0 m 1,4,-1
 0 52 l 1,5,6
 14 52 14 52 28 52 c 1,7,-1
 28 48 l 1,8,-1
 4 48 l 1,9,-1
 4 28 l 1,10,-1
 16 28 l 1,11,-1
 16 24 l 1,12,-1
 4 24 l 1,13,-1
 4 4 l 1,14,-1
 28 4 l 1,15,-1
 28 0 l 1,16,-1
 0 0 l 1,4,-1
8 64 m 1,17,-1
 12 64 l 1,18,-1
 12 60 l 1,19,-1
 8 60 l 1,20,-1
 8 64 l 1,17,-1
12 60 m 1,21,-1
 16 60 l 1,22,-1
 16 56 l 1,23,-1
 12 56 l 1,24,-1
 12 60 l 1,21,-1
EndSplineSet
Validated: 5
EndChar

StartChar: Eacute
Encoding: 201 201 127
Width: 36
GlyphClass: 2
Flags: W
LayerCount: 2
Fore
SplineSet
12 56 m 1,0,-1
 12 60 l 1,1,-1
 16 60 l 1,2,-1
 16 64 l 1,3,-1
 20 64 l 1,4,-1
 20 68 l 1,5,-1
 24 68 l 1,6,-1
 24 64 l 1,7,-1
 20 64 l 1,8,-1
 20 60 l 1,9,-1
 16 60 l 1,10,-1
 16 56 l 1,11,-1
 12 56 l 1,0,-1
0 0 m 1,12,-1
 0 52 l 1,13,14
 14 52 14 52 28 52 c 1,15,-1
 28 48 l 1,16,-1
 4 48 l 1,17,-1
 4 28 l 1,18,-1
 20 28 l 1,19,-1
 20 24 l 1,20,-1
 4 24 l 1,21,-1
 4 4 l 1,22,-1
 28 4 l 1,23,-1
 28 0 l 1,24,-1
 0 0 l 1,12,-1
EndSplineSet
Validated: 5
EndChar

StartChar: Ecircumflex
Encoding: 202 202 128
Width: 36
GlyphClass: 2
Flags: W
LayerCount: 2
Fore
SplineSet
4 56 m 1,0,-1
 4 60 l 1,1,-1
 8 60 l 1,2,-1
 8 64 l 1,3,-1
 12 64 l 1,4,-1
 12 68 l 1,5,-1
 16 68 l 1,6,-1
 16 64 l 1,7,-1
 12 64 l 1,8,-1
 12 60 l 1,9,-1
 8 60 l 1,10,-1
 8 56 l 1,11,-1
 4 56 l 1,0,-1
0 0 m 1,12,-1
 0 52 l 1,13,14
 14 52 14 52 28 52 c 1,15,-1
 28 48 l 1,16,-1
 4 48 l 1,17,-1
 4 28 l 1,18,-1
 20 28 l 1,19,-1
 20 24 l 1,20,-1
 4 24 l 1,21,-1
 4 4 l 1,22,-1
 28 4 l 1,23,-1
 28 0 l 1,24,-1
 0 0 l 1,12,-1
16 64 m 1,25,-1
 20 64 l 1,26,-1
 20 60 l 1,27,-1
 16 60 l 1,28,-1
 16 64 l 1,25,-1
20 60 m 1,29,-1
 24 60 l 1,30,-1
 24 56 l 1,31,-1
 20 56 l 1,32,-1
 20 60 l 1,29,-1
EndSplineSet
Validated: 5
EndChar

StartChar: Edieresis
Encoding: 203 203 129
Width: 36
GlyphClass: 2
Flags: W
LayerCount: 2
Fore
SplineSet
20 56 m 1,0,-1
 20 60 l 1,1,-1
 24 60 l 1,2,-1
 24 56 l 1,3,-1
 20 56 l 1,0,-1
4 56 m 1,4,-1
 4 60 l 1,5,-1
 8 60 l 1,6,-1
 8 56 l 1,7,-1
 4 56 l 1,4,-1
0 0 m 1,8,-1
 0 52 l 1,9,10
 14 52 14 52 28 52 c 1,11,-1
 28 48 l 1,12,-1
 4 48 l 1,13,-1
 4 28 l 1,14,-1
 20 28 l 1,15,-1
 20 24 l 1,16,-1
 4 24 l 1,17,-1
 4 4 l 1,18,-1
 28 4 l 1,19,-1
 28 0 l 1,20,-1
 0 0 l 1,8,-1
EndSplineSet
Validated: 1
EndChar

StartChar: Igrave
Encoding: 204 204 130
Width: 12
GlyphClass: 2
Flags: W
LayerCount: 2
Fore
SplineSet
-8 64 m 1,0,-1
 -8 68 l 1,1,-1
 -4 68 l 1,2,-1
 -4 64 l 1,3,-1
 -8 64 l 1,0,-1
0 0 m 1,4,-1
 0 52 l 1,5,-1
 4 52 l 1,6,-1
 4 0 l 1,7,-1
 0 0 l 1,4,-1
-4 64 m 1,8,-1
 0 64 l 1,9,-1
 0 60 l 1,10,-1
 -4 60 l 1,11,-1
 -4 64 l 1,8,-1
0 60 m 1,12,-1
 4 60 l 1,13,-1
 4 56 l 1,14,-1
 0 56 l 1,15,-1
 0 60 l 1,12,-1
EndSplineSet
Validated: 5
EndChar

StartChar: Iacute
Encoding: 205 205 131
Width: 12
GlyphClass: 2
Flags: W
LayerCount: 2
Fore
SplineSet
0 56 m 1,0,-1
 0 60 l 1,1,-1
 4 60 l 1,2,-1
 4 64 l 1,3,-1
 8 64 l 1,4,-1
 8 68 l 1,5,-1
 12 68 l 1,6,-1
 12 64 l 1,7,-1
 8 64 l 1,8,-1
 8 60 l 1,9,-1
 4 60 l 1,10,-1
 4 56 l 1,11,-1
 0 56 l 1,0,-1
0 0 m 1,12,-1
 0 52 l 1,13,-1
 4 52 l 1,14,-1
 4 0 l 1,15,-1
 0 0 l 1,12,-1
EndSplineSet
Validated: 5
EndChar

StartChar: Icircumflex
Encoding: 206 206 132
Width: 12
GlyphClass: 2
Flags: W
LayerCount: 2
Fore
SplineSet
-8 56 m 1,0,-1
 -8 60 l 1,1,-1
 -4 60 l 1,2,-1
 -4 64 l 1,3,-1
 0 64 l 1,4,-1
 0 68 l 1,5,-1
 4 68 l 1,6,-1
 4 64 l 1,7,-1
 0 64 l 1,8,-1
 0 60 l 1,9,-1
 -4 60 l 1,10,-1
 -4 56 l 1,11,-1
 -8 56 l 1,0,-1
0 0 m 1,12,-1
 0 52 l 1,13,-1
 4 52 l 1,14,-1
 4 0 l 1,15,-1
 0 0 l 1,12,-1
4 64 m 1,16,-1
 8 64 l 1,17,-1
 8 60 l 1,18,-1
 4 60 l 1,19,-1
 4 64 l 1,16,-1
8 60 m 1,20,-1
 12 60 l 1,21,-1
 12 56 l 1,22,-1
 8 56 l 1,23,-1
 8 60 l 1,20,-1
EndSplineSet
Validated: 5
EndChar

StartChar: Idieresis
Encoding: 207 207 133
Width: 12
GlyphClass: 2
Flags: W
LayerCount: 2
Fore
SplineSet
8 56 m 1,0,-1
 8 60 l 1,1,-1
 12 60 l 1,2,-1
 12 56 l 1,3,-1
 8 56 l 1,0,-1
-8 56 m 1,4,-1
 -8 60 l 1,5,-1
 -4 60 l 1,6,-1
 -4 56 l 1,7,-1
 -8 56 l 1,4,-1
0 0 m 1,8,-1
 0 52 l 1,9,-1
 4 52 l 1,10,-1
 4 0 l 1,11,-1
 0 0 l 1,8,-1
EndSplineSet
Validated: 1
EndChar

StartChar: Eth
Encoding: 208 208 134
Width: 36
GlyphClass: 2
Flags: W
LayerCount: 2
Fore
SplineSet
0 0 m 1,0,-1
 0 24 l 1,1,-1
 -4 24 l 1,2,-1
 -4 28 l 1,3,-1
 0 28 l 1,4,-1
 0 52 l 1,5,-1
 20 52 l 1,6,-1
 20 48 l 1,7,-1
 4 48 l 1,8,-1
 4 28 l 1,9,-1
 12 28 l 1,10,-1
 12 24 l 1,11,-1
 4 24 l 1,12,-1
 4 4 l 1,13,-1
 20 4 l 1,14,-1
 20 0 l 1,15,-1
 0 0 l 1,0,-1
20 48 m 1,16,-1
 24 48 l 1,17,-1
 24 44 l 1,18,-1
 20 44 l 1,19,-1
 20 48 l 1,16,-1
24 44 m 1,20,-1
 28 44 l 1,21,-1
 28 8 l 1,22,-1
 24 8 l 1,23,-1
 24 44 l 1,20,-1
24 8 m 1,24,-1
 24 4 l 1,25,-1
 20 4 l 1,26,-1
 20 8 l 1,27,-1
 24 8 l 1,24,-1
EndSplineSet
Validated: 5
EndChar

StartChar: Ntilde
Encoding: 209 209 135
Width: 36
GlyphClass: 2
Flags: W
LayerCount: 2
Fore
SplineSet
0 56 m 1,0,-1
 0 60 l 1,1,-1
 4 60 l 1,2,-1
 4 64 l 1,3,-1
 8 64 l 1,4,-1
 8 68 l 1,5,-1
 16 68 l 1,6,-1
 16 64 l 1,7,-1
 8 64 l 1,8,-1
 8 60 l 1,9,-1
 4 60 l 1,10,-1
 4 56 l 1,11,-1
 0 56 l 1,0,-1
24 0 m 1,12,-1
 24 20 l 1,13,-1
 20 20 l 1,14,-1
 20 24 l 1,15,-1
 24 24 l 1,16,-1
 24 52 l 1,17,-1
 28 52 l 1,18,-1
 28 0 l 1,19,-1
 24 0 l 1,12,-1
0 0 m 1,20,-1
 0 52 l 1,21,-1
 4 52 l 1,22,-1
 4 40 l 1,23,-1
 8 40 l 1,24,-1
 8 36 l 1,25,-1
 4 36 l 1,26,-1
 4 0 l 1,27,-1
 0 0 l 1,20,-1
16 64 m 1,28,-1
 20 64 l 1,29,-1
 20 60 l 1,30,-1
 16 60 l 1,31,-1
 16 64 l 1,28,-1
24 60 m 1,32,-1
 24 68 l 1,33,-1
 28 68 l 1,34,-1
 28 60 l 1,35,-1
 24 60 l 1,32,-1
24 60 m 1,36,-1
 24 56 l 1,37,-1
 20 56 l 1,38,-1
 20 60 l 1,39,-1
 24 60 l 1,36,-1
8 36 m 1,40,-1
 12 36 l 1,41,-1
 12 32 l 1,42,-1
 8 32 l 1,43,-1
 8 36 l 1,40,-1
12 32 m 1,44,-1
 16 32 l 1,45,-1
 16 28 l 1,46,-1
 12 28 l 1,47,-1
 12 32 l 1,44,-1
20 24 m 1,48,-1
 16 24 l 1,49,-1
 16 28 l 1,50,-1
 20 28 l 1,51,-1
 20 24 l 1,48,-1
EndSplineSet
Validated: 5
EndChar

StartChar: Ograve
Encoding: 210 210 136
Width: 36
GlyphClass: 2
Flags: W
LayerCount: 2
Fore
SplineSet
4 64 m 1,0,-1
 4 68 l 1,1,-1
 8 68 l 1,2,-1
 8 64 l 1,3,-1
 4 64 l 1,0,-1
0 8 m 1,4,-1
 0 44 l 1,5,-1
 4 44 l 1,6,-1
 4 48 l 1,7,-1
 8 48 l 1,8,-1
 8 52 l 1,9,-1
 20 52 l 1,10,-1
 20 48 l 1,11,-1
 8 48 l 1,12,-1
 8 44 l 1,13,-1
 4 44 l 1,14,-1
 4 8 l 1,15,-1
 0 8 l 1,4,-1
8 64 m 1,16,-1
 12 64 l 1,17,-1
 12 60 l 1,18,-1
 8 60 l 1,19,-1
 8 64 l 1,16,-1
12 60 m 1,20,-1
 16 60 l 1,21,-1
 16 56 l 1,22,-1
 12 56 l 1,23,-1
 12 60 l 1,20,-1
20 48 m 1,24,-1
 24 48 l 1,25,-1
 24 44 l 1,26,-1
 20 44 l 1,27,-1
 20 48 l 1,24,-1
24 44 m 1,28,-1
 28 44 l 1,29,-1
 28 8 l 1,30,-1
 24 8 l 1,31,-1
 24 44 l 1,28,-1
24 8 m 1,32,-1
 24 4 l 1,33,-1
 20 4 l 1,34,-1
 20 8 l 1,35,-1
 24 8 l 1,32,-1
4 8 m 1,36,-1
 8 8 l 1,37,-1
 8 4 l 1,38,-1
 4 4 l 1,39,-1
 4 8 l 1,36,-1
20 4 m 1,40,-1
 20 0 l 1,41,-1
 8 0 l 1,42,-1
 8 4 l 1,43,-1
 20 4 l 1,40,-1
EndSplineSet
Validated: 5
EndChar

StartChar: Oacute
Encoding: 211 211 137
Width: 36
GlyphClass: 2
Flags: W
LayerCount: 2
Fore
SplineSet
12 56 m 1,0,-1
 12 60 l 1,1,-1
 16 60 l 1,2,-1
 16 64 l 1,3,-1
 20 64 l 1,4,-1
 20 68 l 1,5,-1
 24 68 l 1,6,-1
 24 64 l 1,7,-1
 20 64 l 1,8,-1
 20 60 l 1,9,-1
 16 60 l 1,10,-1
 16 56 l 1,11,-1
 12 56 l 1,0,-1
0 8 m 1,12,-1
 0 44 l 1,13,-1
 4 44 l 1,14,-1
 4 48 l 1,15,-1
 8 48 l 1,16,-1
 8 52 l 1,17,-1
 20 52 l 1,18,-1
 20 48 l 1,19,-1
 8 48 l 1,20,-1
 8 44 l 1,21,-1
 4 44 l 1,22,-1
 4 8 l 1,23,-1
 0 8 l 1,12,-1
20 48 m 1,24,-1
 24 48 l 1,25,-1
 24 44 l 1,26,-1
 20 44 l 1,27,-1
 20 48 l 1,24,-1
24 44 m 1,28,-1
 28 44 l 1,29,-1
 28 8 l 1,30,-1
 24 8 l 1,31,-1
 24 44 l 1,28,-1
24 8 m 1,32,-1
 24 4 l 1,33,-1
 20 4 l 1,34,-1
 20 8 l 1,35,-1
 24 8 l 1,32,-1
4 8 m 1,36,-1
 8 8 l 1,37,-1
 8 4 l 1,38,-1
 4 4 l 1,39,-1
 4 8 l 1,36,-1
20 4 m 1,40,-1
 20 0 l 1,41,-1
 8 0 l 1,42,-1
 8 4 l 1,43,-1
 20 4 l 1,40,-1
EndSplineSet
Validated: 5
EndChar

StartChar: Ocircumflex
Encoding: 212 212 138
Width: 36
GlyphClass: 2
Flags: W
LayerCount: 2
Fore
SplineSet
4 56 m 1,0,-1
 4 60 l 1,1,-1
 8 60 l 1,2,-1
 8 64 l 1,3,-1
 12 64 l 1,4,-1
 12 68 l 1,5,-1
 16 68 l 1,6,-1
 16 64 l 1,7,-1
 12 64 l 1,8,-1
 12 60 l 1,9,-1
 8 60 l 1,10,-1
 8 56 l 1,11,-1
 4 56 l 1,0,-1
0 8 m 1,12,-1
 0 44 l 1,13,-1
 4 44 l 1,14,-1
 4 48 l 1,15,-1
 8 48 l 1,16,-1
 8 52 l 1,17,-1
 20 52 l 1,18,-1
 20 48 l 1,19,-1
 8 48 l 1,20,-1
 8 44 l 1,21,-1
 4 44 l 1,22,-1
 4 8 l 1,23,-1
 0 8 l 1,12,-1
16 64 m 1,24,-1
 20 64 l 1,25,-1
 20 60 l 1,26,-1
 16 60 l 1,27,-1
 16 64 l 1,24,-1
20 60 m 1,28,-1
 24 60 l 1,29,-1
 24 56 l 1,30,-1
 20 56 l 1,31,-1
 20 60 l 1,28,-1
20 48 m 1,32,-1
 24 48 l 1,33,-1
 24 44 l 1,34,-1
 20 44 l 1,35,-1
 20 48 l 1,32,-1
24 44 m 1,36,-1
 28 44 l 1,37,-1
 28 8 l 1,38,-1
 24 8 l 1,39,-1
 24 44 l 1,36,-1
24 8 m 1,40,-1
 24 4 l 1,41,-1
 20 4 l 1,42,-1
 20 8 l 1,43,-1
 24 8 l 1,40,-1
4 8 m 1,44,-1
 8 8 l 1,45,-1
 8 4 l 1,46,-1
 4 4 l 1,47,-1
 4 8 l 1,44,-1
20 4 m 1,48,-1
 20 0 l 1,49,-1
 8 0 l 1,50,-1
 8 4 l 1,51,52
 14 4 14 4 20 4 c 1,48,-1
EndSplineSet
Validated: 5
EndChar

StartChar: Otilde
Encoding: 213 213 139
Width: 36
GlyphClass: 2
Flags: W
LayerCount: 2
Fore
SplineSet
0 56 m 1,0,-1
 0 60 l 1,1,-1
 4 60 l 1,2,-1
 4 64 l 1,3,-1
 8 64 l 1,4,-1
 8 68 l 1,5,-1
 16 68 l 1,6,-1
 16 64 l 1,7,-1
 8 64 l 1,8,-1
 8 60 l 1,9,-1
 4 60 l 1,10,-1
 4 56 l 1,11,-1
 0 56 l 1,0,-1
0 8 m 1,12,-1
 0 44 l 1,13,-1
 4 44 l 1,14,-1
 4 48 l 1,15,-1
 8 48 l 1,16,-1
 8 52 l 1,17,-1
 20 52 l 1,18,-1
 20 48 l 1,19,-1
 8 48 l 1,20,-1
 8 44 l 1,21,-1
 4 44 l 1,22,-1
 4 8 l 1,23,-1
 0 8 l 1,12,-1
16 64 m 1,24,-1
 20 64 l 1,25,-1
 20 60 l 1,26,-1
 16 60 l 1,27,-1
 16 64 l 1,24,-1
24 60 m 1,28,-1
 24 68 l 1,29,-1
 28 68 l 1,30,-1
 28 60 l 1,31,-1
 24 60 l 1,28,-1
24 60 m 1,32,-1
 24 56 l 1,33,-1
 20 56 l 1,34,-1
 20 60 l 1,35,-1
 24 60 l 1,32,-1
20 48 m 1,36,-1
 24 48 l 1,37,-1
 24 44 l 1,38,-1
 20 44 l 1,39,-1
 20 48 l 1,36,-1
24 44 m 1,40,-1
 28 44 l 1,41,-1
 28 8 l 1,42,-1
 24 8 l 1,43,-1
 24 44 l 1,40,-1
24 8 m 1,44,-1
 24 4 l 1,45,-1
 20 4 l 1,46,-1
 20 8 l 1,47,-1
 24 8 l 1,44,-1
4 8 m 1,48,-1
 8 8 l 1,49,-1
 8 4 l 1,50,-1
 4 4 l 1,51,-1
 4 8 l 1,48,-1
20 4 m 1,52,-1
 20 0 l 1,53,-1
 8 0 l 1,54,-1
 8 4 l 1,55,-1
 20 4 l 1,52,-1
EndSplineSet
Validated: 5
EndChar

StartChar: Odieresis
Encoding: 214 214 140
Width: 36
GlyphClass: 2
Flags: W
LayerCount: 2
Fore
SplineSet
20 56 m 1,0,-1
 20 60 l 1,1,-1
 24 60 l 1,2,-1
 24 56 l 1,3,-1
 20 56 l 1,0,-1
4 56 m 1,4,-1
 4 60 l 1,5,-1
 8 60 l 1,6,-1
 8 56 l 1,7,-1
 4 56 l 1,4,-1
0 8 m 1,8,-1
 0 44 l 1,9,-1
 4 44 l 1,10,-1
 4 48 l 1,11,-1
 8 48 l 1,12,-1
 8 52 l 1,13,-1
 20 52 l 1,14,-1
 20 48 l 1,15,-1
 8 48 l 1,16,-1
 8 44 l 1,17,-1
 4 44 l 1,18,-1
 4 8 l 1,19,-1
 0 8 l 1,8,-1
20 48 m 1,20,-1
 24 48 l 1,21,-1
 24 44 l 1,22,-1
 20 44 l 1,23,-1
 20 48 l 1,20,-1
24 44 m 1,24,-1
 28 44 l 1,25,-1
 28 8 l 1,26,-1
 24 8 l 1,27,-1
 24 44 l 1,24,-1
24 8 m 1,28,-1
 24 4 l 1,29,-1
 20 4 l 1,30,-1
 20 8 l 1,31,-1
 24 8 l 1,28,-1
4 8 m 1,32,-1
 8 8 l 1,33,-1
 8 4 l 1,34,-1
 4 4 l 1,35,-1
 4 8 l 1,32,-1
20 4 m 1,36,-1
 20 0 l 1,37,-1
 8 0 l 1,38,-1
 8 4 l 1,39,-1
 20 4 l 1,36,-1
EndSplineSet
Validated: 5
EndChar

StartChar: multiply
Encoding: 215 215 141
Width: 28
GlyphClass: 2
Flags: W
LayerCount: 2
Fore
SplineSet
0 28 m 1,0,-1
 0 32 l 1,1,-1
 4 32 l 1,2,-1
 4 28 l 1,3,-1
 0 28 l 1,0,-1
0 12 m 1,4,-1
 0 16 l 1,5,-1
 4 16 l 1,6,-1
 4 20 l 1,7,-1
 8 20 l 1,8,-1
 8 24 l 1,9,-1
 4 24 l 1,10,-1
 4 28 l 1,11,-1
 8 28 l 1,12,-1
 8 24 l 1,13,-1
 12 24 l 1,14,-1
 12 28 l 1,15,-1
 16 28 l 1,16,-1
 16 32 l 1,17,-1
 20 32 l 1,18,-1
 20 28 l 1,19,-1
 16 28 l 1,20,-1
 16 24 l 1,21,-1
 12 24 l 1,22,-1
 12 20 l 1,23,-1
 8 20 l 1,24,-1
 8 16 l 1,25,-1
 4 16 l 1,26,-1
 4 12 l 1,27,-1
 0 12 l 1,4,-1
12 20 m 1,28,-1
 16 20 l 1,29,-1
 16 16 l 1,30,-1
 12 16 l 1,31,-1
 12 20 l 1,28,-1
16 16 m 1,32,-1
 20 16 l 1,33,-1
 20 12 l 1,34,-1
 16 12 l 1,35,-1
 16 16 l 1,32,-1
EndSplineSet
Validated: 5
EndChar

StartChar: Oslash
Encoding: 216 216 142
Width: 44
GlyphClass: 2
Flags: W
LayerCount: 2
Fore
SplineSet
-8 0 m 1,0,-1
 -8 4 l 1,1,-1
 -4 4 l 1,2,-1
 -4 8 l 1,3,-1
 0 8 l 1,4,-1
 0 44 l 1,5,-1
 4 44 l 1,6,-1
 4 48 l 1,7,-1
 8 48 l 1,8,-1
 8 52 l 1,9,-1
 20 52 l 1,10,-1
 20 48 l 1,11,-1
 8 48 l 1,12,-1
 8 44 l 1,13,-1
 4 44 l 1,14,-1
 4 20 l 1,15,-1
 8 20 l 1,16,-1
 8 16 l 1,17,-1
 4 16 l 1,18,-1
 4 8 l 1,19,-1
 0 8 l 1,20,-1
 0 4 l 1,21,-1
 -4 4 l 1,22,-1
 -4 0 l 1,23,-1
 -8 0 l 1,0,-1
32 48 m 1,24,-1
 32 52 l 1,25,-1
 36 52 l 1,26,-1
 36 48 l 1,27,-1
 32 48 l 1,24,-1
32 48 m 1,28,-1
 32 44 l 1,29,-1
 28 44 l 1,30,-1
 28 48 l 1,31,-1
 32 48 l 1,28,-1
20 48 m 1,32,-1
 24 48 l 1,33,-1
 24 44 l 1,34,-1
 20 44 l 1,35,-1
 20 48 l 1,32,-1
28 44 m 1,36,-1
 28 8 l 1,37,-1
 24 8 l 1,38,-1
 24 32 l 1,39,-1
 20 32 l 1,40,-1
 20 36 l 1,41,-1
 24 36 l 1,42,-1
 24 44 l 1,43,-1
 28 44 l 1,36,-1
20 32 m 1,44,-1
 20 28 l 1,45,-1
 16 28 l 1,46,-1
 16 32 l 1,47,-1
 20 32 l 1,44,-1
16 28 m 1,48,-1
 16 24 l 1,49,-1
 12 24 l 1,50,-1
 12 28 l 1,51,-1
 16 28 l 1,48,-1
12 24 m 1,52,-1
 12 20 l 1,53,-1
 8 20 l 1,54,-1
 8 24 l 1,55,-1
 12 24 l 1,52,-1
24 8 m 1,56,-1
 24 4 l 1,57,-1
 20 4 l 1,58,-1
 20 8 l 1,59,-1
 24 8 l 1,56,-1
4 8 m 1,60,-1
 8 8 l 1,61,-1
 8 4 l 1,62,-1
 4 4 l 1,63,-1
 4 8 l 1,60,-1
20 4 m 1,64,-1
 20 0 l 1,65,-1
 8 0 l 1,66,-1
 8 4 l 1,67,-1
 20 4 l 1,64,-1
EndSplineSet
Validated: 5
EndChar

StartChar: Ugrave
Encoding: 217 217 143
Width: 36
GlyphClass: 2
Flags: W
LayerCount: 2
Fore
SplineSet
4 64 m 1,0,-1
 4 68 l 1,1,-1
 8 68 l 1,2,-1
 8 64 l 1,3,-1
 4 64 l 1,0,-1
0 8 m 1,4,-1
 0 52 l 1,5,-1
 4 52 l 1,6,-1
 4 8 l 1,7,-1
 0 8 l 1,4,-1
8 64 m 1,8,-1
 12 64 l 1,9,-1
 12 60 l 1,10,-1
 8 60 l 1,11,-1
 8 64 l 1,8,-1
12 60 m 1,12,-1
 16 60 l 1,13,-1
 16 56 l 1,14,-1
 12 56 l 1,15,-1
 12 60 l 1,12,-1
24 8 m 1,16,-1
 24 52 l 1,17,-1
 28 52 l 1,18,-1
 28 8 l 1,19,-1
 24 8 l 1,16,-1
24 8 m 1,20,-1
 24 4 l 1,21,-1
 20 4 l 1,22,-1
 20 8 l 1,23,-1
 24 8 l 1,20,-1
4 8 m 1,24,-1
 8 8 l 1,25,-1
 8 4 l 1,26,-1
 4 4 l 1,27,-1
 4 8 l 1,24,-1
20 4 m 1,28,-1
 20 0 l 1,29,-1
 8 0 l 1,30,-1
 8 4 l 1,31,-1
 20 4 l 1,28,-1
EndSplineSet
Validated: 5
EndChar

StartChar: Uacute
Encoding: 218 218 144
Width: 36
GlyphClass: 2
Flags: W
LayerCount: 2
Fore
SplineSet
12 56 m 1,0,-1
 12 60 l 1,1,-1
 16 60 l 1,2,-1
 16 64 l 1,3,-1
 20 64 l 1,4,-1
 20 68 l 1,5,-1
 24 68 l 1,6,-1
 24 64 l 1,7,-1
 20 64 l 1,8,-1
 20 60 l 1,9,-1
 16 60 l 1,10,-1
 16 56 l 1,11,-1
 12 56 l 1,0,-1
0 8 m 1,12,-1
 0 52 l 1,13,-1
 4 52 l 1,14,-1
 4 8 l 1,15,-1
 0 8 l 1,12,-1
24 8 m 1,16,-1
 24 52 l 1,17,-1
 28 52 l 1,18,-1
 28 8 l 1,19,-1
 24 8 l 1,16,-1
24 8 m 1,20,-1
 24 4 l 1,21,-1
 20 4 l 1,22,-1
 20 8 l 1,23,-1
 24 8 l 1,20,-1
4 8 m 1,24,-1
 8 8 l 1,25,-1
 8 4 l 1,26,-1
 4 4 l 1,27,-1
 4 8 l 1,24,-1
20 4 m 1,28,-1
 20 0 l 1,29,-1
 8 0 l 1,30,-1
 8 4 l 1,31,-1
 20 4 l 1,28,-1
EndSplineSet
Validated: 5
EndChar

StartChar: Ucircumflex
Encoding: 219 219 145
Width: 36
GlyphClass: 2
Flags: W
LayerCount: 2
Fore
SplineSet
4 56 m 1,0,-1
 4 60 l 1,1,-1
 8 60 l 1,2,-1
 8 64 l 1,3,-1
 12 64 l 1,4,-1
 12 68 l 1,5,-1
 16 68 l 1,6,-1
 16 64 l 1,7,-1
 12 64 l 1,8,-1
 12 60 l 1,9,-1
 8 60 l 1,10,-1
 8 56 l 1,11,-1
 4 56 l 1,0,-1
0 8 m 1,12,-1
 0 52 l 1,13,-1
 4 52 l 1,14,-1
 4 8 l 1,15,-1
 0 8 l 1,12,-1
16 64 m 1,16,-1
 20 64 l 1,17,-1
 20 60 l 1,18,-1
 16 60 l 1,19,-1
 16 64 l 1,16,-1
20 60 m 1,20,-1
 24 60 l 1,21,-1
 24 56 l 1,22,-1
 20 56 l 1,23,-1
 20 60 l 1,20,-1
24 8 m 1,24,-1
 24 52 l 1,25,-1
 28 52 l 1,26,-1
 28 8 l 1,27,-1
 24 8 l 1,24,-1
24 8 m 1,28,-1
 24 4 l 1,29,-1
 20 4 l 1,30,-1
 20 8 l 1,31,-1
 24 8 l 1,28,-1
4 8 m 1,32,-1
 8 8 l 1,33,-1
 8 4 l 1,34,-1
 4 4 l 1,35,-1
 4 8 l 1,32,-1
20 4 m 1,36,-1
 20 0 l 1,37,-1
 8 0 l 1,38,-1
 8 4 l 1,39,40
 14 4 14 4 20 4 c 1,36,-1
EndSplineSet
Validated: 5
EndChar

StartChar: Udieresis
Encoding: 220 220 146
Width: 36
GlyphClass: 2
Flags: W
LayerCount: 2
Fore
SplineSet
20 56 m 1,0,-1
 20 60 l 1,1,-1
 24 60 l 1,2,-1
 24 56 l 1,3,-1
 20 56 l 1,0,-1
4 56 m 1,4,-1
 4 60 l 1,5,-1
 8 60 l 1,6,-1
 8 56 l 1,7,-1
 4 56 l 1,4,-1
0 8 m 1,8,-1
 0 52 l 1,9,-1
 4 52 l 1,10,-1
 4 8 l 1,11,-1
 0 8 l 1,8,-1
24 8 m 1,12,-1
 24 52 l 1,13,-1
 28 52 l 1,14,-1
 28 8 l 1,15,-1
 24 8 l 1,12,-1
24 8 m 1,16,-1
 24 4 l 1,17,-1
 20 4 l 1,18,-1
 20 8 l 1,19,-1
 24 8 l 1,16,-1
4 8 m 1,20,-1
 8 8 l 1,21,-1
 8 4 l 1,22,-1
 4 4 l 1,23,-1
 4 8 l 1,20,-1
20 4 m 1,24,-1
 20 0 l 1,25,-1
 8 0 l 1,26,-1
 8 4 l 1,27,-1
 20 4 l 1,24,-1
EndSplineSet
Validated: 5
EndChar

StartChar: Yacute
Encoding: 221 221 147
Width: 36
GlyphClass: 2
Flags: W
LayerCount: 2
Fore
SplineSet
12 56 m 1,0,-1
 12 60 l 1,1,-1
 16 60 l 1,2,-1
 16 64 l 1,3,-1
 20 64 l 1,4,-1
 20 68 l 1,5,-1
 24 68 l 1,6,-1
 24 64 l 1,7,-1
 20 64 l 1,8,-1
 20 60 l 1,9,-1
 16 60 l 1,10,-1
 16 56 l 1,11,-1
 12 56 l 1,0,-1
0 40 m 1,12,-1
 0 52 l 1,13,-1
 4 52 l 1,14,-1
 4 40 l 1,15,-1
 0 40 l 1,12,-1
24 40 m 1,16,-1
 24 52 l 1,17,-1
 28 52 l 1,18,-1
 28 40 l 1,19,-1
 24 40 l 1,16,-1
24 40 m 1,20,-1
 24 32 l 1,21,-1
 20 32 l 1,22,-1
 20 40 l 1,23,-1
 24 40 l 1,20,-1
4 40 m 1,24,-1
 8 40 l 1,25,-1
 8 32 l 1,26,-1
 4 32 l 1,27,-1
 4 40 l 1,24,-1
20 32 m 1,28,-1
 20 24 l 1,29,-1
 16 24 l 1,30,31
 16 28 16 28 16 32 c 1,32,-1
 20 32 l 1,28,-1
8 32 m 1,33,-1
 12 32 l 1,34,-1
 12 24 l 1,35,-1
 8 24 l 1,36,37
 8 28 8 28 8 32 c 1,33,-1
16 24 m 1,38,-1
 16 0 l 1,39,-1
 12 0 l 1,40,-1
 12 24 l 1,41,-1
 16 24 l 1,38,-1
EndSplineSet
Validated: 5
EndChar

StartChar: Thorn
Encoding: 222 222 148
Width: 36
GlyphClass: 2
Flags: W
LayerCount: 2
Fore
SplineSet
0 0 m 1,0,-1
 0 52 l 1,1,-1
 4 52 l 1,2,-1
 4 40 l 1,3,-1
 8 40 l 1,4,-1
 8 36 l 1,5,-1
 4 36 l 1,6,-1
 4 16 l 1,7,-1
 8 16 l 1,8,-1
 8 12 l 1,9,-1
 4 12 l 1,10,-1
 4 0 l 1,11,-1
 0 0 l 1,0,-1
8 40 m 1,12,-1
 8 44 l 1,13,-1
 20 44 l 1,14,-1
 20 40 l 1,15,-1
 8 40 l 1,12,-1
20 40 m 1,16,-1
 24 40 l 1,17,-1
 24 36 l 1,18,-1
 20 36 l 1,19,-1
 20 40 l 1,16,-1
24 36 m 1,20,-1
 28 36 l 1,21,-1
 28 16 l 1,22,-1
 24 16 l 1,23,-1
 24 36 l 1,20,-1
24 16 m 1,24,-1
 24 12 l 1,25,-1
 20 12 l 1,26,-1
 20 16 l 1,27,-1
 24 16 l 1,24,-1
20 12 m 1,28,-1
 20 8 l 1,29,-1
 8 8 l 1,30,-1
 8 12 l 1,31,-1
 20 12 l 1,28,-1
EndSplineSet
Validated: 5
EndChar

StartChar: germandbls
Encoding: 223 223 149
Width: 36
GlyphClass: 2
Flags: W
LayerCount: 2
Fore
SplineSet
0 0 m 1,0,-1
 0 44 l 1,1,-1
 4 44 l 1,2,-1
 4 48 l 1,3,-1
 8 48 l 1,4,-1
 8 52 l 1,5,-1
 20 52 l 1,6,-1
 20 48 l 1,7,-1
 8 48 l 1,8,-1
 8 44 l 1,9,-1
 4 44 l 1,10,-1
 4 0 l 1,11,-1
 0 0 l 1,0,-1
12 24 m 1,12,-1
 12 28 l 1,13,-1
 16 28 l 1,14,-1
 16 32 l 1,15,-1
 20 32 l 1,16,-1
 20 36 l 1,17,-1
 24 36 l 1,18,-1
 24 44 l 1,19,-1
 20 44 l 1,20,-1
 20 48 l 1,21,-1
 24 48 l 1,22,-1
 24 44 l 1,23,-1
 28 44 l 1,24,-1
 28 36 l 1,25,-1
 24 36 l 1,26,-1
 24 32 l 1,27,-1
 20 32 l 1,28,-1
 20 28 l 1,29,-1
 16 28 l 1,30,-1
 16 24 l 1,31,-1
 12 24 l 1,12,-1
8 0 m 1,32,-1
 8 4 l 1,33,-1
 20 4 l 1,34,-1
 20 8 l 1,35,-1
 24 8 l 1,36,-1
 24 16 l 1,37,-1
 20 16 l 1,38,-1
 20 20 l 1,39,-1
 16 20 l 1,40,-1
 16 24 l 1,41,-1
 20 24 l 1,42,-1
 20 20 l 1,43,-1
 24 20 l 1,44,-1
 24 16 l 1,45,-1
 28 16 l 1,46,-1
 28 8 l 1,47,-1
 24 8 l 1,48,-1
 24 4 l 1,49,-1
 20 4 l 1,50,-1
 20 0 l 1,51,-1
 8 0 l 1,32,-1
EndSplineSet
Validated: 5
EndChar

StartChar: agrave
Encoding: 224 224 150
Width: 36
GlyphClass: 2
Flags: W
LayerCount: 2
Fore
SplineSet
4 52 m 1,0,-1
 4 56 l 1,1,-1
 8 56 l 1,2,-1
 8 52 l 1,3,-1
 4 52 l 1,0,-1
24 0 m 1,4,-1
 24 4 l 1,5,-1
 20 4 l 1,6,-1
 20 8 l 1,7,-1
 24 8 l 1,8,-1
 24 20 l 1,9,-1
 8 20 l 1,10,-1
 8 24 l 1,11,-1
 24 24 l 1,12,-1
 24 36 l 1,13,14
 14 36 14 36 4 36 c 1,15,-1
 4 40 l 1,16,17
 14 40 14 40 24 40 c 1,18,-1
 24 36 l 1,19,-1
 28 36 l 1,20,-1
 28 0 l 1,21,-1
 24 0 l 1,4,-1
0 32 m 1,22,23
 0 34 0 34 0 36 c 1,24,-1
 4 36 l 1,25,-1
 4 32 l 1,26,27
 2 32 2 32 0 32 c 1,22,23
0 4 m 1,28,-1
 0 16 l 1,29,-1
 4 16 l 1,30,-1
 4 20 l 1,31,-1
 8 20 l 1,32,-1
 8 16 l 1,33,-1
 4 16 l 1,34,-1
 4 4 l 1,35,-1
 0 4 l 1,28,-1
8 52 m 1,36,-1
 12 52 l 1,37,-1
 12 48 l 1,38,-1
 8 48 l 1,39,-1
 8 52 l 1,36,-1
12 48 m 1,40,-1
 16 48 l 1,41,-1
 16 44 l 1,42,-1
 12 44 l 1,43,-1
 12 48 l 1,40,-1
20 4 m 1,44,-1
 20 0 l 1,45,-1
 4 0 l 1,46,-1
 4 4 l 1,47,48
 12 4 12 4 20 4 c 1,44,-1
EndSplineSet
Validated: 5
EndChar

StartChar: aacute
Encoding: 225 225 151
Width: 36
GlyphClass: 2
Flags: W
LayerCount: 2
Fore
SplineSet
12 44 m 1,0,-1
 12 48 l 1,1,-1
 16 48 l 1,2,-1
 16 52 l 1,3,-1
 20 52 l 1,4,-1
 20 56 l 1,5,-1
 24 56 l 1,6,-1
 24 52 l 1,7,-1
 20 52 l 1,8,-1
 20 48 l 1,9,-1
 16 48 l 1,10,-1
 16 44 l 1,11,-1
 12 44 l 1,0,-1
24 0 m 1,12,-1
 24 4 l 1,13,-1
 20 4 l 1,14,-1
 20 8 l 1,15,-1
 24 8 l 1,16,-1
 24 20 l 1,17,-1
 8 20 l 1,18,-1
 8 24 l 1,19,-1
 24 24 l 1,20,-1
 24 36 l 1,21,22
 14 36 14 36 4 36 c 1,23,-1
 4 40 l 1,24,25
 14 40 14 40 24 40 c 1,26,-1
 24 36 l 1,27,-1
 28 36 l 1,28,-1
 28 0 l 1,29,-1
 24 0 l 1,12,-1
0 32 m 1,30,31
 0 34 0 34 0 36 c 1,32,-1
 4 36 l 1,33,-1
 4 32 l 1,34,35
 2 32 2 32 0 32 c 1,30,31
0 4 m 1,36,-1
 0 16 l 1,37,-1
 4 16 l 1,38,-1
 4 20 l 1,39,-1
 8 20 l 1,40,-1
 8 16 l 1,41,-1
 4 16 l 1,42,-1
 4 4 l 1,43,-1
 0 4 l 1,36,-1
20 4 m 1,44,-1
 20 0 l 1,45,-1
 4 0 l 1,46,-1
 4 4 l 1,47,48
 12 4 12 4 20 4 c 1,44,-1
EndSplineSet
Validated: 5
EndChar

StartChar: acircumflex
Encoding: 226 226 152
Width: 36
GlyphClass: 2
Flags: W
LayerCount: 2
Fore
SplineSet
4 44 m 1,0,-1
 4 48 l 1,1,-1
 8 48 l 1,2,-1
 8 52 l 1,3,-1
 12 52 l 1,4,-1
 12 56 l 1,5,-1
 16 56 l 1,6,-1
 16 52 l 1,7,-1
 12 52 l 1,8,-1
 12 48 l 1,9,-1
 8 48 l 1,10,-1
 8 44 l 1,11,-1
 4 44 l 1,0,-1
24 0 m 1,12,-1
 24 4 l 1,13,-1
 20 4 l 1,14,-1
 20 8 l 1,15,-1
 24 8 l 1,16,-1
 24 20 l 1,17,-1
 8 20 l 1,18,-1
 8 24 l 1,19,-1
 24 24 l 1,20,-1
 24 36 l 1,21,22
 14 36 14 36 4 36 c 1,23,-1
 4 40 l 1,24,25
 14 40 14 40 24 40 c 1,26,-1
 24 36 l 1,27,-1
 28 36 l 1,28,-1
 28 0 l 1,29,-1
 24 0 l 1,12,-1
0 32 m 1,30,31
 0 34 0 34 0 36 c 1,32,-1
 4 36 l 1,33,-1
 4 32 l 1,34,35
 2 32 2 32 0 32 c 1,30,31
0 4 m 1,36,-1
 0 16 l 1,37,-1
 4 16 l 1,38,-1
 4 20 l 1,39,-1
 8 20 l 1,40,-1
 8 16 l 1,41,-1
 4 16 l 1,42,-1
 4 4 l 1,43,-1
 0 4 l 1,36,-1
16 52 m 1,44,-1
 20 52 l 1,45,-1
 20 48 l 1,46,-1
 16 48 l 1,47,-1
 16 52 l 1,44,-1
20 48 m 1,48,-1
 24 48 l 1,49,-1
 24 44 l 1,50,-1
 20 44 l 1,51,-1
 20 48 l 1,48,-1
20 4 m 1,52,-1
 20 0 l 1,53,-1
 4 0 l 1,54,-1
 4 4 l 1,55,56
 12 4 12 4 20 4 c 1,52,-1
EndSplineSet
Validated: 5
EndChar

StartChar: atilde
Encoding: 227 227 153
Width: 36
GlyphClass: 2
Flags: W
LayerCount: 2
Fore
SplineSet
0 44 m 1,0,-1
 0 48 l 1,1,-1
 4 48 l 1,2,-1
 4 52 l 1,3,-1
 8 52 l 1,4,-1
 8 56 l 1,5,-1
 16 56 l 1,6,-1
 16 52 l 1,7,-1
 8 52 l 1,8,-1
 8 48 l 1,9,-1
 4 48 l 1,10,-1
 4 44 l 1,11,-1
 0 44 l 1,0,-1
24 0 m 1,12,-1
 24 4 l 1,13,-1
 20 4 l 1,14,-1
 20 8 l 1,15,-1
 24 8 l 1,16,-1
 24 20 l 1,17,-1
 8 20 l 1,18,-1
 8 24 l 1,19,-1
 24 24 l 1,20,-1
 24 36 l 1,21,22
 14 36 14 36 4 36 c 1,23,-1
 4 40 l 1,24,25
 14 40 14 40 24 40 c 1,26,-1
 24 36 l 1,27,-1
 28 36 l 1,28,-1
 28 0 l 1,29,-1
 24 0 l 1,12,-1
0 32 m 1,30,31
 0 34 0 34 0 36 c 1,32,-1
 4 36 l 1,33,-1
 4 32 l 1,34,35
 2 32 2 32 0 32 c 1,30,31
0 4 m 1,36,-1
 0 16 l 1,37,-1
 4 16 l 1,38,-1
 4 20 l 1,39,-1
 8 20 l 1,40,-1
 8 16 l 1,41,-1
 4 16 l 1,42,-1
 4 4 l 1,43,-1
 0 4 l 1,36,-1
16 52 m 1,44,-1
 20 52 l 1,45,-1
 20 48 l 1,46,-1
 16 48 l 1,47,-1
 16 52 l 1,44,-1
24 48 m 1,48,-1
 24 56 l 1,49,-1
 28 56 l 1,50,-1
 28 48 l 1,51,-1
 24 48 l 1,48,-1
24 48 m 1,52,-1
 24 44 l 1,53,-1
 20 44 l 1,54,-1
 20 48 l 1,55,-1
 24 48 l 1,52,-1
20 4 m 1,56,-1
 20 0 l 1,57,-1
 4 0 l 1,58,-1
 4 4 l 1,59,60
 12 4 12 4 20 4 c 1,56,-1
EndSplineSet
Validated: 5
EndChar

StartChar: adieresis
Encoding: 228 228 154
Width: 36
GlyphClass: 2
Flags: W
LayerCount: 2
Fore
SplineSet
20 44 m 1,0,-1
 20 48 l 1,1,-1
 24 48 l 1,2,-1
 24 44 l 1,3,-1
 20 44 l 1,0,-1
4 44 m 1,4,-1
 4 48 l 1,5,-1
 8 48 l 1,6,-1
 8 44 l 1,7,-1
 4 44 l 1,4,-1
24 0 m 1,8,-1
 24 4 l 1,9,-1
 20 4 l 1,10,-1
 20 8 l 1,11,-1
 24 8 l 1,12,-1
 24 20 l 1,13,-1
 8 20 l 1,14,-1
 8 24 l 1,15,-1
 24 24 l 1,16,-1
 24 36 l 1,17,18
 14 36 14 36 4 36 c 1,19,-1
 4 40 l 1,20,21
 14 40 14 40 24 40 c 1,22,-1
 24 36 l 1,23,-1
 28 36 l 1,24,-1
 28 0 l 1,25,-1
 24 0 l 1,8,-1
0 32 m 1,26,27
 0 34 0 34 0 36 c 1,28,-1
 4 36 l 1,29,-1
 4 32 l 1,30,31
 2 32 2 32 0 32 c 1,26,27
0 4 m 1,32,-1
 0 16 l 1,33,-1
 4 16 l 1,34,-1
 4 20 l 1,35,-1
 8 20 l 1,36,-1
 8 16 l 1,37,-1
 4 16 l 1,38,-1
 4 4 l 1,39,-1
 0 4 l 1,32,-1
20 4 m 1,40,-1
 20 0 l 1,41,-1
 4 0 l 1,42,-1
 4 4 l 1,43,44
 12 4 12 4 20 4 c 1,40,-1
EndSplineSet
Validated: 5
EndChar

StartChar: aring
Encoding: 229 229 155
Width: 36
GlyphClass: 2
Flags: W
LayerCount: 2
Fore
SplineSet
8 48 m 1,0,-1
 8 52 l 1,1,-1
 12 52 l 1,2,-1
 12 56 l 1,3,-1
 16 56 l 1,4,-1
 16 52 l 1,5,-1
 12 52 l 1,6,-1
 12 48 l 1,7,-1
 8 48 l 1,0,-1
24 0 m 1,8,-1
 24 4 l 1,9,-1
 20 4 l 1,10,-1
 20 8 l 1,11,-1
 24 8 l 1,12,-1
 24 20 l 1,13,-1
 8 20 l 1,14,-1
 8 24 l 1,15,-1
 24 24 l 1,16,-1
 24 36 l 1,17,18
 14 36 14 36 4 36 c 1,19,-1
 4 40 l 1,20,21
 14 40 14 40 24 40 c 1,22,-1
 24 36 l 1,23,-1
 28 36 l 1,24,-1
 28 0 l 1,25,-1
 24 0 l 1,8,-1
0 32 m 1,26,27
 0 34 0 34 0 36 c 1,28,-1
 4 36 l 1,29,-1
 4 32 l 1,30,31
 2 32 2 32 0 32 c 1,26,27
0 4 m 1,32,-1
 0 16 l 1,33,-1
 4 16 l 1,34,-1
 4 20 l 1,35,-1
 8 20 l 1,36,-1
 8 16 l 1,37,-1
 4 16 l 1,38,-1
 4 4 l 1,39,-1
 0 4 l 1,32,-1
16 52 m 1,40,-1
 20 52 l 1,41,-1
 20 48 l 1,42,-1
 16 48 l 1,43,-1
 16 52 l 1,40,-1
16 48 m 1,44,-1
 16 44 l 1,45,-1
 12 44 l 1,46,-1
 12 48 l 1,47,-1
 16 48 l 1,44,-1
20 4 m 1,48,-1
 20 0 l 1,49,-1
 4 0 l 1,50,-1
 4 4 l 1,51,52
 12 4 12 4 20 4 c 1,48,-1
EndSplineSet
Validated: 5
EndChar

StartChar: ae
Encoding: 230 230 156
Width: 60
GlyphClass: 2
Flags: W
LayerCount: 2
Fore
SplineSet
24 0 m 1,0,-1
 24 4 l 1,1,-1
 20 4 l 1,2,-1
 20 8 l 1,3,-1
 24 8 l 1,4,-1
 24 20 l 1,5,-1
 8 20 l 1,6,-1
 8 24 l 1,7,-1
 24 24 l 1,8,-1
 24 36 l 1,9,10
 14 36 14 36 4 36 c 1,11,-1
 4 40 l 1,12,13
 14 40 14 40 24 40 c 1,14,-1
 24 36 l 1,15,-1
 32 36 l 1,16,-1
 32 40 l 1,17,-1
 44 40 l 1,18,-1
 44 36 l 1,19,-1
 32 36 l 1,20,-1
 32 32 l 1,21,-1
 28 32 l 1,22,-1
 28 24 l 1,23,-1
 48 24 l 1,24,-1
 48 32 l 1,25,-1
 44 32 l 1,26,-1
 44 36 l 1,27,-1
 48 36 l 1,28,-1
 48 32 l 1,29,-1
 52 32 l 1,30,-1
 52 20 l 1,31,-1
 28 20 l 1,32,-1
 28 8 l 1,33,-1
 32 8 l 1,34,-1
 32 4 l 1,35,-1
 28 4 l 1,36,-1
 28 0 l 1,37,-1
 24 0 l 1,0,-1
0 32 m 1,38,-1
 0 36 l 1,39,-1
 4 36 l 1,40,-1
 4 32 l 1,41,-1
 0 32 l 1,38,-1
0 4 m 1,42,-1
 0 16 l 1,43,-1
 4 16 l 1,44,-1
 4 20 l 1,45,-1
 8 20 l 1,46,-1
 8 16 l 1,47,-1
 4 16 l 1,48,-1
 4 4 l 1,49,-1
 0 4 l 1,42,-1
48 4 m 1,50,-1
 48 8 l 1,51,-1
 52 8 l 1,52,-1
 52 4 l 1,53,-1
 48 4 l 1,50,-1
48 4 m 1,54,-1
 48 0 l 1,55,56
 40 0 40 0 32 0 c 1,57,-1
 32 4 l 1,58,59
 40 4 40 4 48 4 c 1,54,-1
20 4 m 1,60,-1
 20 0 l 1,61,-1
 4 0 l 1,62,-1
 4 4 l 1,63,64
 12 4 12 4 20 4 c 1,60,-1
EndSplineSet
Validated: 5
EndChar

StartChar: ccedilla
Encoding: 231 231 157
Width: 36
GlyphClass: 2
Flags: W
LayerCount: 2
Fore
SplineSet
0 8 m 1,0,-1
 0 32 l 1,1,-1
 4 32 l 1,2,-1
 4 36 l 1,3,-1
 8 36 l 1,4,-1
 8 40 l 1,5,6
 16 40 16 40 24 40 c 1,7,-1
 24 36 l 1,8,9
 16 36 16 36 8 36 c 1,10,-1
 8 32 l 1,11,-1
 4 32 l 1,12,-1
 4 8 l 1,13,-1
 0 8 l 1,0,-1
12 -4 m 1,14,-1
 12 0 l 1,15,-1
 8 0 l 1,16,-1
 8 4 l 1,17,-1
 4 4 l 1,18,-1
 4 8 l 1,19,-1
 8 8 l 1,20,-1
 8 4 l 1,21,22
 16 4 16 4 24 4 c 1,23,-1
 24 8 l 1,24,-1
 28 8 l 1,25,-1
 28 4 l 1,26,-1
 24 4 l 1,27,-1
 24 0 l 1,28,29
 20 0 20 0 16 0 c 1,30,-1
 16 -4 l 1,31,-1
 12 -4 l 1,14,-1
8 -12 m 1,32,-1
 8 -8 l 1,33,-1
 16 -8 l 1,34,-1
 16 -4 l 1,35,-1
 20 -4 l 1,36,-1
 20 -8 l 1,37,-1
 16 -8 l 1,38,-1
 16 -12 l 1,39,-1
 8 -12 l 1,32,-1
24 36 m 1,40,-1
 28 36 l 1,41,-1
 28 32 l 1,42,-1
 24 32 l 1,43,-1
 24 36 l 1,40,-1
EndSplineSet
Validated: 5
EndChar

StartChar: egrave
Encoding: 232 232 158
Width: 36
GlyphClass: 2
Flags: W
LayerCount: 2
Fore
SplineSet
4 52 m 1,0,-1
 4 56 l 1,1,-1
 8 56 l 1,2,-1
 8 52 l 1,3,-1
 4 52 l 1,0,-1
0 8 m 1,4,-1
 0 32 l 1,5,-1
 4 32 l 1,6,-1
 4 36 l 1,7,-1
 8 36 l 1,8,-1
 8 40 l 1,9,-1
 20 40 l 1,10,-1
 20 36 l 1,11,-1
 8 36 l 1,12,-1
 8 32 l 1,13,-1
 4 32 l 1,14,-1
 4 24 l 1,15,-1
 24 24 l 1,16,-1
 24 32 l 1,17,-1
 20 32 l 1,18,-1
 20 36 l 1,19,-1
 24 36 l 1,20,-1
 24 32 l 1,21,-1
 28 32 l 1,22,-1
 28 20 l 1,23,-1
 4 20 l 1,24,-1
 4 8 l 1,25,-1
 0 8 l 1,4,-1
8 52 m 1,26,-1
 12 52 l 1,27,-1
 12 48 l 1,28,-1
 8 48 l 1,29,-1
 8 52 l 1,26,-1
12 48 m 1,30,-1
 16 48 l 1,31,-1
 16 44 l 1,32,-1
 12 44 l 1,33,-1
 12 48 l 1,30,-1
4 8 m 1,34,-1
 8 8 l 1,35,-1
 8 4 l 1,36,-1
 4 4 l 1,37,-1
 4 8 l 1,34,-1
24 4 m 1,38,-1
 24 8 l 1,39,40
 26 8 26 8 28 8 c 1,41,42
 28 6 28 6 28 4 c 1,43,-1
 24 4 l 1,38,-1
24 4 m 1,44,-1
 24 0 l 1,45,46
 16 0 16 0 8 0 c 1,47,-1
 8 4 l 1,48,49
 16 4 16 4 24 4 c 1,44,-1
EndSplineSet
Validated: 5
EndChar

StartChar: eacute
Encoding: 233 233 159
Width: 36
GlyphClass: 2
Flags: W
LayerCount: 2
Fore
SplineSet
12 44 m 1,0,-1
 12 48 l 1,1,-1
 16 48 l 1,2,-1
 16 52 l 1,3,-1
 20 52 l 1,4,-1
 20 56 l 1,5,-1
 24 56 l 1,6,-1
 24 52 l 1,7,-1
 20 52 l 1,8,-1
 20 48 l 1,9,-1
 16 48 l 1,10,-1
 16 44 l 1,11,-1
 12 44 l 1,0,-1
0 8 m 1,12,-1
 0 32 l 1,13,-1
 4 32 l 1,14,-1
 4 36 l 1,15,-1
 8 36 l 1,16,-1
 8 40 l 1,17,-1
 20 40 l 1,18,-1
 20 36 l 1,19,-1
 8 36 l 1,20,-1
 8 32 l 1,21,-1
 4 32 l 1,22,-1
 4 24 l 1,23,-1
 24 24 l 1,24,-1
 24 32 l 1,25,-1
 20 32 l 1,26,-1
 20 36 l 1,27,-1
 24 36 l 1,28,-1
 24 32 l 1,29,-1
 28 32 l 1,30,-1
 28 20 l 1,31,-1
 4 20 l 1,32,-1
 4 8 l 1,33,-1
 0 8 l 1,12,-1
4 8 m 1,34,-1
 8 8 l 1,35,-1
 8 4 l 1,36,-1
 4 4 l 1,37,-1
 4 8 l 1,34,-1
24 4 m 1,38,-1
 24 8 l 1,39,40
 26 8 26 8 28 8 c 1,41,42
 28 6 28 6 28 4 c 1,43,-1
 24 4 l 1,38,-1
24 4 m 1,44,-1
 24 0 l 1,45,46
 16 0 16 0 8 0 c 1,47,-1
 8 4 l 1,48,49
 16 4 16 4 24 4 c 1,44,-1
EndSplineSet
Validated: 5
EndChar

StartChar: ecircumflex
Encoding: 234 234 160
Width: 36
GlyphClass: 2
Flags: W
LayerCount: 2
Fore
SplineSet
4 44 m 1,0,-1
 4 48 l 1,1,-1
 8 48 l 1,2,-1
 8 52 l 1,3,-1
 12 52 l 1,4,-1
 12 56 l 1,5,-1
 16 56 l 1,6,-1
 16 52 l 1,7,-1
 12 52 l 1,8,-1
 12 48 l 1,9,-1
 8 48 l 1,10,-1
 8 44 l 1,11,-1
 4 44 l 1,0,-1
0 8 m 1,12,-1
 0 32 l 1,13,-1
 4 32 l 1,14,-1
 4 36 l 1,15,-1
 8 36 l 1,16,-1
 8 40 l 1,17,-1
 20 40 l 1,18,-1
 20 36 l 1,19,-1
 8 36 l 1,20,-1
 8 32 l 1,21,-1
 4 32 l 1,22,-1
 4 24 l 1,23,-1
 24 24 l 1,24,-1
 24 32 l 1,25,-1
 20 32 l 1,26,-1
 20 36 l 1,27,-1
 24 36 l 1,28,-1
 24 32 l 1,29,-1
 28 32 l 1,30,-1
 28 20 l 1,31,-1
 4 20 l 1,32,-1
 4 8 l 1,33,-1
 0 8 l 1,12,-1
16 52 m 1,34,-1
 20 52 l 1,35,-1
 20 48 l 1,36,-1
 16 48 l 1,37,-1
 16 52 l 1,34,-1
20 48 m 1,38,-1
 24 48 l 1,39,-1
 24 44 l 1,40,-1
 20 44 l 1,41,-1
 20 48 l 1,38,-1
4 8 m 1,42,-1
 8 8 l 1,43,-1
 8 4 l 1,44,-1
 4 4 l 1,45,-1
 4 8 l 1,42,-1
24 4 m 1,46,-1
 24 8 l 1,47,48
 26 8 26 8 28 8 c 1,49,50
 28 6 28 6 28 4 c 1,51,-1
 24 4 l 1,46,-1
24 4 m 1,52,-1
 24 0 l 1,53,54
 16 0 16 0 8 0 c 1,55,-1
 8 4 l 1,56,57
 16 4 16 4 24 4 c 1,52,-1
EndSplineSet
Validated: 5
EndChar

StartChar: edieresis
Encoding: 235 235 161
Width: 36
GlyphClass: 2
Flags: W
LayerCount: 2
Fore
SplineSet
20 44 m 1,0,-1
 20 48 l 1,1,-1
 24 48 l 1,2,-1
 24 44 l 1,3,-1
 20 44 l 1,0,-1
4 44 m 1,4,-1
 4 48 l 1,5,-1
 8 48 l 1,6,-1
 8 44 l 1,7,-1
 4 44 l 1,4,-1
0 8 m 1,8,-1
 0 32 l 1,9,-1
 4 32 l 1,10,-1
 4 36 l 1,11,-1
 8 36 l 1,12,-1
 8 40 l 1,13,-1
 20 40 l 1,14,-1
 20 36 l 1,15,-1
 8 36 l 1,16,-1
 8 32 l 1,17,-1
 4 32 l 1,18,-1
 4 24 l 1,19,-1
 24 24 l 1,20,-1
 24 32 l 1,21,-1
 20 32 l 1,22,-1
 20 36 l 1,23,-1
 24 36 l 1,24,-1
 24 32 l 1,25,-1
 28 32 l 1,26,-1
 28 20 l 1,27,-1
 4 20 l 1,28,-1
 4 8 l 1,29,-1
 0 8 l 1,8,-1
4 8 m 1,30,-1
 8 8 l 1,31,-1
 8 4 l 1,32,-1
 4 4 l 1,33,-1
 4 8 l 1,30,-1
24 4 m 1,34,-1
 24 8 l 1,35,36
 26 8 26 8 28 8 c 1,37,38
 28 6 28 6 28 4 c 1,39,-1
 24 4 l 1,34,-1
24 4 m 1,40,-1
 24 0 l 1,41,42
 16 0 16 0 8 0 c 1,43,-1
 8 4 l 1,44,45
 16 4 16 4 24 4 c 1,40,-1
EndSplineSet
Validated: 5
EndChar

StartChar: igrave
Encoding: 236 236 162
Width: 12
GlyphClass: 2
Flags: W
LayerCount: 2
Fore
SplineSet
-8 52 m 1,0,-1
 -8 56 l 1,1,-1
 -4 56 l 1,2,-1
 -4 52 l 1,3,-1
 -8 52 l 1,0,-1
0 0 m 1,4,-1
 0 40 l 1,5,-1
 4 40 l 1,6,-1
 4 0 l 1,7,-1
 0 0 l 1,4,-1
-4 52 m 1,8,-1
 0 52 l 1,9,-1
 0 48 l 1,10,-1
 -4 48 l 1,11,-1
 -4 52 l 1,8,-1
0 48 m 1,12,-1
 4 48 l 1,13,-1
 4 44 l 1,14,-1
 0 44 l 1,15,-1
 0 48 l 1,12,-1
EndSplineSet
Validated: 5
EndChar

StartChar: iacute
Encoding: 237 237 163
Width: 12
GlyphClass: 2
Flags: W
LayerCount: 2
Fore
SplineSet
0 44 m 1,0,-1
 0 48 l 1,1,-1
 4 48 l 1,2,-1
 4 52 l 1,3,-1
 8 52 l 1,4,-1
 8 56 l 1,5,-1
 12 56 l 1,6,-1
 12 52 l 1,7,-1
 8 52 l 1,8,-1
 8 48 l 1,9,-1
 4 48 l 1,10,-1
 4 44 l 1,11,-1
 0 44 l 1,0,-1
0 0 m 1,12,-1
 0 40 l 1,13,-1
 4 40 l 1,14,-1
 4 0 l 1,15,-1
 0 0 l 1,12,-1
EndSplineSet
Validated: 5
EndChar

StartChar: icircumflex
Encoding: 238 238 164
Width: 12
GlyphClass: 2
Flags: W
LayerCount: 2
Fore
SplineSet
-8 44 m 1,0,-1
 -8 48 l 1,1,-1
 -4 48 l 1,2,-1
 -4 52 l 1,3,-1
 0 52 l 1,4,-1
 0 56 l 1,5,-1
 4 56 l 1,6,-1
 4 52 l 1,7,-1
 0 52 l 1,8,-1
 0 48 l 1,9,-1
 -4 48 l 1,10,-1
 -4 44 l 1,11,-1
 -8 44 l 1,0,-1
0 0 m 1,12,-1
 0 40 l 1,13,-1
 4 40 l 1,14,-1
 4 0 l 1,15,-1
 0 0 l 1,12,-1
4 52 m 1,16,-1
 8 52 l 1,17,-1
 8 48 l 1,18,-1
 4 48 l 1,19,-1
 4 52 l 1,16,-1
8 48 m 1,20,-1
 12 48 l 1,21,-1
 12 44 l 1,22,-1
 8 44 l 1,23,-1
 8 48 l 1,20,-1
EndSplineSet
Validated: 5
EndChar

StartChar: idieresis
Encoding: 239 239 165
Width: 12
GlyphClass: 2
Flags: W
LayerCount: 2
Fore
SplineSet
8 44 m 1,0,-1
 8 48 l 1,1,-1
 12 48 l 1,2,-1
 12 44 l 1,3,-1
 8 44 l 1,0,-1
-8 44 m 1,4,-1
 -8 48 l 1,5,-1
 -4 48 l 1,6,-1
 -4 44 l 1,7,-1
 -8 44 l 1,4,-1
0 0 m 1,8,-1
 0 40 l 1,9,-1
 4 40 l 1,10,-1
 4 0 l 1,11,-1
 0 0 l 1,8,-1
EndSplineSet
Validated: 1
EndChar

StartChar: eth
Encoding: 240 240 166
Width: 40
GlyphClass: 2
Flags: W
LayerCount: 2
Fore
SplineSet
0 8 m 1,0,-1
 0 32 l 1,1,-1
 4 32 l 1,2,-1
 4 36 l 1,3,-1
 8 36 l 1,4,-1
 8 40 l 1,5,-1
 20 40 l 1,6,-1
 20 36 l 1,7,-1
 24 36 l 1,8,-1
 24 44 l 1,9,-1
 16 44 l 1,10,-1
 16 48 l 1,11,-1
 24 48 l 1,12,-1
 24 56 l 1,13,-1
 28 56 l 1,14,-1
 28 48 l 1,15,-1
 32 48 l 1,16,-1
 32 44 l 1,17,-1
 28 44 l 1,18,-1
 28 8 l 1,19,-1
 24 8 l 1,20,-1
 24 32 l 1,21,-1
 20 32 l 1,22,-1
 20 36 l 1,23,-1
 8 36 l 1,24,-1
 8 32 l 1,25,-1
 4 32 l 1,26,-1
 4 8 l 1,27,-1
 0 8 l 1,0,-1
24 8 m 1,28,-1
 24 4 l 1,29,-1
 20 4 l 1,30,-1
 20 8 l 1,31,-1
 24 8 l 1,28,-1
4 8 m 1,32,-1
 8 8 l 1,33,-1
 8 4 l 1,34,-1
 4 4 l 1,35,-1
 4 8 l 1,32,-1
20 4 m 1,36,-1
 20 0 l 1,37,-1
 8 0 l 1,38,-1
 8 4 l 1,39,-1
 20 4 l 1,36,-1
EndSplineSet
Validated: 5
EndChar

StartChar: ntilde
Encoding: 241 241 167
Width: 36
GlyphClass: 2
Flags: W
LayerCount: 2
Fore
SplineSet
0 44 m 1,0,-1
 0 48 l 1,1,-1
 4 48 l 1,2,-1
 4 52 l 1,3,-1
 8 52 l 1,4,-1
 8 56 l 1,5,-1
 16 56 l 1,6,-1
 16 52 l 1,7,-1
 8 52 l 1,8,-1
 8 48 l 1,9,-1
 4 48 l 1,10,-1
 4 44 l 1,11,-1
 0 44 l 1,0,-1
0 0 m 1,12,-1
 0 40 l 1,13,-1
 4 40 l 1,14,-1
 4 36 l 1,15,-1
 8 36 l 1,16,-1
 8 40 l 1,17,-1
 20 40 l 1,18,-1
 20 36 l 1,19,-1
 8 36 l 1,20,-1
 8 32 l 1,21,-1
 4 32 l 1,22,-1
 4 0 l 1,23,-1
 0 0 l 1,12,-1
16 52 m 1,24,-1
 20 52 l 1,25,-1
 20 48 l 1,26,-1
 16 48 l 1,27,-1
 16 52 l 1,24,-1
24 48 m 1,28,-1
 24 56 l 1,29,-1
 28 56 l 1,30,-1
 28 48 l 1,31,-1
 24 48 l 1,28,-1
24 48 m 1,32,-1
 24 44 l 1,33,-1
 20 44 l 1,34,-1
 20 48 l 1,35,-1
 24 48 l 1,32,-1
20 36 m 1,36,-1
 24 36 l 1,37,-1
 24 32 l 1,38,-1
 20 32 l 1,39,-1
 20 36 l 1,36,-1
24 32 m 1,40,-1
 28 32 l 1,41,-1
 28 0 l 1,42,-1
 24 0 l 1,43,-1
 24 32 l 1,40,-1
EndSplineSet
Validated: 5
EndChar

StartChar: ograve
Encoding: 242 242 168
Width: 36
GlyphClass: 2
Flags: W
LayerCount: 2
Fore
SplineSet
4 52 m 1,0,-1
 4 56 l 1,1,-1
 8 56 l 1,2,-1
 8 52 l 1,3,-1
 4 52 l 1,0,-1
0 8 m 1,4,-1
 0 32 l 1,5,-1
 4 32 l 1,6,-1
 4 36 l 1,7,-1
 8 36 l 1,8,-1
 8 40 l 1,9,-1
 20 40 l 1,10,-1
 20 36 l 1,11,-1
 8 36 l 1,12,-1
 8 32 l 1,13,-1
 4 32 l 1,14,-1
 4 8 l 1,15,-1
 0 8 l 1,4,-1
8 52 m 1,16,-1
 12 52 l 1,17,-1
 12 48 l 1,18,-1
 8 48 l 1,19,-1
 8 52 l 1,16,-1
12 48 m 1,20,-1
 16 48 l 1,21,-1
 16 44 l 1,22,-1
 12 44 l 1,23,-1
 12 48 l 1,20,-1
20 36 m 1,24,-1
 24 36 l 1,25,-1
 24 32 l 1,26,-1
 20 32 l 1,27,-1
 20 36 l 1,24,-1
24 32 m 1,28,-1
 28 32 l 1,29,-1
 28 8 l 1,30,-1
 24 8 l 1,31,-1
 24 32 l 1,28,-1
24 8 m 1,32,-1
 24 4 l 1,33,-1
 20 4 l 1,34,-1
 20 8 l 1,35,-1
 24 8 l 1,32,-1
4 8 m 1,36,-1
 8 8 l 1,37,-1
 8 4 l 1,38,-1
 4 4 l 1,39,-1
 4 8 l 1,36,-1
20 4 m 1,40,-1
 20 0 l 1,41,-1
 8 0 l 1,42,-1
 8 4 l 1,43,-1
 20 4 l 1,40,-1
EndSplineSet
Validated: 5
EndChar

StartChar: oacute
Encoding: 243 243 169
Width: 36
GlyphClass: 2
Flags: W
LayerCount: 2
Fore
SplineSet
12 44 m 1,0,-1
 12 48 l 1,1,-1
 16 48 l 1,2,-1
 16 52 l 1,3,-1
 20 52 l 1,4,-1
 20 56 l 1,5,-1
 24 56 l 1,6,-1
 24 52 l 1,7,-1
 20 52 l 1,8,-1
 20 48 l 1,9,-1
 16 48 l 1,10,-1
 16 44 l 1,11,-1
 12 44 l 1,0,-1
0 8 m 1,12,-1
 0 32 l 1,13,-1
 4 32 l 1,14,-1
 4 36 l 1,15,-1
 8 36 l 1,16,-1
 8 40 l 1,17,-1
 20 40 l 1,18,-1
 20 36 l 1,19,-1
 8 36 l 1,20,-1
 8 32 l 1,21,-1
 4 32 l 1,22,-1
 4 8 l 1,23,-1
 0 8 l 1,12,-1
20 36 m 1,24,-1
 24 36 l 1,25,-1
 24 32 l 1,26,-1
 20 32 l 1,27,-1
 20 36 l 1,24,-1
24 32 m 1,28,-1
 28 32 l 1,29,-1
 28 8 l 1,30,-1
 24 8 l 1,31,-1
 24 32 l 1,28,-1
24 8 m 1,32,-1
 24 4 l 1,33,-1
 20 4 l 1,34,-1
 20 8 l 1,35,-1
 24 8 l 1,32,-1
4 8 m 1,36,-1
 8 8 l 1,37,-1
 8 4 l 1,38,-1
 4 4 l 1,39,-1
 4 8 l 1,36,-1
20 4 m 1,40,-1
 20 0 l 1,41,-1
 8 0 l 1,42,-1
 8 4 l 1,43,-1
 20 4 l 1,40,-1
EndSplineSet
Validated: 5
EndChar

StartChar: ocircumflex
Encoding: 244 244 170
Width: 36
GlyphClass: 2
Flags: W
LayerCount: 2
Fore
SplineSet
4 44 m 1,0,-1
 4 48 l 1,1,-1
 8 48 l 1,2,-1
 8 52 l 1,3,-1
 12 52 l 1,4,-1
 12 56 l 1,5,-1
 16 56 l 1,6,-1
 16 52 l 1,7,-1
 12 52 l 1,8,-1
 12 48 l 1,9,-1
 8 48 l 1,10,-1
 8 44 l 1,11,-1
 4 44 l 1,0,-1
0 8 m 1,12,-1
 0 32 l 1,13,-1
 4 32 l 1,14,-1
 4 36 l 1,15,-1
 8 36 l 1,16,-1
 8 40 l 1,17,-1
 20 40 l 1,18,-1
 20 36 l 1,19,-1
 8 36 l 1,20,-1
 8 32 l 1,21,-1
 4 32 l 1,22,-1
 4 8 l 1,23,-1
 0 8 l 1,12,-1
16 52 m 1,24,-1
 20 52 l 1,25,-1
 20 48 l 1,26,-1
 16 48 l 1,27,-1
 16 52 l 1,24,-1
20 48 m 1,28,-1
 24 48 l 1,29,-1
 24 44 l 1,30,-1
 20 44 l 1,31,-1
 20 48 l 1,28,-1
20 36 m 1,32,-1
 24 36 l 1,33,-1
 24 32 l 1,34,-1
 20 32 l 1,35,-1
 20 36 l 1,32,-1
24 32 m 1,36,-1
 28 32 l 1,37,-1
 28 8 l 1,38,-1
 24 8 l 1,39,-1
 24 32 l 1,36,-1
24 8 m 1,40,-1
 24 4 l 1,41,-1
 20 4 l 1,42,-1
 20 8 l 1,43,-1
 24 8 l 1,40,-1
4 8 m 1,44,-1
 8 8 l 1,45,-1
 8 4 l 1,46,-1
 4 4 l 1,47,-1
 4 8 l 1,44,-1
20 4 m 1,48,-1
 20 0 l 1,49,-1
 8 0 l 1,50,-1
 8 4 l 1,51,52
 14 4 14 4 20 4 c 1,48,-1
EndSplineSet
Validated: 5
EndChar

StartChar: otilde
Encoding: 245 245 171
Width: 36
GlyphClass: 2
Flags: W
LayerCount: 2
Fore
SplineSet
0 44 m 1,0,-1
 0 48 l 1,1,-1
 4 48 l 1,2,-1
 4 52 l 1,3,-1
 8 52 l 1,4,-1
 8 56 l 1,5,-1
 16 56 l 1,6,-1
 16 52 l 1,7,-1
 8 52 l 1,8,-1
 8 48 l 1,9,-1
 4 48 l 1,10,-1
 4 44 l 1,11,-1
 0 44 l 1,0,-1
0 8 m 1,12,-1
 0 32 l 1,13,-1
 4 32 l 1,14,-1
 4 36 l 1,15,-1
 8 36 l 1,16,-1
 8 40 l 1,17,-1
 20 40 l 1,18,-1
 20 36 l 1,19,-1
 8 36 l 1,20,-1
 8 32 l 1,21,-1
 4 32 l 1,22,-1
 4 8 l 1,23,-1
 0 8 l 1,12,-1
16 52 m 1,24,-1
 20 52 l 1,25,-1
 20 48 l 1,26,-1
 16 48 l 1,27,-1
 16 52 l 1,24,-1
24 48 m 1,28,-1
 24 56 l 1,29,-1
 28 56 l 1,30,-1
 28 48 l 1,31,-1
 24 48 l 1,28,-1
24 48 m 1,32,-1
 24 44 l 1,33,-1
 20 44 l 1,34,-1
 20 48 l 1,35,-1
 24 48 l 1,32,-1
20 36 m 1,36,-1
 24 36 l 1,37,-1
 24 32 l 1,38,-1
 20 32 l 1,39,-1
 20 36 l 1,36,-1
24 32 m 1,40,-1
 28 32 l 1,41,-1
 28 8 l 1,42,-1
 24 8 l 1,43,-1
 24 32 l 1,40,-1
24 8 m 1,44,-1
 24 4 l 1,45,-1
 20 4 l 1,46,-1
 20 8 l 1,47,-1
 24 8 l 1,44,-1
4 8 m 1,48,-1
 8 8 l 1,49,-1
 8 4 l 1,50,-1
 4 4 l 1,51,-1
 4 8 l 1,48,-1
20 4 m 1,52,-1
 20 0 l 1,53,-1
 8 0 l 1,54,-1
 8 4 l 1,55,-1
 20 4 l 1,52,-1
EndSplineSet
Validated: 5
EndChar

StartChar: odieresis
Encoding: 246 246 172
Width: 36
GlyphClass: 2
Flags: W
LayerCount: 2
Fore
SplineSet
20 44 m 1,0,-1
 20 48 l 1,1,-1
 24 48 l 1,2,-1
 24 44 l 1,3,-1
 20 44 l 1,0,-1
4 44 m 1,4,-1
 4 48 l 1,5,-1
 8 48 l 1,6,-1
 8 44 l 1,7,-1
 4 44 l 1,4,-1
0 8 m 1,8,-1
 0 32 l 1,9,-1
 4 32 l 1,10,-1
 4 36 l 1,11,-1
 8 36 l 1,12,-1
 8 40 l 1,13,-1
 20 40 l 1,14,-1
 20 36 l 1,15,-1
 8 36 l 1,16,-1
 8 32 l 1,17,-1
 4 32 l 1,18,-1
 4 8 l 1,19,-1
 0 8 l 1,8,-1
20 36 m 1,20,-1
 24 36 l 1,21,-1
 24 32 l 1,22,-1
 20 32 l 1,23,-1
 20 36 l 1,20,-1
24 32 m 1,24,-1
 28 32 l 1,25,-1
 28 8 l 1,26,-1
 24 8 l 1,27,-1
 24 32 l 1,24,-1
24 8 m 1,28,-1
 24 4 l 1,29,-1
 20 4 l 1,30,-1
 20 8 l 1,31,-1
 24 8 l 1,28,-1
4 8 m 1,32,-1
 8 8 l 1,33,-1
 8 4 l 1,34,-1
 4 4 l 1,35,-1
 4 8 l 1,32,-1
20 4 m 1,36,-1
 20 0 l 1,37,-1
 8 0 l 1,38,-1
 8 4 l 1,39,-1
 20 4 l 1,36,-1
EndSplineSet
Validated: 5
EndChar

StartChar: divide
Encoding: 247 247 173
Width: 28
GlyphClass: 2
Flags: W
LayerCount: 2
Fore
SplineSet
8 28 m 1,0,-1
 8 32 l 1,1,-1
 12 32 l 1,2,-1
 12 28 l 1,3,-1
 8 28 l 1,0,-1
0 20 m 1,4,-1
 0 24 l 1,5,-1
 20 24 l 1,6,-1
 20 20 l 1,7,-1
 0 20 l 1,4,-1
8 12 m 1,8,-1
 8 16 l 1,9,-1
 12 16 l 1,10,-1
 12 12 l 1,11,-1
 8 12 l 1,8,-1
EndSplineSet
Validated: 1
EndChar

StartChar: oslash
Encoding: 248 248 174
Width: 36
GlyphClass: 2
Flags: W
LayerCount: 2
Fore
SplineSet
0 0 m 1,0,-1
 0 4 l 1,1,-1
 4 4 l 1,2,-1
 4 8 l 1,3,-1
 0 8 l 1,4,-1
 0 32 l 1,5,-1
 4 32 l 1,6,-1
 4 36 l 1,7,-1
 8 36 l 1,8,-1
 8 40 l 1,9,-1
 20 40 l 1,10,-1
 20 36 l 1,11,-1
 8 36 l 1,12,-1
 8 32 l 1,13,-1
 4 32 l 1,14,-1
 4 12 l 1,15,-1
 8 12 l 1,16,-1
 8 4 l 1,17,-1
 4 4 l 1,18,-1
 4 0 l 1,19,-1
 0 0 l 1,0,-1
24 36 m 1,20,-1
 24 40 l 1,21,-1
 28 40 l 1,22,-1
 28 36 l 1,23,-1
 24 36 l 1,20,-1
24 36 m 1,24,-1
 24 32 l 1,25,-1
 28 32 l 1,26,-1
 28 8 l 1,27,-1
 24 8 l 1,28,-1
 24 28 l 1,29,-1
 20 28 l 1,30,-1
 20 36 l 1,31,-1
 24 36 l 1,24,-1
20 28 m 1,32,-1
 20 24 l 1,33,-1
 16 24 l 1,34,-1
 16 28 l 1,35,-1
 20 28 l 1,32,-1
16 24 m 1,36,-1
 16 16 l 1,37,-1
 12 16 l 1,38,-1
 12 24 l 1,39,-1
 16 24 l 1,36,-1
12 16 m 1,40,-1
 12 12 l 1,41,-1
 8 12 l 1,42,-1
 8 16 l 1,43,-1
 12 16 l 1,40,-1
24 8 m 1,44,-1
 24 4 l 1,45,-1
 20 4 l 1,46,-1
 20 8 l 1,47,-1
 24 8 l 1,44,-1
20 4 m 1,48,-1
 20 0 l 1,49,-1
 8 0 l 1,50,-1
 8 4 l 1,51,-1
 20 4 l 1,48,-1
EndSplineSet
Validated: 5
EndChar

StartChar: ugrave
Encoding: 249 249 175
Width: 36
GlyphClass: 2
Flags: W
LayerCount: 2
Fore
SplineSet
4 52 m 1,0,-1
 4 56 l 1,1,-1
 8 56 l 1,2,-1
 8 52 l 1,3,-1
 4 52 l 1,0,-1
24 0 m 1,4,-1
 24 4 l 1,5,-1
 20 4 l 1,6,-1
 20 8 l 1,7,-1
 24 8 l 1,8,-1
 24 40 l 1,9,-1
 28 40 l 1,10,-1
 28 0 l 1,11,-1
 24 0 l 1,4,-1
0 8 m 1,12,-1
 0 40 l 1,13,-1
 4 40 l 1,14,-1
 4 8 l 1,15,-1
 0 8 l 1,12,-1
8 52 m 1,16,-1
 12 52 l 1,17,-1
 12 48 l 1,18,-1
 8 48 l 1,19,-1
 8 52 l 1,16,-1
12 48 m 1,20,-1
 16 48 l 1,21,-1
 16 44 l 1,22,-1
 12 44 l 1,23,-1
 12 48 l 1,20,-1
4 8 m 1,24,-1
 8 8 l 1,25,-1
 8 4 l 1,26,-1
 4 4 l 1,27,-1
 4 8 l 1,24,-1
20 4 m 1,28,-1
 20 0 l 1,29,-1
 8 0 l 1,30,-1
 8 4 l 1,31,-1
 20 4 l 1,28,-1
EndSplineSet
Validated: 5
EndChar

StartChar: uacute
Encoding: 250 250 176
Width: 36
GlyphClass: 2
Flags: W
LayerCount: 2
Fore
SplineSet
12 44 m 1,0,-1
 12 48 l 1,1,-1
 16 48 l 1,2,-1
 16 52 l 1,3,-1
 20 52 l 1,4,-1
 20 56 l 1,5,-1
 24 56 l 1,6,-1
 24 52 l 1,7,-1
 20 52 l 1,8,-1
 20 48 l 1,9,-1
 16 48 l 1,10,-1
 16 44 l 1,11,-1
 12 44 l 1,0,-1
24 0 m 1,12,-1
 24 4 l 1,13,-1
 20 4 l 1,14,-1
 20 8 l 1,15,-1
 24 8 l 1,16,-1
 24 40 l 1,17,-1
 28 40 l 1,18,-1
 28 0 l 1,19,-1
 24 0 l 1,12,-1
0 8 m 1,20,-1
 0 40 l 1,21,-1
 4 40 l 1,22,-1
 4 8 l 1,23,-1
 0 8 l 1,20,-1
4 8 m 1,24,-1
 8 8 l 1,25,-1
 8 4 l 1,26,-1
 4 4 l 1,27,-1
 4 8 l 1,24,-1
20 4 m 1,28,-1
 20 0 l 1,29,-1
 8 0 l 1,30,-1
 8 4 l 1,31,-1
 20 4 l 1,28,-1
EndSplineSet
Validated: 5
EndChar

StartChar: ucircumflex
Encoding: 251 251 177
Width: 36
GlyphClass: 2
Flags: W
LayerCount: 2
Fore
SplineSet
4 44 m 1,0,-1
 4 48 l 1,1,-1
 8 48 l 1,2,-1
 8 52 l 1,3,-1
 12 52 l 1,4,-1
 12 56 l 1,5,-1
 16 56 l 1,6,-1
 16 52 l 1,7,-1
 12 52 l 1,8,-1
 12 48 l 1,9,-1
 8 48 l 1,10,-1
 8 44 l 1,11,-1
 4 44 l 1,0,-1
24 0 m 1,12,-1
 24 4 l 1,13,-1
 20 4 l 1,14,-1
 20 8 l 1,15,-1
 24 8 l 1,16,-1
 24 40 l 1,17,-1
 28 40 l 1,18,-1
 28 0 l 1,19,-1
 24 0 l 1,12,-1
0 8 m 1,20,-1
 0 40 l 1,21,-1
 4 40 l 1,22,-1
 4 8 l 1,23,-1
 0 8 l 1,20,-1
16 52 m 1,24,-1
 20 52 l 1,25,-1
 20 48 l 1,26,-1
 16 48 l 1,27,-1
 16 52 l 1,24,-1
20 48 m 1,28,-1
 24 48 l 1,29,-1
 24 44 l 1,30,-1
 20 44 l 1,31,-1
 20 48 l 1,28,-1
4 8 m 1,32,-1
 8 8 l 1,33,-1
 8 4 l 1,34,-1
 4 4 l 1,35,-1
 4 8 l 1,32,-1
20 4 m 1,36,-1
 20 0 l 1,37,-1
 8 0 l 1,38,-1
 8 4 l 1,39,-1
 20 4 l 1,36,-1
EndSplineSet
Validated: 5
EndChar

StartChar: udieresis
Encoding: 252 252 178
Width: 36
GlyphClass: 2
Flags: W
LayerCount: 2
Fore
SplineSet
20 44 m 1,0,-1
 20 48 l 1,1,-1
 24 48 l 1,2,-1
 24 44 l 1,3,-1
 20 44 l 1,0,-1
4 44 m 1,4,-1
 4 48 l 1,5,-1
 8 48 l 1,6,-1
 8 44 l 1,7,-1
 4 44 l 1,4,-1
24 0 m 1,8,-1
 24 4 l 1,9,-1
 20 4 l 1,10,-1
 20 8 l 1,11,-1
 24 8 l 1,12,-1
 24 40 l 1,13,-1
 28 40 l 1,14,-1
 28 0 l 1,15,-1
 24 0 l 1,8,-1
0 8 m 1,16,-1
 0 40 l 1,17,-1
 4 40 l 1,18,-1
 4 8 l 1,19,-1
 0 8 l 1,16,-1
4 8 m 1,20,-1
 8 8 l 1,21,-1
 8 4 l 1,22,-1
 4 4 l 1,23,-1
 4 8 l 1,20,-1
20 4 m 1,24,-1
 20 0 l 1,25,-1
 8 0 l 1,26,-1
 8 4 l 1,27,-1
 20 4 l 1,24,-1
EndSplineSet
Validated: 5
EndChar

StartChar: yacute
Encoding: 253 253 179
Width: 36
GlyphClass: 2
Flags: W
LayerCount: 2
Fore
SplineSet
12 44 m 1,0,-1
 12 48 l 1,1,-1
 16 48 l 1,2,-1
 16 52 l 1,3,-1
 20 52 l 1,4,-1
 20 56 l 1,5,-1
 24 56 l 1,6,-1
 24 52 l 1,7,-1
 20 52 l 1,8,-1
 20 48 l 1,9,-1
 16 48 l 1,10,-1
 16 44 l 1,11,-1
 12 44 l 1,0,-1
0 28 m 1,12,-1
 0 40 l 1,13,-1
 4 40 l 1,14,15
 4 34 4 34 4 28 c 1,16,-1
 0 28 l 1,12,-1
0 -8 m 1,17,-1
 0 -4 l 1,18,-1
 4 -4 l 1,19,-1
 4 -8 l 1,20,-1
 0 -8 l 1,17,-1
4 28 m 1,21,-1
 8 28 l 1,22,-1
 8 16 l 1,23,-1
 4 16 l 1,24,25
 4 22 4 22 4 28 c 1,21,-1
12 -8 m 1,26,-1
 12 8 l 1,27,28
 14 8 14 8 16 8 c 1,29,-1
 16 -8 l 1,30,31
 14 -8 14 -8 12 -8 c 1,26,-1
12 -8 m 1,32,-1
 12 -12 l 1,33,34
 8 -12 8 -12 4 -12 c 1,35,-1
 4 -8 l 1,36,37
 8 -8 8 -8 12 -8 c 1,32,-1
24 28 m 1,38,-1
 24 40 l 1,39,-1
 28 40 l 1,40,-1
 28 28 l 1,41,-1
 24 28 l 1,38,-1
24 28 m 1,42,-1
 24 16 l 1,43,-1
 20 16 l 1,44,45
 20 22 20 22 20 28 c 1,46,-1
 24 28 l 1,42,-1
12 8 m 1,47,-1
 8 8 l 1,48,-1
 8 16 l 1,49,-1
 12 16 l 1,50,51
 12 12 12 12 12 8 c 1,47,-1
20 16 m 1,52,53
 20 12 20 12 20 8 c 1,54,55
 18 8 18 8 16 8 c 1,56,-1
 16 16 l 1,57,-1
 20 16 l 1,52,53
EndSplineSet
Validated: 5
EndChar

StartChar: thorn
Encoding: 254 254 180
Width: 36
GlyphClass: 2
Flags: W
LayerCount: 2
Fore
SplineSet
0 0 m 1,0,-1
 0 40 l 1,1,-1
 4 40 l 1,2,-1
 4 32 l 1,3,-1
 8 32 l 1,4,-1
 8 28 l 1,5,-1
 4 28 l 1,6,-1
 4 12 l 1,7,-1
 8 12 l 1,8,-1
 8 8 l 1,9,-1
 4 8 l 1,10,-1
 4 0 l 1,11,-1
 0 0 l 1,0,-1
8 32 m 1,12,-1
 8 36 l 1,13,-1
 20 36 l 1,14,-1
 20 32 l 1,15,-1
 8 32 l 1,12,-1
20 32 m 1,16,-1
 24 32 l 1,17,-1
 24 28 l 1,18,-1
 20 28 l 1,19,-1
 20 32 l 1,16,-1
24 28 m 1,20,-1
 28 28 l 1,21,-1
 28 12 l 1,22,-1
 24 12 l 1,23,-1
 24 28 l 1,20,-1
24 12 m 1,24,-1
 24 8 l 1,25,-1
 20 8 l 1,26,-1
 20 12 l 1,27,-1
 24 12 l 1,24,-1
20 8 m 1,28,-1
 20 4 l 1,29,-1
 8 4 l 1,30,-1
 8 8 l 1,31,-1
 20 8 l 1,28,-1
EndSplineSet
Validated: 5
EndChar

StartChar: ydieresis
Encoding: 255 255 181
Width: 36
GlyphClass: 2
Flags: W
LayerCount: 2
Fore
SplineSet
20 44 m 1,0,-1
 20 48 l 1,1,-1
 24 48 l 1,2,-1
 24 44 l 1,3,-1
 20 44 l 1,0,-1
4 44 m 1,4,-1
 4 48 l 1,5,-1
 8 48 l 1,6,-1
 8 44 l 1,7,-1
 4 44 l 1,4,-1
0 28 m 1,8,-1
 0 40 l 1,9,-1
 4 40 l 1,10,11
 4 34 4 34 4 28 c 1,12,-1
 0 28 l 1,8,-1
0 -8 m 1,13,-1
 0 -4 l 1,14,-1
 4 -4 l 1,15,-1
 4 -8 l 1,16,-1
 0 -8 l 1,13,-1
4 28 m 1,17,-1
 8 28 l 1,18,-1
 8 16 l 1,19,-1
 4 16 l 1,20,21
 4 22 4 22 4 28 c 1,17,-1
12 -8 m 1,22,-1
 12 8 l 1,23,24
 14 8 14 8 16 8 c 1,25,-1
 16 -8 l 1,26,27
 14 -8 14 -8 12 -8 c 1,22,-1
12 -8 m 1,28,-1
 12 -12 l 1,29,30
 8 -12 8 -12 4 -12 c 1,31,-1
 4 -8 l 1,32,33
 8 -8 8 -8 12 -8 c 1,28,-1
24 28 m 1,34,-1
 24 40 l 1,35,-1
 28 40 l 1,36,-1
 28 28 l 1,37,-1
 24 28 l 1,34,-1
24 28 m 1,38,-1
 24 16 l 1,39,-1
 20 16 l 1,40,41
 20 22 20 22 20 28 c 1,42,-1
 24 28 l 1,38,-1
12 8 m 1,43,-1
 8 8 l 1,44,-1
 8 16 l 1,45,-1
 12 16 l 1,46,47
 12 12 12 12 12 8 c 1,43,-1
20 16 m 1,48,49
 20 12 20 12 20 8 c 1,50,51
 18 8 18 8 16 8 c 1,52,-1
 16 16 l 1,53,-1
 20 16 l 1,48,49
EndSplineSet
Validated: 5
EndChar

StartChar: uni0108
Encoding: 264 264 182
Width: 36
GlyphClass: 2
Flags: W
LayerCount: 2
Fore
SplineSet
4 56 m 1,0,-1
 4 60 l 1,1,-1
 8 60 l 1,2,-1
 8 64 l 1,3,-1
 12 64 l 1,4,-1
 12 68 l 1,5,-1
 16 68 l 1,6,-1
 16 64 l 1,7,-1
 12 64 l 1,8,-1
 12 60 l 1,9,-1
 8 60 l 1,10,-1
 8 56 l 1,11,-1
 4 56 l 1,0,-1
0 8 m 1,12,-1
 0 44 l 1,13,-1
 4 44 l 1,14,-1
 4 48 l 1,15,-1
 8 48 l 1,16,-1
 8 52 l 1,17,18
 16 52 16 52 24 52 c 1,19,-1
 24 48 l 1,20,21
 16 48 16 48 8 48 c 1,22,-1
 8 44 l 1,23,-1
 4 44 l 1,24,-1
 4 8 l 1,25,-1
 0 8 l 1,12,-1
16 64 m 1,26,-1
 20 64 l 1,27,-1
 20 60 l 1,28,-1
 16 60 l 1,29,-1
 16 64 l 1,26,-1
20 60 m 1,30,-1
 24 60 l 1,31,-1
 24 56 l 1,32,-1
 20 56 l 1,33,-1
 20 60 l 1,30,-1
24 48 m 1,34,35
 26 48 26 48 28 48 c 1,36,37
 28 46 28 46 28 44 c 1,38,39
 26 44 26 44 24 44 c 1,40,-1
 24 48 l 1,34,35
4 8 m 1,41,-1
 8 8 l 1,42,-1
 8 4 l 1,43,-1
 4 4 l 1,44,-1
 4 8 l 1,41,-1
24 4 m 1,45,-1
 24 8 l 1,46,-1
 28 8 l 1,47,48
 28 6 28 6 28 4 c 1,49,50
 26 4 26 4 24 4 c 1,45,-1
24 4 m 1,51,-1
 24 0 l 1,52,53
 16 0 16 0 8 0 c 1,54,-1
 8 4 l 1,55,56
 16 4 16 4 24 4 c 1,51,-1
EndSplineSet
Validated: 5
EndChar

StartChar: uni0109
Encoding: 265 265 183
Width: 36
GlyphClass: 2
Flags: W
LayerCount: 2
Fore
SplineSet
4 44 m 1,0,-1
 4 48 l 1,1,-1
 8 48 l 1,2,-1
 8 52 l 1,3,-1
 12 52 l 1,4,-1
 12 56 l 1,5,-1
 16 56 l 1,6,-1
 16 52 l 1,7,-1
 12 52 l 1,8,-1
 12 48 l 1,9,-1
 8 48 l 1,10,-1
 8 44 l 1,11,-1
 4 44 l 1,0,-1
0 8 m 1,12,-1
 0 32 l 1,13,-1
 4 32 l 1,14,-1
 4 36 l 1,15,-1
 8 36 l 1,16,-1
 8 40 l 1,17,18
 16 40 16 40 24 40 c 1,19,-1
 24 36 l 1,20,21
 16 36 16 36 8 36 c 1,22,-1
 8 32 l 1,23,-1
 4 32 l 1,24,-1
 4 8 l 1,25,-1
 0 8 l 1,12,-1
16 52 m 1,26,-1
 20 52 l 1,27,-1
 20 48 l 1,28,-1
 16 48 l 1,29,-1
 16 52 l 1,26,-1
20 48 m 1,30,-1
 24 48 l 1,31,-1
 24 44 l 1,32,-1
 20 44 l 1,33,-1
 20 48 l 1,30,-1
24 36 m 1,34,-1
 28 36 l 1,35,-1
 28 32 l 1,36,-1
 24 32 l 1,37,-1
 24 36 l 1,34,-1
4 8 m 1,38,-1
 8 8 l 1,39,-1
 8 4 l 1,40,-1
 4 4 l 1,41,-1
 4 8 l 1,38,-1
24 4 m 1,42,-1
 24 8 l 1,43,44
 26 8 26 8 28 8 c 1,45,46
 28 6 28 6 28 4 c 1,47,-1
 24 4 l 1,42,-1
24 4 m 1,48,-1
 24 0 l 1,49,50
 16 0 16 0 8 0 c 1,51,-1
 8 4 l 1,52,53
 16 4 16 4 24 4 c 1,48,-1
EndSplineSet
Validated: 5
EndChar

StartChar: Ccaron
Encoding: 268 268 184
Width: 36
GlyphClass: 2
Flags: W
LayerCount: 2
Fore
SplineSet
4 64 m 1,0,-1
 4 68 l 1,1,-1
 8 68 l 1,2,-1
 8 64 l 1,3,-1
 4 64 l 1,0,-1
0 8 m 1,4,-1
 0 44 l 1,5,-1
 4 44 l 1,6,-1
 4 48 l 1,7,-1
 8 48 l 1,8,-1
 8 52 l 1,9,10
 16 52 16 52 24 52 c 1,11,-1
 24 48 l 1,12,13
 16 48 16 48 8 48 c 1,14,-1
 8 44 l 1,15,-1
 4 44 l 1,16,-1
 4 8 l 1,17,-1
 0 8 l 1,4,-1
20 64 m 1,18,-1
 20 68 l 1,19,-1
 24 68 l 1,20,-1
 24 64 l 1,21,-1
 20 64 l 1,18,-1
20 64 m 1,22,-1
 20 60 l 1,23,-1
 16 60 l 1,24,-1
 16 64 l 1,25,-1
 20 64 l 1,22,-1
8 64 m 1,26,-1
 12 64 l 1,27,-1
 12 60 l 1,28,-1
 8 60 l 1,29,-1
 8 64 l 1,26,-1
16 60 m 1,30,-1
 16 56 l 1,31,-1
 12 56 l 1,32,-1
 12 60 l 1,33,-1
 16 60 l 1,30,-1
24 48 m 1,34,35
 26 48 26 48 28 48 c 1,36,37
 28 46 28 46 28 44 c 1,38,39
 26 44 26 44 24 44 c 1,40,-1
 24 48 l 1,34,35
4 8 m 1,41,-1
 8 8 l 1,42,-1
 8 4 l 1,43,-1
 4 4 l 1,44,-1
 4 8 l 1,41,-1
24 4 m 1,45,-1
 24 8 l 1,46,-1
 28 8 l 1,47,48
 28 6 28 6 28 4 c 1,49,50
 26 4 26 4 24 4 c 1,45,-1
24 4 m 1,51,-1
 24 0 l 1,52,53
 16 0 16 0 8 0 c 1,54,-1
 8 4 l 1,55,56
 16 4 16 4 24 4 c 1,51,-1
EndSplineSet
Validated: 5
EndChar

StartChar: ccaron
Encoding: 269 269 185
Width: 36
GlyphClass: 2
Flags: W
LayerCount: 2
Fore
SplineSet
4 52 m 1,0,-1
 4 56 l 1,1,-1
 8 56 l 1,2,-1
 8 52 l 1,3,-1
 4 52 l 1,0,-1
0 8 m 1,4,-1
 0 32 l 1,5,-1
 4 32 l 1,6,-1
 4 36 l 1,7,-1
 8 36 l 1,8,-1
 8 40 l 1,9,10
 16 40 16 40 24 40 c 1,11,-1
 24 36 l 1,12,13
 16 36 16 36 8 36 c 1,14,-1
 8 32 l 1,15,-1
 4 32 l 1,16,-1
 4 8 l 1,17,-1
 0 8 l 1,4,-1
20 52 m 1,18,-1
 20 56 l 1,19,-1
 24 56 l 1,20,-1
 24 52 l 1,21,-1
 20 52 l 1,18,-1
20 52 m 1,22,-1
 20 48 l 1,23,-1
 16 48 l 1,24,-1
 16 52 l 1,25,-1
 20 52 l 1,22,-1
8 52 m 1,26,-1
 12 52 l 1,27,-1
 12 48 l 1,28,-1
 8 48 l 1,29,-1
 8 52 l 1,26,-1
16 48 m 1,30,-1
 16 44 l 1,31,-1
 12 44 l 1,32,-1
 12 48 l 1,33,-1
 16 48 l 1,30,-1
24 36 m 1,34,-1
 28 36 l 1,35,-1
 28 32 l 1,36,-1
 24 32 l 1,37,-1
 24 36 l 1,34,-1
4 8 m 1,38,-1
 8 8 l 1,39,-1
 8 4 l 1,40,-1
 4 4 l 1,41,-1
 4 8 l 1,38,-1
24 4 m 1,42,-1
 24 8 l 1,43,44
 26 8 26 8 28 8 c 1,45,46
 28 6 28 6 28 4 c 1,47,-1
 24 4 l 1,42,-1
24 4 m 1,48,-1
 24 0 l 1,49,50
 16 0 16 0 8 0 c 1,51,-1
 8 4 l 1,52,53
 16 4 16 4 24 4 c 1,48,-1
EndSplineSet
Validated: 5
EndChar

StartChar: uni010e
Encoding: 270 270 186
Width: 36
GlyphClass: 2
Flags: W
LayerCount: 2
Fore
SplineSet
4 64 m 1,0,-1
 4 68 l 1,1,-1
 8 68 l 1,2,-1
 8 64 l 1,3,-1
 4 64 l 1,0,-1
0 0 m 1,4,-1
 0 52 l 1,5,6
 10 52 10 52 20 52 c 1,7,-1
 20 48 l 1,8,-1
 4 48 l 1,9,-1
 4 4 l 1,10,-1
 20 4 l 1,11,-1
 20 0 l 1,12,-1
 0 0 l 1,4,-1
20 64 m 1,13,-1
 20 68 l 1,14,-1
 24 68 l 1,15,-1
 24 64 l 1,16,-1
 20 64 l 1,13,-1
20 64 m 1,17,-1
 20 60 l 1,18,-1
 16 60 l 1,19,-1
 16 64 l 1,20,-1
 20 64 l 1,17,-1
8 64 m 1,21,-1
 12 64 l 1,22,-1
 12 60 l 1,23,-1
 8 60 l 1,24,-1
 8 64 l 1,21,-1
16 60 m 1,25,-1
 16 56 l 1,26,-1
 12 56 l 1,27,-1
 12 60 l 1,28,-1
 16 60 l 1,25,-1
20 48 m 1,29,-1
 24 48 l 1,30,-1
 24 44 l 1,31,-1
 20 44 l 1,32,-1
 20 48 l 1,29,-1
24 44 m 1,33,-1
 28 44 l 1,34,-1
 28 8 l 1,35,-1
 24 8 l 1,36,-1
 24 44 l 1,33,-1
24 8 m 1,37,-1
 24 4 l 1,38,-1
 20 4 l 1,39,-1
 20 8 l 1,40,-1
 24 8 l 1,37,-1
EndSplineSet
Validated: 5
EndChar

StartChar: uni010f
Encoding: 271 271 187
Width: 48
GlyphClass: 2
Flags: W
LayerCount: 2
Fore
SplineSet
24 0 m 1,0,-1
 24 4 l 1,1,-1
 20 4 l 1,2,-1
 20 8 l 1,3,-1
 24 8 l 1,4,-1
 24 32 l 1,5,-1
 20 32 l 1,6,-1
 20 36 l 1,7,-1
 24 36 l 1,8,-1
 24 52 l 1,9,-1
 28 52 l 1,10,-1
 28 0 l 1,11,-1
 24 0 l 1,0,-1
32 36 m 1,12,-1
 32 40 l 1,13,-1
 36 40 l 1,14,-1
 36 48 l 1,15,-1
 32 48 l 1,16,-1
 32 52 l 1,17,-1
 40 52 l 1,18,-1
 40 40 l 1,19,-1
 36 40 l 1,20,-1
 36 36 l 1,21,-1
 32 36 l 1,12,-1
0 8 m 1,22,-1
 0 32 l 1,23,-1
 4 32 l 1,24,-1
 4 36 l 1,25,-1
 8 36 l 1,26,-1
 8 40 l 1,27,-1
 20 40 l 1,28,-1
 20 36 l 1,29,-1
 8 36 l 1,30,-1
 8 32 l 1,31,-1
 4 32 l 1,32,-1
 4 8 l 1,33,-1
 0 8 l 1,22,-1
4 8 m 1,34,-1
 8 8 l 1,35,-1
 8 4 l 1,36,-1
 4 4 l 1,37,-1
 4 8 l 1,34,-1
20 4 m 1,38,-1
 20 0 l 1,39,-1
 8 0 l 1,40,-1
 8 4 l 1,41,-1
 20 4 l 1,38,-1
EndSplineSet
Validated: 5
EndChar

StartChar: uni011a
Encoding: 282 282 188
Width: 36
GlyphClass: 2
Flags: W
LayerCount: 2
Fore
SplineSet
4 64 m 1,0,-1
 4 68 l 1,1,-1
 8 68 l 1,2,-1
 8 64 l 1,3,-1
 4 64 l 1,0,-1
0 0 m 1,4,-1
 0 52 l 1,5,6
 14 52 14 52 28 52 c 1,7,-1
 28 48 l 1,8,-1
 4 48 l 1,9,-1
 4 28 l 1,10,-1
 20 28 l 1,11,-1
 20 24 l 1,12,-1
 4 24 l 1,13,-1
 4 4 l 1,14,-1
 28 4 l 1,15,-1
 28 0 l 1,16,-1
 0 0 l 1,4,-1
20 64 m 1,17,-1
 20 68 l 1,18,-1
 24 68 l 1,19,-1
 24 64 l 1,20,-1
 20 64 l 1,17,-1
20 64 m 1,21,-1
 20 60 l 1,22,-1
 16 60 l 1,23,-1
 16 64 l 1,24,-1
 20 64 l 1,21,-1
8 64 m 1,25,-1
 12 64 l 1,26,-1
 12 60 l 1,27,-1
 8 60 l 1,28,-1
 8 64 l 1,25,-1
16 60 m 1,29,-1
 16 56 l 1,30,-1
 12 56 l 1,31,-1
 12 60 l 1,32,-1
 16 60 l 1,29,-1
EndSplineSet
Validated: 5
EndChar

StartChar: uni011b
Encoding: 283 283 189
Width: 36
GlyphClass: 2
Flags: W
LayerCount: 2
Fore
SplineSet
4 52 m 1,0,-1
 4 56 l 1,1,-1
 8 56 l 1,2,-1
 8 52 l 1,3,-1
 4 52 l 1,0,-1
0 8 m 1,4,-1
 0 32 l 1,5,-1
 4 32 l 1,6,-1
 4 36 l 1,7,-1
 8 36 l 1,8,-1
 8 40 l 1,9,-1
 20 40 l 1,10,-1
 20 36 l 1,11,-1
 8 36 l 1,12,-1
 8 32 l 1,13,-1
 4 32 l 1,14,-1
 4 24 l 1,15,-1
 24 24 l 1,16,-1
 24 32 l 1,17,-1
 20 32 l 1,18,-1
 20 36 l 1,19,-1
 24 36 l 1,20,-1
 24 32 l 1,21,-1
 28 32 l 1,22,-1
 28 20 l 1,23,-1
 4 20 l 1,24,-1
 4 8 l 1,25,-1
 0 8 l 1,4,-1
20 52 m 1,26,-1
 20 56 l 1,27,-1
 24 56 l 1,28,-1
 24 52 l 1,29,-1
 20 52 l 1,26,-1
20 52 m 1,30,-1
 20 48 l 1,31,-1
 16 48 l 1,32,-1
 16 52 l 1,33,-1
 20 52 l 1,30,-1
8 52 m 1,34,-1
 12 52 l 1,35,-1
 12 48 l 1,36,-1
 8 48 l 1,37,-1
 8 52 l 1,34,-1
16 48 m 1,38,-1
 16 44 l 1,39,-1
 12 44 l 1,40,-1
 12 48 l 1,41,-1
 16 48 l 1,38,-1
4 8 m 1,42,-1
 8 8 l 1,43,-1
 8 4 l 1,44,-1
 4 4 l 1,45,-1
 4 8 l 1,42,-1
24 4 m 1,46,-1
 24 8 l 1,47,48
 26 8 26 8 28 8 c 1,49,50
 28 6 28 6 28 4 c 1,51,-1
 24 4 l 1,46,-1
24 4 m 1,52,-1
 24 0 l 1,53,54
 16 0 16 0 8 0 c 1,55,-1
 8 4 l 1,56,57
 16 4 16 4 24 4 c 1,52,-1
EndSplineSet
Validated: 5
EndChar

StartChar: uni011c
Encoding: 284 284 190
Width: 36
GlyphClass: 2
Flags: W
LayerCount: 2
Fore
SplineSet
4 56 m 1,0,-1
 4 60 l 1,1,-1
 8 60 l 1,2,-1
 8 64 l 1,3,-1
 12 64 l 1,4,-1
 12 68 l 1,5,-1
 16 68 l 1,6,-1
 16 64 l 1,7,-1
 12 64 l 1,8,-1
 12 60 l 1,9,-1
 8 60 l 1,10,-1
 8 56 l 1,11,-1
 4 56 l 1,0,-1
0 8 m 1,12,-1
 0 44 l 1,13,-1
 4 44 l 1,14,-1
 4 48 l 1,15,-1
 8 48 l 1,16,-1
 8 52 l 1,17,-1
 24 52 l 1,18,-1
 24 48 l 1,19,-1
 8 48 l 1,20,-1
 8 44 l 1,21,-1
 4 44 l 1,22,-1
 4 8 l 1,23,-1
 0 8 l 1,12,-1
16 64 m 1,24,-1
 20 64 l 1,25,-1
 20 60 l 1,26,-1
 16 60 l 1,27,-1
 16 64 l 1,24,-1
20 60 m 1,28,-1
 24 60 l 1,29,-1
 24 56 l 1,30,-1
 20 56 l 1,31,-1
 20 60 l 1,28,-1
24 48 m 1,32,-1
 28 48 l 1,33,-1
 28 44 l 1,34,-1
 24 44 l 1,35,-1
 24 48 l 1,32,-1
8 4 m 1,36,-1
 24 4 l 1,37,-1
 24 24 l 1,38,-1
 16 24 l 1,39,-1
 16 28 l 1,40,-1
 28 28 l 1,41,-1
 28 0 l 1,42,-1
 8 0 l 1,43,-1
 8 4 l 1,36,-1
8 4 m 1,44,-1
 4 4 l 1,45,-1
 4 8 l 1,46,-1
 8 8 l 1,47,-1
 8 4 l 1,44,-1
EndSplineSet
Validated: 5
EndChar

StartChar: uni011d
Encoding: 285 285 191
Width: 36
GlyphClass: 2
Flags: W
LayerCount: 2
Fore
SplineSet
4 44 m 1,0,-1
 4 48 l 1,1,-1
 8 48 l 1,2,-1
 8 52 l 1,3,-1
 12 52 l 1,4,-1
 12 56 l 1,5,-1
 16 56 l 1,6,-1
 16 52 l 1,7,-1
 12 52 l 1,8,-1
 12 48 l 1,9,-1
 8 48 l 1,10,-1
 8 44 l 1,11,-1
 4 44 l 1,0,-1
0 8 m 1,12,13
 0 20 0 20 0 32 c 1,14,-1
 4 32 l 1,15,-1
 4 36 l 1,16,-1
 8 36 l 1,17,-1
 8 40 l 1,18,-1
 20 40 l 1,19,-1
 20 36 l 1,20,-1
 24 36 l 1,21,-1
 24 40 l 1,22,-1
 28 40 l 1,23,-1
 28 -4 l 1,24,-1
 24 -4 l 1,25,26
 24 -0 24 -0 24 4 c 1,27,-1
 20 4 l 1,28,-1
 20 8 l 1,29,-1
 24 8 l 1,30,31
 24 20 24 20 24 32 c 1,32,-1
 20 32 l 1,33,-1
 20 36 l 1,34,-1
 8 36 l 1,35,-1
 8 32 l 1,36,-1
 4 32 l 1,37,-1
 4 8 l 1,38,-1
 0 8 l 1,12,13
0 -8 m 1,39,40
 0 -6 0 -6 0 -4 c 1,41,42
 2 -4 2 -4 4 -4 c 1,43,-1
 4 -8 l 1,44,-1
 0 -8 l 1,39,40
16 52 m 1,45,-1
 20 52 l 1,46,-1
 20 48 l 1,47,-1
 16 48 l 1,48,-1
 16 52 l 1,45,-1
20 48 m 1,49,-1
 24 48 l 1,50,-1
 24 44 l 1,51,-1
 20 44 l 1,52,-1
 20 48 l 1,49,-1
4 8 m 1,53,-1
 8 8 l 1,54,-1
 8 4 l 1,55,-1
 4 4 l 1,56,-1
 4 8 l 1,53,-1
20 4 m 1,57,-1
 20 0 l 1,58,-1
 8 0 l 1,59,-1
 8 4 l 1,60,-1
 20 4 l 1,57,-1
24 -4 m 1,61,-1
 24 -8 l 1,62,-1
 20 -8 l 1,63,-1
 20 -4 l 1,64,-1
 24 -4 l 1,61,-1
20 -8 m 1,65,-1
 20 -12 l 1,66,67
 12 -12 12 -12 4 -12 c 1,68,-1
 4 -8 l 1,69,70
 12 -8 12 -8 20 -8 c 1,65,-1
EndSplineSet
Validated: 5
EndChar

StartChar: uni0124
Encoding: 292 292 192
Width: 36
GlyphClass: 2
Flags: W
LayerCount: 2
Fore
SplineSet
4 56 m 1,0,-1
 4 60 l 1,1,-1
 8 60 l 1,2,-1
 8 64 l 1,3,-1
 12 64 l 1,4,-1
 12 68 l 1,5,-1
 16 68 l 1,6,-1
 16 64 l 1,7,-1
 12 64 l 1,8,-1
 12 60 l 1,9,-1
 8 60 l 1,10,-1
 8 56 l 1,11,-1
 4 56 l 1,0,-1
0 0 m 1,12,-1
 0 52 l 1,13,-1
 4 52 l 1,14,-1
 4 28 l 1,15,-1
 24 28 l 1,16,-1
 24 52 l 1,17,-1
 28 52 l 1,18,-1
 28 0 l 1,19,-1
 24 0 l 1,20,-1
 24 24 l 1,21,-1
 4 24 l 1,22,-1
 4 0 l 1,23,-1
 0 0 l 1,12,-1
16 64 m 1,24,-1
 20 64 l 1,25,-1
 20 60 l 1,26,-1
 16 60 l 1,27,-1
 16 64 l 1,24,-1
20 60 m 1,28,-1
 24 60 l 1,29,-1
 24 56 l 1,30,-1
 20 56 l 1,31,-1
 20 60 l 1,28,-1
EndSplineSet
Validated: 5
EndChar

StartChar: uni0125
Encoding: 293 293 193
Width: 36
GlyphClass: 2
Flags: W
LayerCount: 2
Fore
SplineSet
-8 56 m 1,0,-1
 -8 60 l 1,1,-1
 -4 60 l 1,2,-1
 -4 64 l 1,3,-1
 0 64 l 1,4,-1
 0 68 l 1,5,-1
 4 68 l 1,6,-1
 4 64 l 1,7,-1
 0 64 l 1,8,-1
 0 60 l 1,9,-1
 -4 60 l 1,10,-1
 -4 56 l 1,11,-1
 -8 56 l 1,0,-1
0 0 m 1,12,-1
 0 52 l 1,13,-1
 4 52 l 1,14,-1
 4 36 l 1,15,-1
 8 36 l 1,16,-1
 8 32 l 1,17,-1
 4 32 l 1,18,-1
 4 0 l 1,19,-1
 0 0 l 1,12,-1
4 64 m 1,20,-1
 8 64 l 1,21,-1
 8 60 l 1,22,-1
 4 60 l 1,23,-1
 4 64 l 1,20,-1
8 60 m 1,24,-1
 12 60 l 1,25,-1
 12 56 l 1,26,-1
 8 56 l 1,27,-1
 8 60 l 1,24,-1
8 36 m 1,28,-1
 8 40 l 1,29,-1
 20 40 l 1,30,-1
 20 36 l 1,31,-1
 8 36 l 1,28,-1
20 36 m 1,32,-1
 24 36 l 1,33,-1
 24 32 l 1,34,-1
 20 32 l 1,35,-1
 20 36 l 1,32,-1
24 32 m 1,36,-1
 28 32 l 1,37,-1
 28 0 l 1,38,-1
 24 0 l 1,39,-1
 24 32 l 1,36,-1
EndSplineSet
Validated: 5
EndChar

StartChar: dotlessi
Encoding: 305 305 194
Width: 12
GlyphClass: 2
Flags: W
LayerCount: 2
Fore
SplineSet
0 0 m 1,0,-1
 0 40 l 1,1,-1
 4 40 l 1,2,-1
 4 0 l 1,3,-1
 0 0 l 1,0,-1
EndSplineSet
Validated: 1
EndChar

StartChar: uni0134
Encoding: 308 308 195
Width: 36
GlyphClass: 2
Flags: W
LayerCount: 2
Fore
SplineSet
16 56 m 1,0,-1
 16 60 l 1,1,-1
 20 60 l 1,2,-1
 20 64 l 1,3,-1
 24 64 l 1,4,-1
 24 68 l 1,5,-1
 28 68 l 1,6,-1
 28 64 l 1,7,-1
 24 64 l 1,8,-1
 24 60 l 1,9,-1
 20 60 l 1,10,-1
 20 56 l 1,11,-1
 16 56 l 1,0,-1
0 4 m 1,12,13
 0 6 0 6 0 8 c 1,14,15
 2 8 2 8 4 8 c 1,16,-1
 4 4 l 1,17,-1
 0 4 l 1,12,13
28 64 m 1,18,-1
 32 64 l 1,19,-1
 32 60 l 1,20,-1
 28 60 l 1,21,-1
 28 64 l 1,18,-1
32 60 m 1,22,-1
 36 60 l 1,23,-1
 36 56 l 1,24,-1
 32 56 l 1,25,-1
 32 60 l 1,22,-1
24 8 m 1,26,-1
 24 52 l 1,27,-1
 28 52 l 1,28,-1
 28 8 l 1,29,-1
 24 8 l 1,26,-1
24 8 m 1,30,-1
 24 4 l 1,31,-1
 20 4 l 1,32,-1
 20 8 l 1,33,-1
 24 8 l 1,30,-1
20 4 m 1,34,-1
 20 0 l 1,35,36
 12 0 12 0 4 0 c 1,37,-1
 4 4 l 1,38,39
 12 4 12 4 20 4 c 1,34,-1
EndSplineSet
Validated: 5
EndChar

StartChar: uni0135
Encoding: 309 309 196
Width: 16
GlyphClass: 2
Flags: W
LayerCount: 2
Fore
SplineSet
-4 48 m 1,0,-1
 -4 52 l 1,1,-1
 0 52 l 1,2,-1
 0 56 l 1,3,-1
 4 56 l 1,4,-1
 4 60 l 1,5,-1
 8 60 l 1,6,-1
 8 56 l 1,7,-1
 4 56 l 1,8,-1
 4 52 l 1,9,-1
 0 52 l 1,10,-1
 0 48 l 1,11,-1
 -4 48 l 1,0,-1
-8 -8 m 1,12,-1
 -8 -4 l 1,13,-1
 -4 -4 l 1,14,-1
 -4 -8 l 1,15,-1
 -8 -8 l 1,12,-1
8 56 m 1,16,-1
 12 56 l 1,17,-1
 12 52 l 1,18,-1
 8 52 l 1,19,-1
 8 56 l 1,16,-1
12 52 m 1,20,-1
 16 52 l 1,21,-1
 16 48 l 1,22,-1
 12 48 l 1,23,-1
 12 52 l 1,20,-1
4 -8 m 1,24,-1
 4 40 l 1,25,-1
 8 40 l 1,26,-1
 8 -8 l 1,27,-1
 4 -8 l 1,24,-1
4 -8 m 1,28,-1
 4 -12 l 1,29,-1
 -4 -12 l 1,30,-1
 -4 -8 l 1,31,-1
 4 -8 l 1,28,-1
EndSplineSet
Validated: 5
EndChar

StartChar: uni0147
Encoding: 327 327 197
Width: 36
GlyphClass: 2
Flags: W
LayerCount: 2
Fore
SplineSet
4 60 m 1,0,-1
 4 64 l 1,1,-1
 8 64 l 1,2,-1
 8 60 l 1,3,-1
 4 60 l 1,0,-1
24 0 m 1,4,-1
 24 20 l 1,5,-1
 20 20 l 1,6,-1
 20 24 l 1,7,-1
 24 24 l 1,8,-1
 24 52 l 1,9,-1
 28 52 l 1,10,-1
 28 0 l 1,11,-1
 24 0 l 1,4,-1
0 0 m 1,12,-1
 0 52 l 1,13,-1
 4 52 l 1,14,-1
 4 40 l 1,15,-1
 8 40 l 1,16,-1
 8 36 l 1,17,-1
 4 36 l 1,18,-1
 4 0 l 1,19,-1
 0 0 l 1,12,-1
20 60 m 1,20,-1
 20 64 l 1,21,-1
 24 64 l 1,22,-1
 24 60 l 1,23,-1
 20 60 l 1,20,-1
20 60 m 1,24,-1
 20 56 l 1,25,-1
 16 56 l 1,26,-1
 16 60 l 1,27,-1
 20 60 l 1,24,-1
8 60 m 1,28,-1
 12 60 l 1,29,-1
 12 56 l 1,30,-1
 8 56 l 1,31,-1
 8 60 l 1,28,-1
16 56 m 1,32,-1
 16 52 l 1,33,-1
 12 52 l 1,34,-1
 12 56 l 1,35,-1
 16 56 l 1,32,-1
8 36 m 1,36,-1
 12 36 l 1,37,-1
 12 32 l 1,38,-1
 8 32 l 1,39,-1
 8 36 l 1,36,-1
12 32 m 1,40,-1
 16 32 l 1,41,-1
 16 28 l 1,42,-1
 12 28 l 1,43,-1
 12 32 l 1,40,-1
20 24 m 1,44,-1
 16 24 l 1,45,-1
 16 28 l 1,46,-1
 20 28 l 1,47,-1
 20 24 l 1,44,-1
EndSplineSet
Validated: 5
EndChar

StartChar: uni0148
Encoding: 328 328 198
Width: 36
GlyphClass: 2
Flags: W
LayerCount: 2
Fore
SplineSet
4 52 m 1,0,-1
 4 56 l 1,1,-1
 8 56 l 1,2,-1
 8 52 l 1,3,-1
 4 52 l 1,0,-1
0 0 m 1,4,-1
 0 40 l 1,5,-1
 4 40 l 1,6,-1
 4 36 l 1,7,-1
 8 36 l 1,8,-1
 8 40 l 1,9,-1
 20 40 l 1,10,-1
 20 36 l 1,11,-1
 8 36 l 1,12,-1
 8 32 l 1,13,-1
 4 32 l 1,14,-1
 4 0 l 1,15,-1
 0 0 l 1,4,-1
20 52 m 1,16,-1
 20 56 l 1,17,-1
 24 56 l 1,18,-1
 24 52 l 1,19,-1
 20 52 l 1,16,-1
20 52 m 1,20,-1
 20 48 l 1,21,-1
 16 48 l 1,22,-1
 16 52 l 1,23,-1
 20 52 l 1,20,-1
8 52 m 1,24,-1
 12 52 l 1,25,-1
 12 48 l 1,26,-1
 8 48 l 1,27,-1
 8 52 l 1,24,-1
16 48 m 1,28,-1
 16 44 l 1,29,-1
 12 44 l 1,30,-1
 12 48 l 1,31,-1
 16 48 l 1,28,-1
20 36 m 1,32,-1
 24 36 l 1,33,-1
 24 32 l 1,34,-1
 20 32 l 1,35,-1
 20 36 l 1,32,-1
24 32 m 1,36,-1
 28 32 l 1,37,-1
 28 0 l 1,38,-1
 24 0 l 1,39,-1
 24 32 l 1,36,-1
EndSplineSet
Validated: 5
EndChar

StartChar: OE
Encoding: 338 338 199
Width: 60
GlyphClass: 2
Flags: W
LayerCount: 2
Fore
SplineSet
24 0 m 1,0,-1
 24 4 l 1,1,-1
 20 4 l 1,2,-1
 20 8 l 1,3,-1
 24 8 l 1,4,-1
 24 44 l 1,5,-1
 20 44 l 1,6,-1
 20 48 l 1,7,-1
 24 48 l 1,8,-1
 24 52 l 1,9,-1
 52 52 l 1,10,-1
 52 48 l 1,11,-1
 28 48 l 1,12,-1
 28 28 l 1,13,-1
 44 28 l 1,14,-1
 44 24 l 1,15,-1
 28 24 l 1,16,-1
 28 4 l 1,17,-1
 52 4 l 1,18,-1
 52 0 l 1,19,-1
 24 0 l 1,0,-1
0 8 m 1,20,-1
 0 44 l 1,21,-1
 4 44 l 1,22,-1
 4 48 l 1,23,-1
 8 48 l 1,24,-1
 8 52 l 1,25,-1
 20 52 l 1,26,-1
 20 48 l 1,27,-1
 8 48 l 1,28,-1
 8 44 l 1,29,-1
 4 44 l 1,30,-1
 4 8 l 1,31,-1
 0 8 l 1,20,-1
4 8 m 1,32,-1
 8 8 l 1,33,-1
 8 4 l 1,34,-1
 4 4 l 1,35,-1
 4 8 l 1,32,-1
20 4 m 1,36,-1
 20 0 l 1,37,-1
 8 0 l 1,38,-1
 8 4 l 1,39,-1
 20 4 l 1,36,-1
EndSplineSet
Validated: 5
EndChar

StartChar: oe
Encoding: 339 339 200
Width: 60
GlyphClass: 2
Flags: W
LayerCount: 2
Fore
SplineSet
0 8 m 1,0,-1
 0 32 l 1,1,-1
 4 32 l 1,2,-1
 4 36 l 1,3,-1
 8 36 l 1,4,-1
 8 40 l 1,5,-1
 20 40 l 1,6,-1
 20 36 l 1,7,-1
 8 36 l 1,8,-1
 8 32 l 1,9,-1
 4 32 l 1,10,-1
 4 8 l 1,11,-1
 0 8 l 1,0,-1
44 36 m 1,12,-1
 32 36 l 1,13,-1
 32 40 l 1,14,-1
 44 40 l 1,15,-1
 44 36 l 1,12,-1
44 36 m 1,16,-1
 48 36 l 1,17,-1
 48 32 l 1,18,-1
 44 32 l 1,19,-1
 44 36 l 1,16,-1
32 36 m 1,20,-1
 32 32 l 1,21,-1
 28 32 l 1,22,-1
 28 36 l 1,23,-1
 32 36 l 1,20,-1
20 36 m 1,24,-1
 24 36 l 1,25,-1
 24 32 l 1,26,-1
 20 32 l 1,27,-1
 20 36 l 1,24,-1
48 32 m 1,28,-1
 52 32 l 1,29,-1
 52 20 l 1,30,-1
 28 20 l 1,31,-1
 28 8 l 1,32,-1
 24 8 l 1,33,-1
 24 32 l 1,34,-1
 28 32 l 1,35,-1
 28 24 l 1,36,-1
 48 24 l 1,37,-1
 48 32 l 1,28,-1
28 8 m 1,38,-1
 32 8 l 1,39,-1
 32 4 l 1,40,-1
 28 4 l 1,41,-1
 28 8 l 1,38,-1
24 8 m 1,42,-1
 24 4 l 1,43,-1
 20 4 l 1,44,-1
 20 8 l 1,45,-1
 24 8 l 1,42,-1
4 8 m 1,46,-1
 8 8 l 1,47,-1
 8 4 l 1,48,-1
 4 4 l 1,49,-1
 4 8 l 1,46,-1
48 4 m 1,50,-1
 48 8 l 1,51,-1
 52 8 l 1,52,-1
 52 4 l 1,53,-1
 48 4 l 1,50,-1
48 4 m 1,54,-1
 48 0 l 1,55,56
 40 0 40 0 32 0 c 1,57,-1
 32 4 l 1,58,59
 40 4 40 4 48 4 c 1,54,-1
20 4 m 1,60,-1
 20 0 l 1,61,-1
 8 0 l 1,62,-1
 8 4 l 1,63,-1
 20 4 l 1,60,-1
EndSplineSet
Validated: 5
EndChar

StartChar: uni0158
Encoding: 344 344 201
Width: 36
GlyphClass: 2
Flags: W
LayerCount: 2
Fore
SplineSet
4 64 m 1,0,-1
 4 68 l 1,1,-1
 8 68 l 1,2,-1
 8 64 l 1,3,-1
 4 64 l 1,0,-1
0 0 m 1,4,-1
 0 52 l 1,5,-1
 20 52 l 1,6,-1
 20 48 l 1,7,-1
 4 48 l 1,8,-1
 4 28 l 1,9,-1
 20 28 l 1,10,-1
 20 24 l 1,11,-1
 16 24 l 1,12,-1
 16 20 l 1,13,-1
 12 20 l 1,14,-1
 12 24 l 1,15,-1
 4 24 l 1,16,-1
 4 0 l 1,17,-1
 0 0 l 1,4,-1
20 64 m 1,18,-1
 20 68 l 1,19,-1
 24 68 l 1,20,-1
 24 64 l 1,21,-1
 20 64 l 1,18,-1
20 64 m 1,22,-1
 20 60 l 1,23,-1
 16 60 l 1,24,-1
 16 64 l 1,25,-1
 20 64 l 1,22,-1
8 64 m 1,26,-1
 12 64 l 1,27,-1
 12 60 l 1,28,-1
 8 60 l 1,29,-1
 8 64 l 1,26,-1
16 60 m 1,30,-1
 16 56 l 1,31,-1
 12 56 l 1,32,-1
 12 60 l 1,33,-1
 16 60 l 1,30,-1
20 48 m 1,34,-1
 24 48 l 1,35,-1
 24 44 l 1,36,-1
 20 44 l 1,37,-1
 20 48 l 1,34,-1
24 44 m 1,38,-1
 28 44 l 1,39,-1
 28 32 l 1,40,-1
 24 32 l 1,41,-1
 24 44 l 1,38,-1
24 32 m 1,42,-1
 24 28 l 1,43,-1
 20 28 l 1,44,-1
 20 32 l 1,45,-1
 24 32 l 1,42,-1
16 20 m 1,46,-1
 20 20 l 1,47,-1
 20 16 l 1,48,-1
 16 16 l 1,49,-1
 16 20 l 1,46,-1
20 16 m 1,50,-1
 24 16 l 1,51,-1
 24 8 l 1,52,-1
 20 8 l 1,53,-1
 20 16 l 1,50,-1
24 8 m 1,54,-1
 28 8 l 1,55,-1
 28 0 l 1,56,-1
 24 0 l 1,57,-1
 24 8 l 1,54,-1
EndSplineSet
Validated: 5
EndChar

StartChar: uni0159
Encoding: 345 345 202
Width: 28
GlyphClass: 2
Flags: W
LayerCount: 2
Fore
SplineSet
0 52 m 1,0,-1
 0 56 l 1,1,-1
 4 56 l 1,2,-1
 4 52 l 1,3,-1
 0 52 l 1,0,-1
0 0 m 1,4,-1
 0 40 l 1,5,-1
 4 40 l 1,6,-1
 4 32 l 1,7,-1
 8 32 l 1,8,-1
 8 28 l 1,9,-1
 4 28 l 1,10,-1
 4 0 l 1,11,-1
 0 0 l 1,4,-1
16 52 m 1,12,-1
 16 56 l 1,13,-1
 20 56 l 1,14,-1
 20 52 l 1,15,-1
 16 52 l 1,12,-1
16 52 m 1,16,-1
 16 48 l 1,17,-1
 12 48 l 1,18,-1
 12 52 l 1,19,-1
 16 52 l 1,16,-1
4 52 m 1,20,-1
 8 52 l 1,21,-1
 8 48 l 1,22,-1
 4 48 l 1,23,-1
 4 52 l 1,20,-1
12 48 m 1,24,-1
 12 44 l 1,25,-1
 8 44 l 1,26,-1
 8 48 l 1,27,-1
 12 48 l 1,24,-1
12 36 m 1,28,-1
 12 40 l 1,29,-1
 20 40 l 1,30,-1
 20 36 l 1,31,-1
 12 36 l 1,28,-1
12 36 m 1,32,-1
 12 32 l 1,33,-1
 8 32 l 1,34,-1
 8 36 l 1,35,-1
 12 36 l 1,32,-1
EndSplineSet
Validated: 5
EndChar

StartChar: uni015c
Encoding: 348 348 203
Width: 36
GlyphClass: 2
Flags: W
LayerCount: 2
Fore
SplineSet
4 56 m 1,0,-1
 4 60 l 1,1,-1
 8 60 l 1,2,-1
 8 64 l 1,3,-1
 12 64 l 1,4,-1
 12 68 l 1,5,-1
 16 68 l 1,6,-1
 16 64 l 1,7,-1
 12 64 l 1,8,-1
 12 60 l 1,9,-1
 8 60 l 1,10,-1
 8 56 l 1,11,-1
 4 56 l 1,0,-1
0 32 m 1,12,-1
 0 44 l 1,13,-1
 4 44 l 1,14,-1
 4 48 l 1,15,-1
 8 48 l 1,16,-1
 8 52 l 1,17,-1
 24 52 l 1,18,-1
 24 48 l 1,19,-1
 8 48 l 1,20,-1
 8 44 l 1,21,-1
 4 44 l 1,22,-1
 4 32 l 1,23,-1
 0 32 l 1,12,-1
0 4 m 1,24,25
 0 6 0 6 0 8 c 1,26,27
 2 8 2 8 4 8 c 1,28,-1
 4 4 l 1,29,-1
 0 4 l 1,24,25
16 64 m 1,30,-1
 20 64 l 1,31,-1
 20 60 l 1,32,-1
 16 60 l 1,33,-1
 16 64 l 1,30,-1
20 60 m 1,34,-1
 24 60 l 1,35,-1
 24 56 l 1,36,-1
 20 56 l 1,37,-1
 20 60 l 1,34,-1
24 48 m 1,38,-1
 28 48 l 1,39,-1
 28 44 l 1,40,-1
 24 44 l 1,41,-1
 24 48 l 1,38,-1
4 32 m 1,42,43
 6 32 6 32 8 32 c 1,44,-1
 8 28 l 1,45,46
 6 28 6 28 4 28 c 1,47,48
 4 30 4 30 4 32 c 1,42,43
8 28 m 1,49,50
 14 28 14 28 20 28 c 1,51,-1
 20 24 l 1,52,53
 14 24 14 24 8 24 c 1,54,55
 8 26 8 26 8 28 c 1,49,50
20 24 m 1,56,-1
 24 24 l 1,57,-1
 24 20 l 1,58,-1
 20 20 l 1,59,-1
 20 24 l 1,56,-1
24 20 m 1,60,-1
 28 20 l 1,61,-1
 28 8 l 1,62,-1
 24 8 l 1,63,-1
 24 20 l 1,60,-1
24 8 m 1,64,-1
 24 4 l 1,65,-1
 20 4 l 1,66,-1
 20 8 l 1,67,-1
 24 8 l 1,64,-1
20 4 m 1,68,-1
 20 0 l 1,69,70
 12 0 12 0 4 0 c 1,71,-1
 4 4 l 1,72,73
 12 4 12 4 20 4 c 1,68,-1
EndSplineSet
Validated: 5
EndChar

StartChar: uni015d
Encoding: 349 349 204
Width: 36
GlyphClass: 2
Flags: W
LayerCount: 2
Fore
SplineSet
4 44 m 1,0,-1
 4 48 l 1,1,-1
 8 48 l 1,2,-1
 8 52 l 1,3,-1
 12 52 l 1,4,-1
 12 56 l 1,5,-1
 16 56 l 1,6,-1
 16 52 l 1,7,-1
 12 52 l 1,8,-1
 12 48 l 1,9,-1
 8 48 l 1,10,-1
 8 44 l 1,11,-1
 4 44 l 1,0,-1
0 24 m 1,12,13
 0 28 0 28 0 32 c 1,14,-1
 4 32 l 1,15,-1
 4 36 l 1,16,-1
 8 36 l 1,17,-1
 8 40 l 1,18,19
 16 40 16 40 24 40 c 1,20,-1
 24 36 l 1,21,22
 16 36 16 36 8 36 c 1,23,-1
 8 32 l 1,24,-1
 4 32 l 1,25,26
 4 28 4 28 4 24 c 1,27,-1
 0 24 l 1,12,13
0 4 m 1,28,29
 0 6 0 6 0 8 c 1,30,31
 2 8 2 8 4 8 c 1,32,-1
 4 4 l 1,33,-1
 0 4 l 1,28,29
16 52 m 1,34,-1
 20 52 l 1,35,-1
 20 48 l 1,36,-1
 16 48 l 1,37,-1
 16 52 l 1,34,-1
20 48 m 1,38,-1
 24 48 l 1,39,-1
 24 44 l 1,40,-1
 20 44 l 1,41,-1
 20 48 l 1,38,-1
24 36 m 1,42,-1
 28 36 l 1,43,-1
 28 32 l 1,44,-1
 24 32 l 1,45,-1
 24 36 l 1,42,-1
4 24 m 1,46,-1
 20 24 l 1,47,-1
 20 20 l 1,48,49
 12 20 12 20 4 20 c 1,50,51
 4 22 4 22 4 24 c 1,46,-1
20 20 m 1,52,-1
 24 20 l 1,53,-1
 24 16 l 1,54,-1
 20 16 l 1,55,-1
 20 20 l 1,52,-1
24 16 m 1,56,-1
 28 16 l 1,57,-1
 28 8 l 1,58,-1
 24 8 l 1,59,-1
 24 16 l 1,56,-1
24 8 m 1,60,-1
 24 4 l 1,61,-1
 20 4 l 1,62,-1
 20 8 l 1,63,-1
 24 8 l 1,60,-1
20 4 m 1,64,-1
 20 0 l 1,65,66
 12 0 12 0 4 0 c 1,67,-1
 4 4 l 1,68,69
 12 4 12 4 20 4 c 1,64,-1
EndSplineSet
Validated: 5
EndChar

StartChar: Scaron
Encoding: 352 352 205
Width: 36
GlyphClass: 2
Flags: W
LayerCount: 2
Fore
SplineSet
4 64 m 1,0,-1
 4 68 l 1,1,-1
 8 68 l 1,2,-1
 8 64 l 1,3,-1
 4 64 l 1,0,-1
0 32 m 1,4,-1
 0 44 l 1,5,-1
 4 44 l 1,6,-1
 4 48 l 1,7,-1
 8 48 l 1,8,-1
 8 52 l 1,9,-1
 24 52 l 1,10,-1
 24 48 l 1,11,-1
 8 48 l 1,12,-1
 8 44 l 1,13,-1
 4 44 l 1,14,-1
 4 32 l 1,15,-1
 0 32 l 1,4,-1
0 4 m 1,16,17
 0 6 0 6 0 8 c 1,18,19
 2 8 2 8 4 8 c 1,20,-1
 4 4 l 1,21,-1
 0 4 l 1,16,17
20 64 m 1,22,-1
 20 68 l 1,23,-1
 24 68 l 1,24,-1
 24 64 l 1,25,-1
 20 64 l 1,22,-1
20 64 m 1,26,-1
 20 60 l 1,27,-1
 16 60 l 1,28,-1
 16 64 l 1,29,-1
 20 64 l 1,26,-1
8 64 m 1,30,-1
 12 64 l 1,31,-1
 12 60 l 1,32,-1
 8 60 l 1,33,-1
 8 64 l 1,30,-1
16 60 m 1,34,-1
 16 56 l 1,35,-1
 12 56 l 1,36,-1
 12 60 l 1,37,-1
 16 60 l 1,34,-1
24 48 m 1,38,-1
 28 48 l 1,39,-1
 28 44 l 1,40,-1
 24 44 l 1,41,-1
 24 48 l 1,38,-1
4 32 m 1,42,43
 6 32 6 32 8 32 c 1,44,-1
 8 28 l 1,45,46
 6 28 6 28 4 28 c 1,47,48
 4 30 4 30 4 32 c 1,42,43
8 28 m 1,49,50
 14 28 14 28 20 28 c 1,51,-1
 20 24 l 1,52,53
 14 24 14 24 8 24 c 1,54,55
 8 26 8 26 8 28 c 1,49,50
20 24 m 1,56,-1
 24 24 l 1,57,-1
 24 20 l 1,58,-1
 20 20 l 1,59,-1
 20 24 l 1,56,-1
24 20 m 1,60,-1
 28 20 l 1,61,-1
 28 8 l 1,62,-1
 24 8 l 1,63,-1
 24 20 l 1,60,-1
24 8 m 1,64,-1
 24 4 l 1,65,-1
 20 4 l 1,66,-1
 20 8 l 1,67,-1
 24 8 l 1,64,-1
20 4 m 1,68,-1
 20 0 l 1,69,70
 12 0 12 0 4 0 c 1,71,-1
 4 4 l 1,72,73
 12 4 12 4 20 4 c 1,68,-1
EndSplineSet
Validated: 5
EndChar

StartChar: scaron
Encoding: 353 353 206
Width: 36
GlyphClass: 2
Flags: W
LayerCount: 2
Fore
SplineSet
4 52 m 1,0,-1
 4 56 l 1,1,-1
 8 56 l 1,2,-1
 8 52 l 1,3,-1
 4 52 l 1,0,-1
0 24 m 1,4,5
 0 28 0 28 0 32 c 1,6,-1
 4 32 l 1,7,-1
 4 36 l 1,8,-1
 8 36 l 1,9,-1
 8 40 l 1,10,11
 16 40 16 40 24 40 c 1,12,-1
 24 36 l 1,13,14
 16 36 16 36 8 36 c 1,15,-1
 8 32 l 1,16,-1
 4 32 l 1,17,18
 4 28 4 28 4 24 c 1,19,-1
 0 24 l 1,4,5
0 4 m 1,20,21
 0 6 0 6 0 8 c 1,22,23
 2 8 2 8 4 8 c 1,24,-1
 4 4 l 1,25,-1
 0 4 l 1,20,21
20 52 m 1,26,-1
 20 56 l 1,27,-1
 24 56 l 1,28,-1
 24 52 l 1,29,-1
 20 52 l 1,26,-1
20 52 m 1,30,-1
 20 48 l 1,31,-1
 16 48 l 1,32,-1
 16 52 l 1,33,-1
 20 52 l 1,30,-1
8 52 m 1,34,-1
 12 52 l 1,35,-1
 12 48 l 1,36,-1
 8 48 l 1,37,-1
 8 52 l 1,34,-1
16 48 m 1,38,-1
 16 44 l 1,39,-1
 12 44 l 1,40,-1
 12 48 l 1,41,-1
 16 48 l 1,38,-1
24 36 m 1,42,-1
 28 36 l 1,43,-1
 28 32 l 1,44,-1
 24 32 l 1,45,-1
 24 36 l 1,42,-1
4 24 m 1,46,-1
 20 24 l 1,47,-1
 20 20 l 1,48,49
 12 20 12 20 4 20 c 1,50,51
 4 22 4 22 4 24 c 1,46,-1
20 20 m 1,52,-1
 24 20 l 1,53,-1
 24 16 l 1,54,-1
 20 16 l 1,55,-1
 20 20 l 1,52,-1
24 16 m 1,56,-1
 28 16 l 1,57,-1
 28 8 l 1,58,-1
 24 8 l 1,59,-1
 24 16 l 1,56,-1
24 8 m 1,60,-1
 24 4 l 1,61,-1
 20 4 l 1,62,-1
 20 8 l 1,63,-1
 24 8 l 1,60,-1
20 4 m 1,64,-1
 20 0 l 1,65,66
 12 0 12 0 4 0 c 1,67,-1
 4 4 l 1,68,69
 12 4 12 4 20 4 c 1,64,-1
EndSplineSet
Validated: 5
EndChar

StartChar: uni0164
Encoding: 356 356 207
Width: 36
GlyphClass: 2
Flags: W
LayerCount: 2
Fore
SplineSet
4 64 m 1,0,-1
 4 68 l 1,1,-1
 8 68 l 1,2,-1
 8 64 l 1,3,-1
 4 64 l 1,0,-1
12 0 m 1,4,-1
 12 48 l 1,5,-1
 0 48 l 1,6,-1
 0 52 l 1,7,8
 14 52 14 52 28 52 c 1,9,-1
 28 48 l 1,10,-1
 16 48 l 1,11,-1
 16 0 l 1,12,-1
 12 0 l 1,4,-1
20 64 m 1,13,-1
 20 68 l 1,14,-1
 24 68 l 1,15,-1
 24 64 l 1,16,-1
 20 64 l 1,13,-1
20 64 m 1,17,-1
 20 60 l 1,18,-1
 16 60 l 1,19,-1
 16 64 l 1,20,-1
 20 64 l 1,17,-1
8 64 m 1,21,-1
 12 64 l 1,22,-1
 12 60 l 1,23,-1
 8 60 l 1,24,-1
 8 64 l 1,21,-1
16 60 m 1,25,-1
 16 56 l 1,26,-1
 12 56 l 1,27,-1
 12 60 l 1,28,-1
 16 60 l 1,25,-1
EndSplineSet
Validated: 5
EndChar

StartChar: uni0165
Encoding: 357 357 208
Width: 44
GlyphClass: 2
Flags: W
LayerCount: 2
Fore
SplineSet
4 4 m 1,0,-1
 4 36 l 1,1,-1
 -4 36 l 1,2,-1
 -4 40 l 1,3,-1
 4 40 l 1,4,-1
 4 52 l 1,5,-1
 8 52 l 1,6,-1
 8 40 l 1,7,8
 14 40 14 40 20 40 c 1,9,-1
 20 36 l 1,10,11
 14 36 14 36 8 36 c 1,12,-1
 8 4 l 1,13,-1
 4 4 l 1,0,-1
28 36 m 1,14,-1
 28 40 l 1,15,-1
 32 40 l 1,16,-1
 32 48 l 1,17,-1
 28 48 l 1,18,-1
 28 52 l 1,19,-1
 36 52 l 1,20,-1
 36 40 l 1,21,-1
 32 40 l 1,22,-1
 32 36 l 1,23,-1
 28 36 l 1,14,-1
8 4 m 1,24,-1
 24 4 l 1,25,-1
 24 0 l 1,26,-1
 8 0 l 1,27,-1
 8 4 l 1,24,-1
EndSplineSet
Validated: 5
EndChar

StartChar: uni016c
Encoding: 364 364 209
Width: 36
GlyphClass: 2
Flags: W
LayerCount: 2
Fore
SplineSet
4 60 m 1,0,-1
 4 64 l 1,1,-1
 8 64 l 1,2,-1
 8 60 l 1,3,-1
 4 60 l 1,0,-1
0 8 m 1,4,-1
 0 52 l 1,5,-1
 4 52 l 1,6,-1
 4 8 l 1,7,-1
 0 8 l 1,4,-1
20 60 m 1,8,-1
 20 64 l 1,9,-1
 24 64 l 1,10,-1
 24 60 l 1,11,-1
 20 60 l 1,8,-1
20 60 m 1,12,-1
 20 56 l 1,13,-1
 8 56 l 1,14,-1
 8 60 l 1,15,-1
 20 60 l 1,12,-1
24 8 m 1,16,-1
 24 52 l 1,17,-1
 28 52 l 1,18,-1
 28 8 l 1,19,-1
 24 8 l 1,16,-1
24 8 m 1,20,-1
 24 4 l 1,21,-1
 20 4 l 1,22,-1
 20 8 l 1,23,-1
 24 8 l 1,20,-1
4 8 m 1,24,-1
 8 8 l 1,25,-1
 8 4 l 1,26,-1
 4 4 l 1,27,-1
 4 8 l 1,24,-1
20 4 m 1,28,-1
 20 0 l 1,29,-1
 8 0 l 1,30,-1
 8 4 l 1,31,-1
 20 4 l 1,28,-1
EndSplineSet
Validated: 5
EndChar

StartChar: uni016d
Encoding: 365 365 210
Width: 36
GlyphClass: 2
Flags: W
LayerCount: 2
Fore
SplineSet
4 48 m 1,0,-1
 4 52 l 1,1,-1
 8 52 l 1,2,-1
 8 48 l 1,3,-1
 4 48 l 1,0,-1
24 0 m 1,4,-1
 24 4 l 1,5,-1
 20 4 l 1,6,-1
 20 8 l 1,7,-1
 24 8 l 1,8,-1
 24 40 l 1,9,-1
 28 40 l 1,10,-1
 28 0 l 1,11,-1
 24 0 l 1,4,-1
0 8 m 1,12,-1
 0 40 l 1,13,-1
 4 40 l 1,14,-1
 4 8 l 1,15,-1
 0 8 l 1,12,-1
20 48 m 1,16,-1
 20 52 l 1,17,-1
 24 52 l 1,18,-1
 24 48 l 1,19,-1
 20 48 l 1,16,-1
20 48 m 1,20,-1
 20 44 l 1,21,-1
 8 44 l 1,22,-1
 8 48 l 1,23,-1
 20 48 l 1,20,-1
4 8 m 1,24,-1
 8 8 l 1,25,-1
 8 4 l 1,26,-1
 4 4 l 1,27,-1
 4 8 l 1,24,-1
20 4 m 1,28,-1
 20 0 l 1,29,-1
 8 0 l 1,30,-1
 8 4 l 1,31,-1
 20 4 l 1,28,-1
EndSplineSet
Validated: 5
EndChar

StartChar: uni016e
Encoding: 366 366 211
Width: 36
GlyphClass: 2
Flags: W
LayerCount: 2
Fore
SplineSet
8 60 m 1,0,-1
 8 64 l 1,1,-1
 12 64 l 1,2,-1
 12 68 l 1,3,-1
 16 68 l 1,4,-1
 16 64 l 1,5,-1
 12 64 l 1,6,-1
 12 60 l 1,7,-1
 8 60 l 1,0,-1
0 8 m 1,8,-1
 0 52 l 1,9,-1
 4 52 l 1,10,-1
 4 8 l 1,11,-1
 0 8 l 1,8,-1
16 64 m 1,12,-1
 20 64 l 1,13,-1
 20 60 l 1,14,-1
 16 60 l 1,15,-1
 16 64 l 1,12,-1
16 60 m 1,16,-1
 16 56 l 1,17,-1
 12 56 l 1,18,-1
 12 60 l 1,19,-1
 16 60 l 1,16,-1
24 8 m 1,20,-1
 24 52 l 1,21,-1
 28 52 l 1,22,-1
 28 8 l 1,23,-1
 24 8 l 1,20,-1
24 8 m 1,24,-1
 24 4 l 1,25,-1
 20 4 l 1,26,-1
 20 8 l 1,27,-1
 24 8 l 1,24,-1
4 8 m 1,28,-1
 8 8 l 1,29,-1
 8 4 l 1,30,-1
 4 4 l 1,31,-1
 4 8 l 1,28,-1
20 4 m 1,32,-1
 20 0 l 1,33,-1
 8 0 l 1,34,-1
 8 4 l 1,35,36
 14 4 14 4 20 4 c 1,32,-1
EndSplineSet
Validated: 5
EndChar

StartChar: uni016f
Encoding: 367 367 212
Width: 36
GlyphClass: 2
Flags: W
LayerCount: 2
Fore
SplineSet
8 48 m 1,0,-1
 8 52 l 1,1,-1
 12 52 l 1,2,-1
 12 56 l 1,3,-1
 16 56 l 1,4,-1
 16 52 l 1,5,-1
 12 52 l 1,6,-1
 12 48 l 1,7,-1
 8 48 l 1,0,-1
24 0 m 1,8,-1
 24 4 l 1,9,-1
 20 4 l 1,10,-1
 20 8 l 1,11,-1
 24 8 l 1,12,-1
 24 40 l 1,13,-1
 28 40 l 1,14,-1
 28 0 l 1,15,-1
 24 0 l 1,8,-1
0 8 m 1,16,-1
 0 40 l 1,17,-1
 4 40 l 1,18,-1
 4 8 l 1,19,-1
 0 8 l 1,16,-1
16 52 m 1,20,-1
 20 52 l 1,21,-1
 20 48 l 1,22,-1
 16 48 l 1,23,-1
 16 52 l 1,20,-1
16 48 m 1,24,-1
 16 44 l 1,25,-1
 12 44 l 1,26,-1
 12 48 l 1,27,-1
 16 48 l 1,24,-1
4 8 m 1,28,-1
 8 8 l 1,29,-1
 8 4 l 1,30,-1
 4 4 l 1,31,-1
 4 8 l 1,28,-1
20 4 m 1,32,-1
 20 0 l 1,33,-1
 8 0 l 1,34,-1
 8 4 l 1,35,-1
 20 4 l 1,32,-1
EndSplineSet
Validated: 5
EndChar

StartChar: Ydieresis
Encoding: 376 376 213
Width: 36
GlyphClass: 2
Flags: W
LayerCount: 2
Fore
SplineSet
20 56 m 1,0,-1
 20 60 l 1,1,-1
 24 60 l 1,2,-1
 24 56 l 1,3,-1
 20 56 l 1,0,-1
4 56 m 1,4,-1
 4 60 l 1,5,-1
 8 60 l 1,6,-1
 8 56 l 1,7,-1
 4 56 l 1,4,-1
0 40 m 1,8,-1
 0 52 l 1,9,-1
 4 52 l 1,10,-1
 4 40 l 1,11,-1
 0 40 l 1,8,-1
24 40 m 1,12,-1
 24 52 l 1,13,-1
 28 52 l 1,14,-1
 28 40 l 1,15,-1
 24 40 l 1,12,-1
24 40 m 1,16,-1
 24 32 l 1,17,-1
 20 32 l 1,18,-1
 20 40 l 1,19,-1
 24 40 l 1,16,-1
4 40 m 1,20,-1
 8 40 l 1,21,-1
 8 32 l 1,22,-1
 4 32 l 1,23,-1
 4 40 l 1,20,-1
20 32 m 1,24,-1
 20 24 l 1,25,-1
 16 24 l 1,26,27
 16 28 16 28 16 32 c 1,28,-1
 20 32 l 1,24,-1
8 32 m 1,29,-1
 12 32 l 1,30,-1
 12 24 l 1,31,-1
 8 24 l 1,32,33
 8 28 8 28 8 32 c 1,29,-1
16 24 m 1,34,-1
 16 0 l 1,35,-1
 12 0 l 1,36,-1
 12 24 l 1,37,-1
 16 24 l 1,34,-1
EndSplineSet
Validated: 5
EndChar

StartChar: Zcaron
Encoding: 381 381 214
Width: 36
GlyphClass: 2
Flags: W
LayerCount: 2
Fore
SplineSet
4 64 m 1,0,-1
 4 68 l 1,1,-1
 8 68 l 1,2,-1
 8 64 l 1,3,-1
 4 64 l 1,0,-1
0 0 m 1,4,-1
 0 16 l 1,5,-1
 4 16 l 1,6,-1
 4 20 l 1,7,-1
 8 20 l 1,8,-1
 8 24 l 1,9,-1
 12 24 l 1,10,-1
 12 28 l 1,11,-1
 16 28 l 1,12,-1
 16 32 l 1,13,-1
 20 32 l 1,14,-1
 20 36 l 1,15,-1
 24 36 l 1,16,-1
 24 48 l 1,17,-1
 0 48 l 1,18,-1
 0 52 l 1,19,-1
 28 52 l 1,20,-1
 28 36 l 1,21,-1
 24 36 l 1,22,-1
 24 32 l 1,23,-1
 20 32 l 1,24,-1
 20 28 l 1,25,-1
 16 28 l 1,26,-1
 16 24 l 1,27,-1
 12 24 l 1,28,-1
 12 20 l 1,29,-1
 8 20 l 1,30,-1
 8 16 l 1,31,-1
 4 16 l 1,32,-1
 4 4 l 1,33,-1
 28 4 l 1,34,-1
 28 0 l 1,35,-1
 0 0 l 1,4,-1
20 64 m 1,36,-1
 20 68 l 1,37,-1
 24 68 l 1,38,-1
 24 64 l 1,39,-1
 20 64 l 1,36,-1
20 64 m 1,40,-1
 20 60 l 1,41,-1
 16 60 l 1,42,-1
 16 64 l 1,43,-1
 20 64 l 1,40,-1
8 64 m 1,44,-1
 12 64 l 1,45,-1
 12 60 l 1,46,-1
 8 60 l 1,47,-1
 8 64 l 1,44,-1
16 60 m 1,48,-1
 16 56 l 1,49,-1
 12 56 l 1,50,-1
 12 60 l 1,51,-1
 16 60 l 1,48,-1
EndSplineSet
Validated: 5
EndChar

StartChar: zcaron
Encoding: 382 382 215
Width: 36
GlyphClass: 2
Flags: W
LayerCount: 2
Fore
SplineSet
4 52 m 1,0,-1
 4 56 l 1,1,-1
 8 56 l 1,2,-1
 8 52 l 1,3,-1
 4 52 l 1,0,-1
0 0 m 1,4,-1
 0 12 l 1,5,-1
 4 12 l 1,6,-1
 4 16 l 1,7,-1
 8 16 l 1,8,-1
 8 20 l 1,9,-1
 12 20 l 1,10,-1
 12 24 l 1,11,-1
 16 24 l 1,12,-1
 16 28 l 1,13,-1
 20 28 l 1,14,-1
 20 32 l 1,15,-1
 24 32 l 1,16,-1
 24 36 l 1,17,-1
 0 36 l 1,18,-1
 0 40 l 1,19,-1
 28 40 l 1,20,-1
 28 32 l 1,21,-1
 24 32 l 1,22,-1
 24 28 l 1,23,-1
 20 28 l 1,24,-1
 20 24 l 1,25,-1
 16 24 l 1,26,-1
 16 20 l 1,27,-1
 12 20 l 1,28,-1
 12 16 l 1,29,-1
 8 16 l 1,30,-1
 8 12 l 1,31,-1
 4 12 l 1,32,-1
 4 4 l 1,33,-1
 28 4 l 1,34,-1
 28 0 l 1,35,-1
 0 0 l 1,4,-1
20 52 m 1,36,-1
 20 56 l 1,37,-1
 24 56 l 1,38,-1
 24 52 l 1,39,-1
 20 52 l 1,36,-1
20 52 m 1,40,-1
 20 48 l 1,41,-1
 16 48 l 1,42,-1
 16 52 l 1,43,-1
 20 52 l 1,40,-1
8 52 m 1,44,-1
 12 52 l 1,45,-1
 12 48 l 1,46,-1
 8 48 l 1,47,-1
 8 52 l 1,44,-1
16 48 m 1,48,-1
 16 44 l 1,49,-1
 12 44 l 1,50,-1
 12 48 l 1,51,-1
 16 48 l 1,48,-1
EndSplineSet
Validated: 5
EndChar

StartChar: circumflex
Encoding: 710 710 216
Width: 28
GlyphClass: 2
Flags: W
LayerCount: 2
Fore
SplineSet
0 48 m 1,0,-1
 0 52 l 1,1,-1
 4 52 l 1,2,-1
 4 56 l 1,3,-1
 8 56 l 1,4,-1
 8 60 l 1,5,-1
 12 60 l 1,6,-1
 12 56 l 1,7,-1
 8 56 l 1,8,-1
 8 52 l 1,9,-1
 4 52 l 1,10,-1
 4 48 l 1,11,-1
 0 48 l 1,0,-1
12 56 m 1,12,-1
 16 56 l 1,13,-1
 16 52 l 1,14,-1
 12 52 l 1,15,-1
 12 56 l 1,12,-1
16 52 m 1,16,-1
 20 52 l 1,17,-1
 20 48 l 1,18,-1
 16 48 l 1,19,-1
 16 52 l 1,16,-1
EndSplineSet
Validated: 5
EndChar

StartChar: ring
Encoding: 730 730 217
Width: 20
GlyphClass: 2
Flags: W
LayerCount: 2
Fore
SplineSet
0 52 m 1,0,-1
 0 56 l 1,1,-1
 4 56 l 1,2,-1
 4 60 l 1,3,-1
 8 60 l 1,4,-1
 8 56 l 1,5,-1
 4 56 l 1,6,-1
 4 52 l 1,7,-1
 0 52 l 1,0,-1
8 56 m 1,8,-1
 12 56 l 1,9,-1
 12 52 l 1,10,-1
 8 52 l 1,11,-1
 8 56 l 1,8,-1
8 52 m 1,12,-1
 8 48 l 1,13,-1
 4 48 l 1,14,-1
 4 52 l 1,15,-1
 8 52 l 1,12,-1
EndSplineSet
Validated: 5
EndChar

StartChar: tilde
Encoding: 732 732 218
Width: 36
GlyphClass: 2
Flags: W
LayerCount: 2
Fore
SplineSet
0 48 m 1,0,-1
 0 52 l 1,1,-1
 4 52 l 1,2,-1
 4 56 l 1,3,-1
 8 56 l 1,4,-1
 8 60 l 1,5,-1
 16 60 l 1,6,-1
 16 56 l 1,7,-1
 8 56 l 1,8,-1
 8 52 l 1,9,-1
 4 52 l 1,10,-1
 4 48 l 1,11,-1
 0 48 l 1,0,-1
16 56 m 1,12,-1
 20 56 l 1,13,-1
 20 52 l 1,14,-1
 16 52 l 1,15,-1
 16 56 l 1,12,-1
24 52 m 1,16,-1
 24 60 l 1,17,-1
 28 60 l 1,18,-1
 28 52 l 1,19,-1
 24 52 l 1,16,-1
24 52 m 1,20,-1
 24 48 l 1,21,-1
 20 48 l 1,22,-1
 20 52 l 1,23,-1
 24 52 l 1,20,-1
EndSplineSet
Validated: 5
EndChar

StartChar: uni0401
Encoding: 1025 1025 219
Width: 36
GlyphClass: 2
Flags: W
LayerCount: 2
Fore
SplineSet
20 56 m 1,0,-1
 20 60 l 1,1,-1
 24 60 l 1,2,-1
 24 56 l 1,3,-1
 20 56 l 1,0,-1
4 56 m 1,4,-1
 4 60 l 1,5,-1
 8 60 l 1,6,-1
 8 56 l 1,7,-1
 4 56 l 1,4,-1
0 0 m 1,8,-1
 0 52 l 1,9,10
 14 52 14 52 28 52 c 1,11,-1
 28 48 l 1,12,-1
 4 48 l 1,13,-1
 4 28 l 1,14,-1
 20 28 l 1,15,-1
 20 24 l 1,16,-1
 4 24 l 1,17,-1
 4 4 l 1,18,-1
 28 4 l 1,19,-1
 28 0 l 1,20,-1
 0 0 l 1,8,-1
EndSplineSet
Validated: 1
EndChar

StartChar: uni0410
Encoding: 1040 1040 220
Width: 36
GlyphClass: 2
Flags: W
LayerCount: 2
Fore
SplineSet
20 40 m 1029,0,-1
12 40 m 1029,1,-1
0 0 m 1,2,3
 0 16 0 16 0 32 c 1,4,-1
 4 32 l 1,5,-1
 4 40 l 1,6,-1
 8 40 l 1,7,-1
 8 32 l 1,8,-1
 4 32 l 1,9,-1
 4 24 l 1,10,-1
 24 24 l 1,11,-1
 24 32 l 1,12,-1
 20 32 l 1,13,-1
 20 40 l 1,14,15
 22 40 22 40 24 40 c 1,16,-1
 24 32 l 1,17,18
 26 32 26 32 28 32 c 1,19,20
 28 16 28 16 28 0 c 1,21,-1
 24 0 l 1,22,-1
 24 20 l 1,23,-1
 4 20 l 1,24,-1
 4 0 l 1,25,-1
 0 0 l 1,2,3
20 40 m 1,26,-1
 16 40 l 1,27,-1
 16 48 l 1,28,29
 14 48 14 48 12 48 c 1,30,-1
 12 52 l 1,31,32
 14 52 14 52 16 52 c 1,33,34
 16 50 16 50 16 48 c 1,35,36
 18 48 18 48 20 48 c 1,37,-1
 20 40 l 1,26,-1
12 48 m 1,38,-1
 12 40 l 1,39,-1
 8 40 l 1,40,-1
 8 48 l 1,41,42
 10 48 10 48 12 48 c 1,38,-1
EndSplineSet
Validated: 5
EndChar

StartChar: uni0411
Encoding: 1041 1041 221
Width: 36
GlyphClass: 2
Flags: W
LayerCount: 2
Fore
SplineSet
0 0 m 1,0,-1
 0 52 l 1,1,-1
 28 52 l 1,2,-1
 28 48 l 1,3,-1
 4 48 l 1,4,-1
 4 28 l 1,5,-1
 20 28 l 1,6,-1
 20 24 l 1,7,-1
 24 24 l 1,8,-1
 24 20 l 1,9,-1
 20 20 l 1,10,-1
 20 24 l 1,11,-1
 4 24 l 1,12,-1
 4 4 l 1,13,-1
 20 4 l 1,14,-1
 20 8 l 1,15,-1
 24 8 l 1,16,-1
 24 4 l 1,17,-1
 20 4 l 1,18,-1
 20 0 l 1,19,-1
 0 0 l 1,0,-1
24 20 m 1,20,21
 26 20 26 20 28 20 c 1,22,-1
 28 8 l 1,23,24
 26 8 26 8 24 8 c 1,25,-1
 24 20 l 1,20,21
EndSplineSet
Validated: 5
EndChar

StartChar: uni0412
Encoding: 1042 1042 222
Width: 36
GlyphClass: 2
Flags: W
LayerCount: 2
Fore
SplineSet
0 0 m 1,0,-1
 0 52 l 1,1,-1
 20 52 l 1,2,-1
 20 48 l 1,3,-1
 4 48 l 1,4,-1
 4 28 l 1,5,-1
 20 28 l 1,6,-1
 20 24 l 1,7,-1
 4 24 l 1,8,-1
 4 4 l 1,9,-1
 20 4 l 1,10,-1
 20 0 l 1,11,-1
 0 0 l 1,0,-1
20 48 m 1,12,-1
 24 48 l 1,13,-1
 24 44 l 1,14,-1
 20 44 l 1,15,-1
 20 48 l 1,12,-1
24 44 m 1,16,-1
 28 44 l 1,17,-1
 28 32 l 1,18,-1
 24 32 l 1,19,-1
 24 44 l 1,16,-1
24 32 m 1,20,-1
 24 28 l 1,21,-1
 20 28 l 1,22,-1
 20 32 l 1,23,-1
 24 32 l 1,20,-1
20 24 m 1,24,-1
 24 24 l 1,25,-1
 24 20 l 1,26,-1
 20 20 l 1,27,-1
 20 24 l 1,24,-1
24 20 m 1,28,-1
 28 20 l 1,29,-1
 28 8 l 1,30,-1
 24 8 l 1,31,-1
 24 20 l 1,28,-1
24 8 m 1,32,-1
 24 4 l 1,33,-1
 20 4 l 1,34,-1
 20 8 l 1,35,-1
 24 8 l 1,32,-1
EndSplineSet
Validated: 5
EndChar

StartChar: uni0413
Encoding: 1043 1043 223
Width: 36
GlyphClass: 2
Flags: W
LayerCount: 2
Fore
SplineSet
0 0 m 1,0,-1
 0 52 l 1,1,-1
 28 52 l 1,2,-1
 28 48 l 1,3,-1
 4 48 l 1,4,-1
 4 0 l 1,5,-1
 0 0 l 1,0,-1
EndSplineSet
Validated: 1
EndChar

StartChar: uni0414
Encoding: 1044 1044 224
Width: 36
GlyphClass: 2
Flags: W
LayerCount: 2
Fore
SplineSet
4 4 m 1,0,-1
 4 8 l 1,1,-1
 8 8 l 1,2,-1
 8 4 l 1,3,-1
 24 4 l 1,4,-1
 24 48 l 1,5,-1
 12 48 l 1,6,-1
 12 8 l 1,7,-1
 8 8 l 1,8,-1
 8 52 l 1,9,10
 18 52 18 52 28 52 c 1,11,-1
 28 4 l 1,12,-1
 32 4 l 1,13,-1
 32 -4 l 1,14,-1
 28 -4 l 1,15,-1
 28 0 l 1,16,-1
 0 0 l 1,17,-1
 0 -4 l 1,18,-1
 -4 -4 l 1,19,-1
 -4 4 l 1,20,-1
 4 4 l 1,0,-1
EndSplineSet
Validated: 5
EndChar

StartChar: uni0415
Encoding: 1045 1045 225
Width: 36
GlyphClass: 2
Flags: W
LayerCount: 2
Fore
SplineSet
0 0 m 1,0,-1
 0 52 l 1,1,-1
 28 52 l 1,2,-1
 28 48 l 1,3,-1
 4 48 l 1,4,-1
 4 28 l 1,5,-1
 20 28 l 1,6,-1
 20 24 l 1,7,-1
 4 24 l 1,8,-1
 4 4 l 1,9,-1
 28 4 l 1,10,-1
 28 0 l 1,11,-1
 0 0 l 1,0,-1
EndSplineSet
Validated: 1
EndChar

StartChar: uni0416
Encoding: 1046 1046 226
Width: 52
GlyphClass: 2
Flags: W
LayerCount: 2
Fore
SplineSet
0 0 m 1,0,-1
 0 4 l 1,1,-1
 4 4 l 1,2,-1
 4 0 l 1,3,-1
 0 0 l 1,0,-1
0 48 m 1,4,-1
 0 52 l 1,5,-1
 4 52 l 1,6,-1
 4 48 l 1,7,-1
 0 48 l 1,4,-1
20 52 m 1,8,-1
 20 28 l 1,9,-1
 16 28 l 1,10,-1
 16 24 l 1,11,-1
 20 24 l 1,12,-1
 20 0 l 1,13,-1
 24 0 l 1,14,-1
 24 24 l 1,15,-1
 28 24 l 1,16,-1
 28 28 l 1,17,-1
 24 28 l 1,18,-1
 24 52 l 1,19,-1
 20 52 l 1,8,-1
40 4 m 1,20,-1
 44 4 l 1,21,-1
 44 0 l 1,22,-1
 40 0 l 1,23,-1
 40 4 l 1,20,-1
40 4 m 1,24,-1
 36 4 l 1,25,-1
 36 12 l 1,26,-1
 40 12 l 1,27,-1
 40 4 l 1,24,-1
40 48 m 1,28,-1
 40 52 l 1,29,-1
 44 52 l 1,30,-1
 44 48 l 1,31,-1
 40 48 l 1,28,-1
40 48 m 1,32,-1
 40 40 l 1,33,-1
 36 40 l 1,34,-1
 36 48 l 1,35,-1
 40 48 l 1,32,-1
36 40 m 1,36,-1
 36 32 l 1,37,-1
 32 32 l 1,38,-1
 32 40 l 1,39,-1
 36 40 l 1,36,-1
36 12 m 1,40,-1
 32 12 l 1,41,-1
 32 20 l 1,42,-1
 36 20 l 1,43,-1
 36 12 l 1,40,-1
32 20 m 1,44,-1
 28 20 l 1,45,-1
 28 24 l 1,46,-1
 32 24 l 1,47,-1
 32 20 l 1,44,-1
32 32 m 1,48,-1
 32 28 l 1,49,-1
 28 28 l 1,50,-1
 28 32 l 1,51,-1
 32 32 l 1,48,-1
4 4 m 1,52,-1
 4 12 l 1,53,-1
 8 12 l 1,54,-1
 8 4 l 1,55,-1
 4 4 l 1,52,-1
4 48 m 1,56,-1
 8 48 l 1,57,-1
 8 40 l 1,58,-1
 4 40 l 1,59,-1
 4 48 l 1,56,-1
8 40 m 1,60,-1
 12 40 l 1,61,-1
 12 32 l 1,62,-1
 8 32 l 1,63,-1
 8 40 l 1,60,-1
8 12 m 1,64,-1
 8 20 l 1,65,-1
 12 20 l 1,66,-1
 12 12 l 1,67,-1
 8 12 l 1,64,-1
12 20 m 1,68,-1
 12 24 l 1,69,-1
 16 24 l 1,70,-1
 16 20 l 1,71,-1
 12 20 l 1,68,-1
12 32 m 1,72,-1
 16 32 l 1,73,-1
 16 28 l 1,74,-1
 12 28 l 1,75,-1
 12 32 l 1,72,-1
EndSplineSet
Validated: 5
EndChar

StartChar: uni0417
Encoding: 1047 1047 227
Width: 36
GlyphClass: 2
Flags: W
LayerCount: 2
Fore
SplineSet
0 44 m 1,0,-1
 0 48 l 1,1,-1
 4 48 l 1,2,-1
 4 52 l 1,3,-1
 20 52 l 1,4,-1
 20 48 l 1,5,-1
 4 48 l 1,6,-1
 4 44 l 1,7,-1
 0 44 l 1,0,-1
8 24 m 1,8,-1
 8 28 l 1,9,-1
 20 28 l 1,10,-1
 20 32 l 1,11,-1
 24 32 l 1,12,-1
 24 44 l 1,13,-1
 20 44 l 1,14,-1
 20 48 l 1,15,-1
 24 48 l 1,16,-1
 24 44 l 1,17,-1
 28 44 l 1,18,-1
 28 32 l 1,19,-1
 24 32 l 1,20,-1
 24 28 l 1,21,-1
 20 28 l 1,22,-1
 20 24 l 1,23,-1
 8 24 l 1,8,-1
0 4 m 1,24,-1
 0 8 l 1,25,-1
 4 8 l 1,26,-1
 4 4 l 1,27,-1
 0 4 l 1,24,-1
20 24 m 1,28,-1
 24 24 l 1,29,-1
 24 20 l 1,30,-1
 20 20 l 1,31,-1
 20 24 l 1,28,-1
24 20 m 1,32,-1
 28 20 l 1,33,-1
 28 8 l 1,34,-1
 24 8 l 1,35,-1
 24 20 l 1,32,-1
24 8 m 1,36,-1
 24 4 l 1,37,-1
 20 4 l 1,38,-1
 20 8 l 1,39,-1
 24 8 l 1,36,-1
20 4 m 1,40,-1
 20 0 l 1,41,-1
 4 0 l 1,42,-1
 4 4 l 1,43,-1
 20 4 l 1,40,-1
EndSplineSet
Validated: 5
EndChar

StartChar: uni0418
Encoding: 1048 1048 228
Width: 36
GlyphClass: 2
Flags: W
LayerCount: 2
Fore
SplineSet
24 0 m 1,0,-1
 24 36 l 1,1,-1
 20 36 l 1,2,-1
 20 40 l 1,3,-1
 24 40 l 1,4,-1
 24 52 l 1,5,-1
 28 52 l 1,6,-1
 28 0 l 1,7,-1
 24 0 l 1,0,-1
0 0 m 1,8,-1
 0 52 l 1,9,-1
 4 52 l 1,10,-1
 4 24 l 1,11,-1
 8 24 l 1,12,-1
 8 20 l 1,13,-1
 4 20 l 1,14,-1
 4 0 l 1,15,-1
 0 0 l 1,8,-1
8 24 m 1,16,-1
 8 28 l 1,17,-1
 12 28 l 1,18,-1
 12 24 l 1,19,-1
 8 24 l 1,16,-1
12 28 m 1,20,-1
 12 32 l 1,21,-1
 16 32 l 1,22,-1
 16 28 l 1,23,-1
 12 28 l 1,20,-1
20 36 m 1,24,-1
 20 32 l 1,25,-1
 16 32 l 1,26,-1
 16 36 l 1,27,-1
 20 36 l 1,24,-1
EndSplineSet
Validated: 5
EndChar

StartChar: uni0419
Encoding: 1049 1049 229
Width: 36
GlyphClass: 2
Flags: W
LayerCount: 2
Fore
SplineSet
4 60 m 1,0,-1
 4 64 l 1,1,-1
 8 64 l 1,2,-1
 8 60 l 1,3,-1
 4 60 l 1,0,-1
24 0 m 1,4,-1
 24 36 l 1,5,-1
 20 36 l 1,6,-1
 20 40 l 1,7,-1
 24 40 l 1,8,-1
 24 52 l 1,9,-1
 28 52 l 1,10,-1
 28 0 l 1,11,-1
 24 0 l 1,4,-1
0 0 m 1,12,-1
 0 52 l 1,13,-1
 4 52 l 1,14,-1
 4 24 l 1,15,-1
 8 24 l 1,16,-1
 8 20 l 1,17,-1
 4 20 l 1,18,-1
 4 0 l 1,19,-1
 0 0 l 1,12,-1
20 60 m 1,20,-1
 20 64 l 1,21,-1
 24 64 l 1,22,-1
 24 60 l 1,23,-1
 20 60 l 1,20,-1
20 60 m 1,24,-1
 20 56 l 1,25,-1
 8 56 l 1,26,-1
 8 60 l 1,27,-1
 20 60 l 1,24,-1
8 24 m 1,28,-1
 8 28 l 1,29,-1
 12 28 l 1,30,-1
 12 24 l 1,31,-1
 8 24 l 1,28,-1
12 28 m 1,32,-1
 12 32 l 1,33,-1
 16 32 l 1,34,-1
 16 28 l 1,35,-1
 12 28 l 1,32,-1
20 36 m 1,36,-1
 20 32 l 1,37,-1
 16 32 l 1,38,-1
 16 36 l 1,39,-1
 20 36 l 1,36,-1
EndSplineSet
Validated: 5
EndChar

StartChar: uni041a
Encoding: 1050 1050 230
Width: 36
GlyphClass: 2
Flags: W
LayerCount: 2
Fore
SplineSet
0 0 m 1,0,-1
 0 52 l 1,1,-1
 4 52 l 1,2,-1
 4 28 l 1,3,-1
 12 28 l 1,4,-1
 12 24 l 1,5,-1
 4 24 l 1,6,-1
 4 0 l 1,7,-1
 0 0 l 1,0,-1
24 40 m 1,8,-1
 24 52 l 1,9,-1
 28 52 l 1,10,-1
 28 40 l 1,11,-1
 24 40 l 1,8,-1
24 40 m 1,12,-1
 24 36 l 1,13,-1
 20 36 l 1,14,-1
 20 40 l 1,15,-1
 24 40 l 1,12,-1
20 36 m 1,16,-1
 20 32 l 1,17,-1
 16 32 l 1,18,-1
 16 36 l 1,19,-1
 20 36 l 1,16,-1
16 32 m 1,20,-1
 16 28 l 1,21,-1
 12 28 l 1,22,-1
 12 32 l 1,23,-1
 16 32 l 1,20,-1
12 24 m 1,24,-1
 16 24 l 1,25,-1
 16 20 l 1,26,-1
 12 20 l 1,27,-1
 12 24 l 1,24,-1
16 20 m 1,28,-1
 20 20 l 1,29,-1
 20 16 l 1,30,-1
 16 16 l 1,31,-1
 16 20 l 1,28,-1
20 16 m 1,32,-1
 24 16 l 1,33,-1
 24 12 l 1,34,-1
 20 12 l 1,35,-1
 20 16 l 1,32,-1
24 12 m 1,36,-1
 28 12 l 1,37,-1
 28 0 l 1,38,-1
 24 0 l 1,39,-1
 24 12 l 1,36,-1
EndSplineSet
Validated: 5
EndChar

StartChar: uni041b
Encoding: 1051 1051 231
Width: 36
GlyphClass: 2
Flags: W
LayerCount: 2
Fore
SplineSet
0 0 m 1,0,-1
 0 4 l 1,1,-1
 4 4 l 1,2,-1
 4 0 l 1,3,-1
 0 0 l 1,0,-1
24 0 m 1,4,-1
 24 48 l 1,5,-1
 12 48 l 1,6,-1
 12 8 l 1,7,-1
 8 8 l 1,8,-1
 8 4 l 1,9,-1
 4 4 l 1,10,-1
 4 8 l 1,11,-1
 8 8 l 1,12,-1
 8 52 l 1,13,-1
 28 52 l 1,14,-1
 28 0 l 1,15,-1
 24 0 l 1,4,-1
EndSplineSet
Validated: 5
EndChar

StartChar: uni041c
Encoding: 1052 1052 232
Width: 52
GlyphClass: 2
Flags: W
LayerCount: 2
Fore
SplineSet
40 0 m 1,0,-1
 40 40 l 1,1,-1
 36 40 l 1,2,-1
 36 44 l 1,3,-1
 40 44 l 1,4,-1
 40 52 l 1,5,-1
 44 52 l 1,6,-1
 44 0 l 1,7,-1
 40 0 l 1,0,-1
0 0 m 1,8,-1
 0 52 l 1,9,-1
 4 52 l 1,10,-1
 4 44 l 1,11,-1
 8 44 l 1,12,-1
 8 40 l 1,13,-1
 4 40 l 1,14,-1
 4 0 l 1,15,-1
 0 0 l 1,8,-1
36 40 m 1,16,-1
 36 36 l 1,17,-1
 32 36 l 1,18,-1
 32 40 l 1,19,-1
 36 40 l 1,16,-1
8 40 m 1,20,-1
 12 40 l 1,21,-1
 12 36 l 1,22,-1
 8 36 l 1,23,-1
 8 40 l 1,20,-1
32 36 m 1,24,-1
 32 32 l 1,25,-1
 28 32 l 1,26,-1
 28 36 l 1,27,-1
 32 36 l 1,24,-1
12 36 m 1,28,-1
 16 36 l 1,29,-1
 16 32 l 1,30,-1
 12 32 l 1,31,-1
 12 36 l 1,28,-1
28 32 m 1,32,-1
 28 28 l 1,33,-1
 24 28 l 1,34,-1
 24 32 l 1,35,-1
 28 32 l 1,32,-1
16 32 m 1,36,-1
 20 32 l 1,37,-1
 20 28 l 1,38,-1
 16 28 l 1,39,-1
 16 32 l 1,36,-1
24 28 m 1,40,-1
 24 24 l 1,41,-1
 20 24 l 1,42,-1
 20 28 l 1,43,-1
 24 28 l 1,40,-1
EndSplineSet
Validated: 5
EndChar

StartChar: uni041d
Encoding: 1053 1053 233
Width: 36
GlyphClass: 2
Flags: W
LayerCount: 2
Fore
SplineSet
0 0 m 1,0,-1
 0 52 l 1,1,-1
 4 52 l 1,2,-1
 4 28 l 1,3,-1
 24 28 l 1,4,-1
 24 52 l 1,5,-1
 28 52 l 1,6,-1
 28 0 l 1,7,-1
 24 0 l 1,8,-1
 24 24 l 1,9,-1
 4 24 l 1,10,-1
 4 0 l 1,11,-1
 0 0 l 1,0,-1
EndSplineSet
Validated: 1
EndChar

StartChar: uni041e
Encoding: 1054 1054 234
Width: 36
GlyphClass: 2
Flags: W
LayerCount: 2
Fore
SplineSet
0 8 m 1,0,-1
 0 44 l 1,1,-1
 4 44 l 1,2,-1
 4 48 l 1,3,-1
 8 48 l 1,4,-1
 8 52 l 1,5,-1
 20 52 l 1,6,-1
 20 48 l 1,7,-1
 8 48 l 1,8,-1
 8 44 l 1,9,-1
 4 44 l 1,10,-1
 4 8 l 1,11,-1
 0 8 l 1,0,-1
20 48 m 1,12,-1
 24 48 l 1,13,-1
 24 44 l 1,14,-1
 20 44 l 1,15,-1
 20 48 l 1,12,-1
24 44 m 1,16,-1
 28 44 l 1,17,-1
 28 8 l 1,18,-1
 24 8 l 1,19,-1
 24 44 l 1,16,-1
24 8 m 1,20,-1
 24 4 l 1,21,-1
 20 4 l 1,22,-1
 20 8 l 1,23,-1
 24 8 l 1,20,-1
4 8 m 1,24,-1
 8 8 l 1,25,-1
 8 4 l 1,26,-1
 4 4 l 1,27,-1
 4 8 l 1,24,-1
20 4 m 1,28,-1
 20 0 l 1,29,-1
 8 0 l 1,30,-1
 8 4 l 1,31,-1
 20 4 l 1,28,-1
EndSplineSet
Validated: 5
EndChar

StartChar: uni041f
Encoding: 1055 1055 235
Width: 36
GlyphClass: 2
Flags: W
LayerCount: 2
Fore
SplineSet
0 52 m 1,0,-1
 28 52 l 1,1,-1
 28 0 l 1,2,-1
 24 0 l 1,3,-1
 24 48 l 1,4,-1
 4 48 l 1,5,-1
 4 0 l 1,6,-1
 0 0 l 1,7,-1
 0 52 l 1,0,-1
EndSplineSet
Validated: 1
EndChar

StartChar: uni0420
Encoding: 1056 1056 236
Width: 36
GlyphClass: 2
Flags: W
LayerCount: 2
Fore
SplineSet
0 0 m 1,0,-1
 0 52 l 1,1,-1
 20 52 l 1,2,-1
 20 48 l 1,3,-1
 4 48 l 1,4,-1
 4 28 l 1,5,-1
 20 28 l 1,6,-1
 20 24 l 1,7,-1
 4 24 l 1,8,-1
 4 0 l 1,9,-1
 0 0 l 1,0,-1
20 48 m 1,10,-1
 24 48 l 1,11,-1
 24 44 l 1,12,-1
 20 44 l 1,13,-1
 20 48 l 1,10,-1
24 44 m 1,14,-1
 28 44 l 1,15,-1
 28 32 l 1,16,-1
 24 32 l 1,17,-1
 24 44 l 1,14,-1
24 32 m 1,18,-1
 24 28 l 1,19,-1
 20 28 l 1,20,-1
 20 32 l 1,21,-1
 24 32 l 1,18,-1
EndSplineSet
Validated: 5
EndChar

StartChar: uni0421
Encoding: 1057 1057 237
Width: 36
GlyphClass: 2
Flags: W
LayerCount: 2
Fore
SplineSet
0 8 m 1,0,-1
 0 44 l 1,1,-1
 4 44 l 1,2,-1
 4 48 l 1,3,-1
 8 48 l 1,4,-1
 8 52 l 1,5,6
 16 52 16 52 24 52 c 1,7,-1
 24 48 l 1,8,9
 16 48 16 48 8 48 c 1,10,-1
 8 44 l 1,11,-1
 4 44 l 1,12,-1
 4 8 l 1,13,-1
 0 8 l 1,0,-1
24 48 m 1,14,15
 26 48 26 48 28 48 c 1,16,17
 28 46 28 46 28 44 c 1,18,19
 26 44 26 44 24 44 c 1,20,-1
 24 48 l 1,14,15
4 8 m 1,21,-1
 8 8 l 1,22,-1
 8 4 l 1,23,-1
 4 4 l 1,24,-1
 4 8 l 1,21,-1
24 4 m 1,25,-1
 24 8 l 1,26,-1
 28 8 l 1,27,28
 28 6 28 6 28 4 c 1,29,30
 26 4 26 4 24 4 c 1,25,-1
24 4 m 1,31,-1
 24 0 l 1,32,33
 16 0 16 0 8 0 c 1,34,-1
 8 4 l 1,35,36
 16 4 16 4 24 4 c 1,31,-1
EndSplineSet
Validated: 5
EndChar

StartChar: uni0422
Encoding: 1058 1058 238
Width: 36
GlyphClass: 2
Flags: W
LayerCount: 2
Fore
SplineSet
12 0 m 1,0,-1
 12 48 l 1,1,-1
 0 48 l 1,2,-1
 0 52 l 1,3,-1
 28 52 l 1,4,-1
 28 48 l 1,5,-1
 16 48 l 1,6,-1
 16 0 l 1,7,-1
 12 0 l 1,0,-1
EndSplineSet
Validated: 1
EndChar

StartChar: uni0423
Encoding: 1059 1059 239
Width: 36
GlyphClass: 2
Flags: W
LayerCount: 2
Fore
SplineSet
0 4 m 1,0,-1
 0 0 l 1,1,-1
 8 0 l 1,2,-1
 8 4 l 1,3,-1
 0 4 l 1,0,-1
0 36 m 1,4,-1
 0 52 l 1,5,-1
 4 52 l 1,6,-1
 4 36 l 1,7,-1
 0 36 l 1,4,-1
8 4 m 1,8,-1
 8 8 l 1,9,-1
 12 8 l 1,10,-1
 12 4 l 1,11,-1
 8 4 l 1,8,-1
24 36 m 1,12,-1
 24 52 l 1,13,-1
 28 52 l 1,14,-1
 28 36 l 1,15,-1
 24 36 l 1,12,-1
24 36 m 1,16,-1
 24 24 l 1,17,-1
 20 24 l 1,18,-1
 20 36 l 1,19,-1
 24 36 l 1,16,-1
4 36 m 1,20,-1
 8 36 l 1,21,-1
 8 24 l 1,22,-1
 4 24 l 1,23,-1
 4 36 l 1,20,-1
20 24 m 1,24,-1
 20 16 l 1,25,-1
 16 16 l 1,26,-1
 16 24 l 1,27,-1
 20 24 l 1,24,-1
8 24 m 1,28,-1
 12 24 l 1,29,-1
 12 16 l 1,30,-1
 8 16 l 1,31,-1
 8 24 l 1,28,-1
16 16 m 1,32,-1
 16 8 l 1,33,-1
 12 8 l 1,34,-1
 12 16 l 1,35,-1
 16 16 l 1,32,-1
EndSplineSet
Validated: 5
EndChar

StartChar: uni0424
Encoding: 1060 1060 240
Width: 52
GlyphClass: 2
Flags: W
LayerCount: 2
Fore
SplineSet
20 0 m 1,0,-1
 24 0 l 1,1,-1
 24 4 l 1,2,-1
 36 4 l 1,3,-1
 36 8 l 1,4,-1
 24 8 l 1,5,-1
 24 44 l 1,6,-1
 36 44 l 1,7,-1
 36 48 l 1,8,-1
 24 48 l 1,9,-1
 24 52 l 1,10,-1
 20 52 l 1,11,-1
 20 48 l 1,12,-1
 8 48 l 1,13,-1
 8 44 l 1,14,-1
 20 44 l 1,15,-1
 20 8 l 1,16,-1
 8 8 l 1,17,-1
 8 4 l 1,18,-1
 20 4 l 1,19,-1
 20 0 l 1,0,-1
40 40 m 1,20,-1
 36 40 l 1,21,-1
 36 44 l 1,22,-1
 40 44 l 1,23,-1
 40 40 l 1,20,-1
40 40 m 1,24,-1
 40 12 l 1,25,-1
 44 12 l 1,26,-1
 44 40 l 1,27,-1
 40 40 l 1,24,-1
40 12 m 1,28,-1
 40 8 l 1,29,-1
 36 8 l 1,30,-1
 36 12 l 1,31,-1
 40 12 l 1,28,-1
4 12 m 1,32,-1
 8 12 l 1,33,-1
 8 8 l 1,34,-1
 4 8 l 1,35,-1
 4 12 l 1,32,-1
4 12 m 1,36,-1
 4 40 l 1,37,-1
 0 40 l 1,38,-1
 0 12 l 1,39,-1
 4 12 l 1,36,-1
4 40 m 1,40,-1
 4 44 l 1,41,-1
 8 44 l 1,42,-1
 8 40 l 1,43,-1
 4 40 l 1,40,-1
EndSplineSet
Validated: 5
EndChar

StartChar: uni0425
Encoding: 1061 1061 241
Width: 36
GlyphClass: 2
Flags: W
LayerCount: 2
Fore
SplineSet
0 44 m 1,0,1
 0 48 0 48 0 52 c 1,2,-1
 4 52 l 1,3,4
 4 48 4 48 4 44 c 1,5,-1
 0 44 l 1,0,1
0 0 m 1,6,-1
 0 8 l 1,7,-1
 4 8 l 1,8,-1
 4 16 l 1,9,-1
 8 16 l 1,10,11
 8 20 8 20 8 24 c 1,12,-1
 12 24 l 1,13,-1
 12 28 l 1,14,-1
 8 28 l 1,15,16
 8 32 8 32 8 36 c 1,17,-1
 4 36 l 1,18,-1
 4 44 l 1,19,-1
 8 44 l 1,20,-1
 8 36 l 1,21,-1
 12 36 l 1,22,23
 12 32 12 32 12 28 c 1,24,-1
 16 28 l 1,25,26
 16 32 16 32 16 36 c 1,27,-1
 20 36 l 1,28,-1
 20 44 l 1,29,-1
 24 44 l 1,30,31
 24 48 24 48 24 52 c 1,32,-1
 28 52 l 1,33,34
 28 48 28 48 28 44 c 1,35,-1
 24 44 l 1,36,-1
 24 36 l 1,37,-1
 20 36 l 1,38,39
 20 32 20 32 20 28 c 1,40,-1
 16 28 l 1,41,-1
 16 24 l 1,42,-1
 12 24 l 1,43,-1
 12 16 l 1,44,-1
 8 16 l 1,45,-1
 8 8 l 1,46,-1
 4 8 l 1,47,-1
 4 0 l 1,48,-1
 0 0 l 1,6,-1
16 24 m 1,49,-1
 20 24 l 1,50,-1
 20 16 l 1,51,-1
 16 16 l 1,52,53
 16 20 16 20 16 24 c 1,49,-1
20 16 m 1,54,-1
 24 16 l 1,55,-1
 24 8 l 1,56,-1
 20 8 l 1,57,-1
 20 16 l 1,54,-1
24 8 m 1,58,-1
 28 8 l 1,59,-1
 28 0 l 1,60,-1
 24 0 l 1,61,-1
 24 8 l 1,58,-1
EndSplineSet
Validated: 5
EndChar

StartChar: uni0426
Encoding: 1062 1062 242
Width: 40
GlyphClass: 2
Flags: W
LayerCount: 2
Fore
SplineSet
0 52 m 1,0,-1
 0 0 l 1,1,-1
 28 0 l 1,2,-1
 28 -4 l 1,3,-1
 32 -4 l 1,4,-1
 32 4 l 1,5,-1
 28 4 l 1,6,-1
 28 52 l 1,7,-1
 24 52 l 1,8,-1
 24 4 l 1,9,-1
 4 4 l 1,10,-1
 4 52 l 1,11,-1
 0 52 l 1,0,-1
EndSplineSet
Validated: 9
EndChar

StartChar: uni0427
Encoding: 1063 1063 243
Width: 36
GlyphClass: 2
Flags: W
LayerCount: 2
Fore
SplineSet
8 24 m 1,0,-1
 24 24 l 1,1,-1
 24 52 l 1,2,-1
 28 52 l 1,3,-1
 28 0 l 1,4,-1
 24 0 l 1,5,-1
 24 20 l 1,6,-1
 8 20 l 1,7,-1
 8 24 l 1,0,-1
8 24 m 1,8,-1
 4 24 l 1,9,-1
 4 28 l 1,10,-1
 8 28 l 1,11,-1
 8 24 l 1,8,-1
4 28 m 1,12,-1
 4 52 l 1,13,-1
 0 52 l 1,14,-1
 0 28 l 1,15,-1
 4 28 l 1,12,-1
EndSplineSet
Validated: 5
EndChar

StartChar: uni0428
Encoding: 1064 1064 244
Width: 52
GlyphClass: 2
Flags: W
LayerCount: 2
Fore
SplineSet
0 0 m 1,0,-1
 44 0 l 1,1,-1
 44 52 l 1,2,-1
 40 52 l 1,3,-1
 40 4 l 1,4,-1
 24 4 l 1,5,-1
 24 44 l 1,6,-1
 20 44 l 1,7,-1
 20 4 l 1,8,-1
 4 4 l 1,9,-1
 4 52 l 1,10,-1
 0 52 l 1,11,-1
 0 0 l 1,0,-1
EndSplineSet
Validated: 9
EndChar

StartChar: uni0429
Encoding: 1065 1065 245
Width: 56
GlyphClass: 2
Flags: W
LayerCount: 2
Fore
SplineSet
0 0 m 1,0,-1
 44 0 l 1,1,-1
 44 -4 l 1,2,-1
 48 -4 l 1,3,-1
 48 4 l 1,4,-1
 44 4 l 1,5,-1
 44 52 l 1,6,-1
 40 52 l 1,7,-1
 40 4 l 1,8,-1
 24 4 l 1,9,-1
 24 44 l 1,10,-1
 20 44 l 1,11,-1
 20 4 l 1,12,-1
 4 4 l 1,13,-1
 4 52 l 1,14,-1
 0 52 l 1,15,-1
 0 0 l 1,0,-1
EndSplineSet
Validated: 9
EndChar

StartChar: uni042a
Encoding: 1066 1066 246
Width: 40
GlyphClass: 2
Flags: W
LayerCount: 2
Fore
SplineSet
4 0 m 1,0,-1
 4 48 l 1,1,-1
 -4 48 l 1,2,-1
 -4 52 l 1,3,-1
 8 52 l 1,4,-1
 8 28 l 1,5,-1
 24 28 l 1,6,-1
 24 24 l 1,7,-1
 28 24 l 1,8,-1
 28 20 l 1,9,-1
 24 20 l 1,10,-1
 24 24 l 1,11,-1
 8 24 l 1,12,-1
 8 4 l 1,13,-1
 24 4 l 1,14,-1
 24 8 l 1,15,-1
 28 8 l 1,16,-1
 28 4 l 1,17,-1
 24 4 l 1,18,-1
 24 0 l 1,19,-1
 4 0 l 1,0,-1
28 20 m 1,20,21
 30 20 30 20 32 20 c 1,22,-1
 32 8 l 1,23,24
 30 8 30 8 28 8 c 1,25,-1
 28 20 l 1,20,21
EndSplineSet
Validated: 5
EndChar

StartChar: uni042b
Encoding: 1067 1067 247
Width: 44
GlyphClass: 2
Flags: W
LayerCount: 2
Fore
SplineSet
32 52 m 1,0,-1
 32 0 l 1,1,-1
 36 0 l 1,2,-1
 36 52 l 1,3,-1
 32 52 l 1,0,-1
0 0 m 1,4,-1
 0 52 l 1,5,-1
 4 52 l 1,6,-1
 4 28 l 1,7,-1
 20 28 l 1,8,-1
 20 24 l 1,9,-1
 24 24 l 1,10,-1
 24 20 l 1,11,-1
 20 20 l 1,12,-1
 20 24 l 1,13,-1
 4 24 l 1,14,-1
 4 4 l 1,15,-1
 20 4 l 1,16,-1
 20 8 l 1,17,-1
 24 8 l 1,18,-1
 24 4 l 1,19,-1
 20 4 l 1,20,-1
 20 0 l 1,21,-1
 0 0 l 1,4,-1
24 20 m 1,22,23
 26 20 26 20 28 20 c 1,24,-1
 28 8 l 1,25,26
 26 8 26 8 24 8 c 1,27,-1
 24 20 l 1,22,23
EndSplineSet
Validated: 5
EndChar

StartChar: uni042c
Encoding: 1068 1068 248
Width: 36
GlyphClass: 2
Flags: W
LayerCount: 2
Fore
SplineSet
0 0 m 1,0,-1
 0 52 l 1,1,-1
 4 52 l 1,2,-1
 4 28 l 1,3,-1
 20 28 l 1,4,-1
 20 24 l 1,5,-1
 24 24 l 1,6,-1
 24 20 l 1,7,-1
 20 20 l 1,8,-1
 20 24 l 1,9,-1
 4 24 l 1,10,-1
 4 4 l 1,11,-1
 20 4 l 1,12,-1
 20 8 l 1,13,-1
 24 8 l 1,14,-1
 24 4 l 1,15,-1
 20 4 l 1,16,-1
 20 0 l 1,17,-1
 0 0 l 1,0,-1
24 20 m 1,18,19
 26 20 26 20 28 20 c 1,20,-1
 28 8 l 1,21,22
 26 8 26 8 24 8 c 1,23,-1
 24 20 l 1,18,19
EndSplineSet
Validated: 5
EndChar

StartChar: uni042d
Encoding: 1069 1069 249
Width: 36
GlyphClass: 2
Flags: W
LayerCount: 2
Fore
SplineSet
0 44 m 1,0,-1
 0 48 l 1,1,-1
 4 48 l 1,2,-1
 4 52 l 1,3,4
 12 52 12 52 20 52 c 1,5,-1
 20 48 l 1,6,7
 12 48 12 48 4 48 c 1,8,-1
 4 44 l 1,9,-1
 0 44 l 1,0,-1
0 4 m 1,10,-1
 0 8 l 1,11,-1
 4 8 l 1,12,-1
 4 4 l 1,13,-1
 0 4 l 1,10,-1
20 48 m 1,14,-1
 24 48 l 1,15,-1
 24 44 l 1,16,-1
 20 44 l 1,17,-1
 20 48 l 1,14,-1
24 44 m 1,18,-1
 28 44 l 1,19,-1
 28 8 l 1,20,-1
 24 8 l 1,21,-1
 24 24 l 1,22,-1
 8 24 l 1,23,-1
 8 28 l 1,24,-1
 24 28 l 1,25,-1
 24 44 l 1,18,-1
24 8 m 1,26,-1
 24 4 l 1,27,-1
 20 4 l 1,28,-1
 20 8 l 1,29,-1
 24 8 l 1,26,-1
20 4 m 1,30,-1
 20 0 l 1,31,32
 12 0 12 0 4 0 c 1,33,-1
 4 4 l 1,34,35
 12 4 12 4 20 4 c 1,30,-1
EndSplineSet
Validated: 5
EndChar

StartChar: uni042e
Encoding: 1070 1070 250
Width: 44
GlyphClass: 2
Flags: W
LayerCount: 2
Fore
SplineSet
8 8 m 1,0,-1
 8 24 l 1,1,-1
 4 24 l 1,2,-1
 4 0 l 1,3,-1
 0 0 l 1,4,-1
 0 52 l 1,5,-1
 4 52 l 1,6,-1
 4 28 l 1,7,-1
 8 28 l 1,8,-1
 8 44 l 1,9,-1
 12 44 l 1,10,-1
 12 48 l 1,11,-1
 16 48 l 1,12,-1
 16 52 l 1,13,-1
 28 52 l 1,14,-1
 28 48 l 1,15,-1
 16 48 l 1,16,-1
 16 44 l 1,17,-1
 12 44 l 1,18,-1
 12 8 l 1,19,-1
 8 8 l 1,0,-1
28 48 m 1,20,-1
 32 48 l 1,21,-1
 32 44 l 1,22,-1
 28 44 l 1,23,-1
 28 48 l 1,20,-1
32 44 m 1,24,-1
 36 44 l 1,25,-1
 36 8 l 1,26,-1
 32 8 l 1,27,-1
 32 44 l 1,24,-1
32 8 m 1,28,-1
 32 4 l 1,29,-1
 28 4 l 1,30,-1
 28 8 l 1,31,-1
 32 8 l 1,28,-1
12 8 m 1,32,-1
 16 8 l 1,33,-1
 16 4 l 1,34,-1
 12 4 l 1,35,-1
 12 8 l 1,32,-1
28 4 m 1,36,-1
 28 0 l 1,37,-1
 16 0 l 1,38,-1
 16 4 l 1,39,-1
 28 4 l 1,36,-1
EndSplineSet
Validated: 5
EndChar

StartChar: uni042f
Encoding: 1071 1071 251
Width: 36
GlyphClass: 2
Flags: W
LayerCount: 2
Fore
SplineSet
28 0 m 1,0,-1
 28 52 l 1,1,-1
 8 52 l 1,2,-1
 8 48 l 1,3,-1
 24 48 l 1,4,-1
 24 28 l 1,5,-1
 8 28 l 1,6,-1
 8 24 l 1,7,-1
 12 24 l 1,8,-1
 12 20 l 1,9,-1
 16 20 l 1,10,-1
 16 24 l 1,11,-1
 24 24 l 1,12,-1
 24 0 l 1,13,-1
 28 0 l 1,0,-1
0 32 m 1,14,-1
 0 44 l 1,15,-1
 4 44 l 1,16,-1
 4 48 l 1,17,-1
 8 48 l 1,18,-1
 8 44 l 1,19,-1
 4 44 l 1,20,-1
 4 32 l 1,21,-1
 0 32 l 1,14,-1
0 0 m 1,22,-1
 0 8 l 1,23,-1
 4 8 l 1,24,-1
 4 16 l 1,25,-1
 8 16 l 1,26,-1
 8 20 l 1,27,-1
 12 20 l 1,28,-1
 12 16 l 1,29,-1
 8 16 l 1,30,-1
 8 8 l 1,31,-1
 4 8 l 1,32,-1
 4 0 l 1,33,-1
 0 0 l 1,22,-1
8 28 m 1,34,-1
 4 28 l 1,35,-1
 4 32 l 1,36,-1
 8 32 l 1,37,-1
 8 28 l 1,34,-1
EndSplineSet
Validated: 5
EndChar

StartChar: uni0430
Encoding: 1072 1072 252
Width: 35
GlyphClass: 2
Flags: W
LayerCount: 2
Fore
SplineSet
24 0 m 1,0,-1
 24 4 l 1,1,-1
 20 4 l 1,2,-1
 20 8 l 1,3,-1
 24 8 l 1,4,-1
 24 20 l 1,5,-1
 8 20 l 1,6,-1
 8 24 l 1,7,-1
 24 24 l 1,8,-1
 24 36 l 1,9,10
 14 36 14 36 4 36 c 1,11,-1
 4 40 l 1,12,13
 14 40 14 40 24 40 c 1,14,-1
 24 36 l 1,15,-1
 28 36 l 1,16,-1
 28 0 l 1,17,-1
 24 0 l 1,0,-1
0 32 m 1,18,19
 0 34 0 34 0 36 c 1,20,-1
 4 36 l 1,21,-1
 4 32 l 1,22,23
 2 32 2 32 0 32 c 1,18,19
0 4 m 1,24,-1
 0 16 l 1,25,-1
 4 16 l 1,26,-1
 4 20 l 1,27,-1
 8 20 l 1,28,-1
 8 16 l 1,29,-1
 4 16 l 1,30,-1
 4 4 l 1,31,-1
 0 4 l 1,24,-1
20 4 m 1,32,-1
 20 0 l 1,33,-1
 4 0 l 1,34,-1
 4 4 l 1,35,36
 12 4 12 4 20 4 c 1,32,-1
EndSplineSet
Validated: 5
EndChar

StartChar: uni0431
Encoding: 1073 1073 253
Width: 36
GlyphClass: 2
Flags: W
LayerCount: 2
Fore
SplineSet
0 8 m 1,0,-1
 0 36 l 1,1,-1
 4 36 l 1,2,-1
 4 44 l 1,3,-1
 8 44 l 1,4,-1
 8 48 l 1,5,-1
 24 48 l 1,6,-1
 24 44 l 1,7,-1
 8 44 l 1,8,-1
 8 36 l 1,9,-1
 4 36 l 1,10,-1
 4 28 l 1,11,-1
 8 28 l 1,12,-1
 8 24 l 1,13,-1
 4 24 l 1,14,-1
 4 8 l 1,15,-1
 0 8 l 1,0,-1
24 48 m 1,16,-1
 24 52 l 1,17,-1
 28 52 l 1,18,-1
 28 48 l 1,19,-1
 24 48 l 1,16,-1
8 28 m 1,20,-1
 8 32 l 1,21,-1
 20 32 l 1,22,-1
 20 28 l 1,23,-1
 8 28 l 1,20,-1
20 28 m 1,24,-1
 24 28 l 1,25,-1
 24 24 l 1,26,-1
 20 24 l 1,27,-1
 20 28 l 1,24,-1
24 24 m 1,28,-1
 28 24 l 1,29,-1
 28 8 l 1,30,-1
 24 8 l 1,31,-1
 24 24 l 1,28,-1
24 8 m 1,32,-1
 24 4 l 1,33,-1
 20 4 l 1,34,-1
 20 8 l 1,35,-1
 24 8 l 1,32,-1
4 8 m 1,36,-1
 8 8 l 1,37,-1
 8 4 l 1,38,-1
 4 4 l 1,39,-1
 4 8 l 1,36,-1
20 4 m 1,40,-1
 20 0 l 1,41,-1
 8 0 l 1,42,-1
 8 4 l 1,43,-1
 20 4 l 1,40,-1
EndSplineSet
Validated: 5
EndChar

StartChar: uni0432
Encoding: 1074 1074 254
Width: 36
GlyphClass: 2
Flags: W
LayerCount: 2
Fore
SplineSet
0 0 m 1,0,-1
 0 40 l 1,1,-1
 20 40 l 1,2,-1
 20 36 l 1,3,-1
 4 36 l 1,4,-1
 4 24 l 1,5,-1
 20 24 l 1,6,-1
 20 20 l 1,7,-1
 4 20 l 1,8,-1
 4 4 l 1,9,-1
 20 4 l 1,10,-1
 20 0 l 1,11,-1
 0 0 l 1,0,-1
20 36 m 1,12,-1
 24 36 l 1,13,-1
 24 32 l 1,14,-1
 20 32 l 1,15,-1
 20 36 l 1,12,-1
24 32 m 1,16,-1
 28 32 l 1,17,-1
 28 28 l 1,18,-1
 24 28 l 1,19,-1
 24 32 l 1,16,-1
24 28 m 1,20,-1
 24 24 l 1,21,-1
 20 24 l 1,22,-1
 20 28 l 1,23,-1
 24 28 l 1,20,-1
20 20 m 1,24,-1
 24 20 l 1,25,-1
 24 16 l 1,26,-1
 20 16 l 1,27,-1
 20 20 l 1,24,-1
24 16 m 1,28,-1
 28 16 l 1,29,-1
 28 8 l 1,30,-1
 24 8 l 1,31,-1
 24 16 l 1,28,-1
24 8 m 1,32,-1
 24 4 l 1,33,-1
 20 4 l 1,34,-1
 20 8 l 1,35,-1
 24 8 l 1,32,-1
EndSplineSet
Validated: 5
EndChar

StartChar: uni0433
Encoding: 1075 1075 255
Width: 36
GlyphClass: 2
Flags: W
LayerCount: 2
Fore
SplineSet
0 0 m 1,0,-1
 0 40 l 1,1,-1
 28 40 l 1,2,-1
 28 36 l 1,3,-1
 4 36 l 1,4,-1
 4 0 l 1,5,-1
 0 0 l 1,0,-1
EndSplineSet
Validated: 1
EndChar

StartChar: uni0434
Encoding: 1076 1076 256
Width: 36
GlyphClass: 2
Flags: W
LayerCount: 2
Fore
SplineSet
4 4 m 1,0,-1
 4 8 l 1,1,-1
 8 8 l 1,2,-1
 8 4 l 1,3,-1
 24 4 l 1,4,-1
 24 36 l 1,5,-1
 12 36 l 1,6,-1
 12 8 l 1,7,-1
 8 8 l 1,8,-1
 8 40 l 1,9,10
 18 40 18 40 28 40 c 1,11,-1
 28 4 l 1,12,-1
 32 4 l 1,13,-1
 32 -4 l 1,14,-1
 28 -4 l 1,15,-1
 28 0 l 1,16,-1
 0 0 l 1,17,-1
 0 -4 l 1,18,-1
 -4 -4 l 1,19,-1
 -4 4 l 1,20,-1
 4 4 l 1,0,-1
EndSplineSet
Validated: 5
EndChar

StartChar: uni0435
Encoding: 1077 1077 257
Width: 36
GlyphClass: 2
Flags: W
LayerCount: 2
Fore
SplineSet
0 8 m 1,0,-1
 0 32 l 1,1,-1
 4 32 l 1,2,-1
 4 36 l 1,3,-1
 8 36 l 1,4,-1
 8 40 l 1,5,-1
 20 40 l 1,6,-1
 20 36 l 1,7,-1
 8 36 l 1,8,-1
 8 32 l 1,9,-1
 4 32 l 1,10,-1
 4 24 l 1,11,-1
 24 24 l 1,12,-1
 24 32 l 1,13,-1
 20 32 l 1,14,-1
 20 36 l 1,15,-1
 24 36 l 1,16,-1
 24 32 l 1,17,-1
 28 32 l 1,18,-1
 28 20 l 1,19,-1
 4 20 l 1,20,-1
 4 8 l 1,21,-1
 0 8 l 1,0,-1
4 8 m 1,22,-1
 8 8 l 1,23,-1
 8 4 l 1,24,-1
 4 4 l 1,25,-1
 4 8 l 1,22,-1
24 4 m 1,26,-1
 24 8 l 1,27,28
 26 8 26 8 28 8 c 1,29,30
 28 6 28 6 28 4 c 1,31,-1
 24 4 l 1,26,-1
24 4 m 1,32,-1
 24 0 l 1,33,34
 16 0 16 0 8 0 c 1,35,-1
 8 4 l 1,36,37
 16 4 16 4 24 4 c 1,32,-1
EndSplineSet
Validated: 5
EndChar

StartChar: uni0436
Encoding: 1078 1078 258
Width: 52
GlyphClass: 2
Flags: W
LayerCount: 2
Fore
SplineSet
0 0 m 1,0,-1
 0 8 l 1,1,-1
 4 8 l 1,2,-1
 4 0 l 1,3,-1
 0 0 l 1,0,-1
0 36 m 1,4,-1
 0 40 l 1,5,-1
 4 40 l 1,6,-1
 4 36 l 1,7,-1
 0 36 l 1,4,-1
20 40 m 1,8,-1
 20 24 l 1,9,-1
 16 24 l 1,10,-1
 16 20 l 1,11,-1
 20 20 l 1,12,-1
 20 0 l 1,13,-1
 24 0 l 1,14,-1
 24 20 l 1,15,-1
 28 20 l 1,16,-1
 28 24 l 1,17,-1
 24 24 l 1,18,-1
 24 40 l 1,19,-1
 20 40 l 1,8,-1
40 8 m 1,20,-1
 44 8 l 1,21,-1
 44 0 l 1,22,-1
 40 0 l 1,23,-1
 40 8 l 1,20,-1
40 8 m 1,24,-1
 36 8 l 1,25,-1
 36 12 l 1,26,-1
 40 12 l 1,27,-1
 40 8 l 1,24,-1
40 36 m 1,28,-1
 40 40 l 1,29,-1
 44 40 l 1,30,-1
 44 36 l 1,31,-1
 40 36 l 1,28,-1
40 36 m 1,32,-1
 40 32 l 1,33,-1
 36 32 l 1,34,-1
 36 36 l 1,35,-1
 40 36 l 1,32,-1
36 32 m 1,36,-1
 36 28 l 1,37,-1
 32 28 l 1,38,-1
 32 32 l 1,39,-1
 36 32 l 1,36,-1
36 12 m 1,40,-1
 32 12 l 1,41,-1
 32 16 l 1,42,-1
 36 16 l 1,43,-1
 36 12 l 1,40,-1
32 16 m 1,44,-1
 28 16 l 1,45,-1
 28 20 l 1,46,-1
 32 20 l 1,47,-1
 32 16 l 1,44,-1
32 28 m 1,48,-1
 32 24 l 1,49,-1
 28 24 l 1,50,-1
 28 28 l 1,51,-1
 32 28 l 1,48,-1
4 8 m 1,52,-1
 4 12 l 1,53,-1
 8 12 l 1,54,-1
 8 8 l 1,55,-1
 4 8 l 1,52,-1
4 36 m 1,56,-1
 8 36 l 1,57,-1
 8 32 l 1,58,-1
 4 32 l 1,59,-1
 4 36 l 1,56,-1
8 32 m 1,60,-1
 12 32 l 1,61,-1
 12 28 l 1,62,-1
 8 28 l 1,63,-1
 8 32 l 1,60,-1
8 12 m 1,64,-1
 8 16 l 1,65,-1
 12 16 l 1,66,-1
 12 12 l 1,67,-1
 8 12 l 1,64,-1
12 16 m 1,68,-1
 12 20 l 1,69,-1
 16 20 l 1,70,-1
 16 16 l 1,71,-1
 12 16 l 1,68,-1
12 28 m 1,72,-1
 16 28 l 1,73,-1
 16 24 l 1,74,-1
 12 24 l 1,75,-1
 12 28 l 1,72,-1
EndSplineSet
Validated: 5
EndChar

StartChar: uni0437
Encoding: 1079 1079 259
Width: 36
GlyphClass: 2
Flags: W
LayerCount: 2
Fore
SplineSet
0 32 m 1,0,-1
 0 36 l 1,1,-1
 4 36 l 1,2,-1
 4 40 l 1,3,-1
 20 40 l 1,4,-1
 20 36 l 1,5,-1
 4 36 l 1,6,-1
 4 32 l 1,7,-1
 0 32 l 1,0,-1
8 20 m 1,8,-1
 8 24 l 1,9,-1
 20 24 l 1,10,-1
 20 28 l 1,11,-1
 24 28 l 1,12,-1
 24 32 l 1,13,-1
 20 32 l 1,14,-1
 20 36 l 1,15,-1
 24 36 l 1,16,-1
 24 32 l 1,17,-1
 28 32 l 1,18,-1
 28 28 l 1,19,-1
 24 28 l 1,20,-1
 24 24 l 1,21,-1
 20 24 l 1,22,-1
 20 20 l 1,23,-1
 8 20 l 1,8,-1
0 4 m 1,24,-1
 0 8 l 1,25,-1
 4 8 l 1,26,-1
 4 4 l 1,27,-1
 0 4 l 1,24,-1
20 20 m 1,28,-1
 24 20 l 1,29,-1
 24 16 l 1,30,-1
 20 16 l 1,31,-1
 20 20 l 1,28,-1
24 16 m 1,32,-1
 28 16 l 1,33,-1
 28 8 l 1,34,-1
 24 8 l 1,35,-1
 24 16 l 1,32,-1
24 8 m 1,36,-1
 24 4 l 1,37,-1
 20 4 l 1,38,-1
 20 8 l 1,39,-1
 24 8 l 1,36,-1
20 4 m 1,40,-1
 20 0 l 1,41,-1
 4 0 l 1,42,-1
 4 4 l 1,43,-1
 20 4 l 1,40,-1
EndSplineSet
Validated: 5
EndChar

StartChar: uni0438
Encoding: 1080 1080 260
Width: 36
GlyphClass: 2
Flags: W
LayerCount: 2
Fore
SplineSet
24 0 m 1,0,-1
 24 32 l 1,1,-1
 20 32 l 1,2,-1
 20 36 l 1,3,-1
 24 36 l 1,4,-1
 24 40 l 1,5,-1
 28 40 l 1,6,-1
 28 0 l 1,7,-1
 24 0 l 1,0,-1
0 0 m 1,8,-1
 0 40 l 1,9,-1
 4 40 l 1,10,-1
 4 20 l 1,11,-1
 8 20 l 1,12,-1
 8 16 l 1,13,-1
 4 16 l 1,14,-1
 4 0 l 1,15,-1
 0 0 l 1,8,-1
8 20 m 1,16,-1
 8 24 l 1,17,-1
 12 24 l 1,18,-1
 12 20 l 1,19,-1
 8 20 l 1,16,-1
12 24 m 1,20,-1
 12 28 l 1,21,-1
 16 28 l 1,22,-1
 16 24 l 1,23,-1
 12 24 l 1,20,-1
20 32 m 1,24,-1
 20 28 l 1,25,-1
 16 28 l 1,26,-1
 16 32 l 1,27,-1
 20 32 l 1,24,-1
EndSplineSet
Validated: 5
EndChar

StartChar: uni0439
Encoding: 1081 1081 261
Width: 36
GlyphClass: 2
Flags: W
LayerCount: 2
Fore
SplineSet
4 48 m 1,0,-1
 4 52 l 1,1,-1
 8 52 l 1,2,-1
 8 48 l 1,3,-1
 4 48 l 1,0,-1
24 0 m 1,4,-1
 24 32 l 1,5,-1
 20 32 l 1,6,-1
 20 36 l 1,7,-1
 24 36 l 1,8,-1
 24 40 l 1,9,-1
 28 40 l 1,10,-1
 28 0 l 1,11,-1
 24 0 l 1,4,-1
0 0 m 1,12,-1
 0 40 l 1,13,-1
 4 40 l 1,14,-1
 4 20 l 1,15,-1
 8 20 l 1,16,-1
 8 16 l 1,17,-1
 4 16 l 1,18,-1
 4 0 l 1,19,-1
 0 0 l 1,12,-1
20 48 m 1,20,-1
 20 52 l 1,21,-1
 24 52 l 1,22,-1
 24 48 l 1,23,-1
 20 48 l 1,20,-1
20 48 m 1,24,-1
 20 44 l 1,25,-1
 8 44 l 1,26,-1
 8 48 l 1,27,-1
 20 48 l 1,24,-1
8 20 m 1,28,-1
 8 24 l 1,29,-1
 12 24 l 1,30,-1
 12 20 l 1,31,-1
 8 20 l 1,28,-1
12 24 m 1,32,-1
 12 28 l 1,33,-1
 16 28 l 1,34,-1
 16 24 l 1,35,-1
 12 24 l 1,32,-1
20 32 m 1,36,-1
 20 28 l 1,37,-1
 16 28 l 1,38,-1
 16 32 l 1,39,-1
 20 32 l 1,36,-1
EndSplineSet
Validated: 5
EndChar

StartChar: uni043a
Encoding: 1082 1082 262
Width: 36
GlyphClass: 2
Flags: W
LayerCount: 2
Fore
SplineSet
0 0 m 1,0,-1
 0 40 l 1,1,-1
 4 40 l 1,2,-1
 4 24 l 1,3,-1
 12 24 l 1,4,-1
 12 20 l 1,5,-1
 4 20 l 1,6,-1
 4 0 l 1,7,-1
 0 0 l 1,0,-1
24 36 m 1,8,-1
 24 40 l 1,9,-1
 28 40 l 1,10,-1
 28 36 l 1,11,-1
 24 36 l 1,8,-1
24 36 m 1,12,-1
 24 32 l 1,13,-1
 20 32 l 1,14,-1
 20 36 l 1,15,-1
 24 36 l 1,12,-1
20 32 m 1,16,-1
 20 28 l 1,17,-1
 16 28 l 1,18,-1
 16 32 l 1,19,-1
 20 32 l 1,16,-1
16 28 m 1,20,-1
 16 24 l 1,21,-1
 12 24 l 1,22,-1
 12 28 l 1,23,-1
 16 28 l 1,20,-1
12 20 m 1,24,-1
 16 20 l 1,25,-1
 16 16 l 1,26,-1
 12 16 l 1,27,-1
 12 20 l 1,24,-1
16 16 m 1,28,-1
 20 16 l 1,29,-1
 20 12 l 1,30,-1
 16 12 l 1,31,-1
 16 16 l 1,28,-1
20 12 m 1,32,-1
 24 12 l 1,33,-1
 24 8 l 1,34,-1
 20 8 l 1,35,-1
 20 12 l 1,32,-1
24 8 m 1,36,-1
 28 8 l 1,37,-1
 28 0 l 1,38,-1
 24 0 l 1,39,-1
 24 8 l 1,36,-1
EndSplineSet
Validated: 5
EndChar

StartChar: uni043b
Encoding: 1083 1083 263
Width: 36
GlyphClass: 2
Flags: W
LayerCount: 2
Fore
SplineSet
0 0 m 1,0,-1
 0 4 l 1,1,-1
 4 4 l 1,2,-1
 4 8 l 1,3,-1
 8 8 l 1,4,-1
 8 4 l 1,5,-1
 4 4 l 1,6,-1
 4 0 l 1,7,-1
 0 0 l 1,0,-1
24 0 m 1,8,9
 24 18 24 18 24 36 c 1,10,-1
 12 36 l 1,11,-1
 12 8 l 1,12,-1
 8 8 l 1,13,-1
 8 40 l 1,14,-1
 28 40 l 1,15,-1
 28 0 l 1,16,-1
 24 0 l 1,8,9
EndSplineSet
Validated: 5
EndChar

StartChar: uni043c
Encoding: 1084 1084 264
Width: 52
GlyphClass: 2
Flags: W
LayerCount: 2
Fore
SplineSet
40 0 m 1,0,-1
 40 32 l 1,1,-1
 36 32 l 1,2,-1
 36 36 l 1,3,-1
 40 36 l 1,4,-1
 40 40 l 1,5,-1
 44 40 l 1,6,-1
 44 0 l 1,7,-1
 40 0 l 1,0,-1
0 0 m 1,8,-1
 0 40 l 1,9,-1
 4 40 l 1,10,-1
 4 36 l 1,11,-1
 8 36 l 1,12,-1
 8 32 l 1,13,-1
 4 32 l 1,14,-1
 4 0 l 1,15,-1
 0 0 l 1,8,-1
36 32 m 1,16,-1
 36 28 l 1,17,-1
 32 28 l 1,18,-1
 32 32 l 1,19,-1
 36 32 l 1,16,-1
8 32 m 1,20,-1
 12 32 l 1,21,-1
 12 28 l 1,22,-1
 8 28 l 1,23,-1
 8 32 l 1,20,-1
32 28 m 1,24,-1
 32 24 l 1,25,-1
 28 24 l 1,26,-1
 28 28 l 1,27,-1
 32 28 l 1,24,-1
12 28 m 1,28,-1
 16 28 l 1,29,-1
 16 24 l 1,30,-1
 12 24 l 1,31,-1
 12 28 l 1,28,-1
28 24 m 1,32,-1
 28 20 l 1,33,-1
 24 20 l 1,34,-1
 24 24 l 1,35,-1
 28 24 l 1,32,-1
16 24 m 1,36,-1
 20 24 l 1,37,-1
 20 20 l 1,38,-1
 16 20 l 1,39,-1
 16 24 l 1,36,-1
24 20 m 1,40,-1
 24 16 l 1,41,-1
 20 16 l 1,42,-1
 20 20 l 1,43,-1
 24 20 l 1,40,-1
EndSplineSet
Validated: 5
EndChar

StartChar: uni043d
Encoding: 1085 1085 265
Width: 36
GlyphClass: 2
Flags: W
LayerCount: 2
Fore
SplineSet
0 0 m 1,0,-1
 0 40 l 1,1,-1
 4 40 l 1,2,-1
 4 24 l 1,3,-1
 24 24 l 1,4,-1
 24 40 l 1,5,-1
 28 40 l 1,6,-1
 28 0 l 1,7,-1
 24 0 l 1,8,-1
 24 20 l 1,9,-1
 4 20 l 1,10,-1
 4 0 l 1,11,-1
 0 0 l 1,0,-1
EndSplineSet
Validated: 1
EndChar

StartChar: uni043e
Encoding: 1086 1086 266
Width: 36
GlyphClass: 2
Flags: W
LayerCount: 2
Fore
SplineSet
0 8 m 1,0,-1
 0 32 l 1,1,-1
 4 32 l 1,2,-1
 4 36 l 1,3,-1
 8 36 l 1,4,-1
 8 40 l 1,5,-1
 20 40 l 1,6,-1
 20 36 l 1,7,-1
 8 36 l 1,8,-1
 8 32 l 1,9,-1
 4 32 l 1,10,-1
 4 8 l 1,11,-1
 0 8 l 1,0,-1
20 36 m 1,12,-1
 24 36 l 1,13,-1
 24 32 l 1,14,-1
 20 32 l 1,15,-1
 20 36 l 1,12,-1
24 32 m 1,16,-1
 28 32 l 1,17,-1
 28 8 l 1,18,-1
 24 8 l 1,19,-1
 24 32 l 1,16,-1
24 8 m 1,20,-1
 24 4 l 1,21,-1
 20 4 l 1,22,-1
 20 8 l 1,23,-1
 24 8 l 1,20,-1
4 8 m 1,24,-1
 8 8 l 1,25,-1
 8 4 l 1,26,-1
 4 4 l 1,27,-1
 4 8 l 1,24,-1
20 4 m 1,28,-1
 20 0 l 1,29,-1
 8 0 l 1,30,-1
 8 4 l 1,31,-1
 20 4 l 1,28,-1
EndSplineSet
Validated: 5
EndChar

StartChar: uni043f
Encoding: 1087 1087 267
Width: 36
GlyphClass: 2
Flags: W
LayerCount: 2
Fore
SplineSet
0 0 m 1,0,-1
 0 40 l 1,1,-1
 28 40 l 1,2,-1
 28 0 l 1,3,-1
 24 0 l 1,4,-1
 24 36 l 1,5,-1
 4 36 l 1,6,-1
 4 0 l 1,7,-1
 0 0 l 1,0,-1
EndSplineSet
Validated: 1
EndChar

StartChar: uni0440
Encoding: 1088 1088 268
Width: 36
GlyphClass: 2
Flags: W
LayerCount: 2
Fore
SplineSet
0 -12 m 1,0,-1
 0 40 l 1,1,-1
 4 40 l 1,2,-1
 4 36 l 1,3,-1
 8 36 l 1,4,-1
 8 40 l 1,5,-1
 20 40 l 1,6,-1
 20 36 l 1,7,-1
 8 36 l 1,8,-1
 8 32 l 1,9,-1
 4 32 l 1,10,-1
 4 8 l 1,11,-1
 8 8 l 1,12,-1
 8 4 l 1,13,-1
 4 4 l 1,14,-1
 4 -12 l 1,15,-1
 0 -12 l 1,0,-1
20 36 m 1,16,-1
 24 36 l 1,17,-1
 24 32 l 1,18,-1
 20 32 l 1,19,-1
 20 36 l 1,16,-1
24 32 m 1,20,-1
 28 32 l 1,21,-1
 28 8 l 1,22,-1
 24 8 l 1,23,-1
 24 32 l 1,20,-1
24 8 m 1,24,-1
 24 4 l 1,25,-1
 20 4 l 1,26,-1
 20 8 l 1,27,-1
 24 8 l 1,24,-1
20 4 m 1,28,-1
 20 0 l 1,29,-1
 8 0 l 1,30,-1
 8 4 l 1,31,-1
 20 4 l 1,28,-1
EndSplineSet
Validated: 5
EndChar

